G75*
%MOIN*%
%OFA0B0*%
%FSLAX25Y25*%
%IPPOS*%
%LPD*%
%AMOC8*
5,1,8,0,0,1.08239X$1,22.5*
%
%ADD10R,0.05000X0.10000*%
%ADD11C,0.03369*%
%ADD12C,0.01600*%
%ADD13C,0.01000*%
D10*
X0123500Y0257500D03*
X0131500Y0257500D03*
X0140470Y0256960D03*
D11*
X0133500Y0249500D03*
X0129500Y0249500D03*
X0121500Y0256500D03*
X0109500Y0255500D03*
X0114319Y0240801D03*
X0124319Y0234801D03*
X0140319Y0234801D03*
X0146389Y0242416D03*
X0171500Y0248500D03*
X0173627Y0234882D03*
X0179500Y0235500D03*
X0198245Y0220916D03*
X0203500Y0219500D03*
X0199500Y0234500D03*
X0224500Y0215500D03*
X0217700Y0200673D03*
X0221500Y0196500D03*
X0242500Y0189500D03*
X0232805Y0176671D03*
X0234500Y0171500D03*
X0252500Y0159500D03*
X0239801Y0149681D03*
X0240500Y0143500D03*
X0248500Y0137500D03*
X0248500Y0133500D03*
X0254500Y0126500D03*
X0239416Y0121611D03*
X0238500Y0115500D03*
X0232882Y0094373D03*
X0230500Y0089500D03*
X0247500Y0095500D03*
X0233500Y0067500D03*
X0217916Y0069755D03*
X0214500Y0064500D03*
X0197673Y0050300D03*
X0193500Y0046500D03*
X0212500Y0043500D03*
X0186500Y0026500D03*
X0173671Y0035195D03*
X0168500Y0033500D03*
X0156500Y0015500D03*
X0146681Y0028199D03*
X0139500Y0027500D03*
X0140319Y0035801D03*
X0134500Y0043500D03*
X0130500Y0043500D03*
X0124319Y0035801D03*
X0117611Y0028584D03*
X0112500Y0028500D03*
X0124500Y0013500D03*
X0130500Y0019500D03*
X0134500Y0019500D03*
X0124500Y0053500D03*
X0113500Y0069500D03*
X0119500Y0070500D03*
X0140500Y0067500D03*
X0145500Y0070500D03*
X0155500Y0057500D03*
X0165500Y0075500D03*
X0169000Y0080000D03*
X0184500Y0071500D03*
X0186500Y0093500D03*
X0187500Y0099500D03*
X0204500Y0096500D03*
X0198500Y0117500D03*
X0197500Y0122500D03*
X0214500Y0127500D03*
X0225500Y0133500D03*
X0225500Y0137500D03*
X0211500Y0159500D03*
X0197500Y0148500D03*
X0200500Y0143500D03*
X0175000Y0137500D03*
X0175000Y0133500D03*
X0147000Y0143000D03*
X0144000Y0147000D03*
X0139000Y0152000D03*
X0126000Y0137000D03*
X0131000Y0129000D03*
X0139000Y0134000D03*
X0144000Y0124000D03*
X0140000Y0120500D03*
X0121000Y0124000D03*
X0117500Y0128000D03*
X0121000Y0147000D03*
X0090000Y0137500D03*
X0090000Y0133500D03*
X0067500Y0148500D03*
X0067500Y0153500D03*
X0051500Y0143500D03*
X0039500Y0137500D03*
X0039500Y0133500D03*
X0024500Y0127500D03*
X0025199Y0121319D03*
X0016500Y0133500D03*
X0016500Y0137500D03*
X0010500Y0144500D03*
X0023500Y0155500D03*
X0025584Y0149389D03*
X0016500Y0175500D03*
X0032118Y0176627D03*
X0032500Y0182500D03*
X0046084Y0201245D03*
X0048500Y0206500D03*
X0066327Y0220700D03*
X0070500Y0226500D03*
X0079500Y0244500D03*
X0090329Y0234805D03*
X0096500Y0238500D03*
X0109000Y0215000D03*
X0114500Y0199500D03*
X0124000Y0190500D03*
X0141000Y0190500D03*
X0145500Y0200500D03*
X0151500Y0201500D03*
X0142500Y0216500D03*
X0128500Y0208500D03*
X0099500Y0195500D03*
X0095500Y0190500D03*
X0080500Y0198500D03*
X0078500Y0177500D03*
X0076500Y0172500D03*
X0059500Y0174500D03*
X0031500Y0203500D03*
X0052500Y0227500D03*
X0064500Y0127500D03*
X0066500Y0122500D03*
X0055000Y0111500D03*
X0072500Y0102500D03*
X0076500Y0098500D03*
X0069500Y0083500D03*
X0089500Y0081500D03*
X0095500Y0080500D03*
X0093500Y0063500D03*
X0085500Y0037500D03*
X0091373Y0036118D03*
X0092500Y0020500D03*
X0092500Y0020500D03*
X0064500Y0033500D03*
X0066755Y0050084D03*
X0061500Y0053500D03*
X0046300Y0069327D03*
X0043500Y0074500D03*
X0040500Y0055500D03*
X0023500Y0081500D03*
X0032195Y0095329D03*
X0030500Y0099500D03*
X0012500Y0112500D03*
X0130500Y0093000D03*
X0134500Y0093000D03*
X0192500Y0168500D03*
X0187500Y0172500D03*
X0195500Y0187500D03*
X0174500Y0189500D03*
X0169500Y0191500D03*
X0171500Y0208500D03*
D12*
X0174500Y0189500D01*
X0195500Y0187500D02*
X0192500Y0168500D01*
X0211500Y0159500D02*
X0200500Y0143500D01*
X0214500Y0127500D02*
X0198500Y0117500D01*
X0204500Y0096500D02*
X0186500Y0093500D01*
X0184500Y0071500D02*
X0165500Y0075500D01*
X0155500Y0057500D02*
X0140500Y0067500D01*
X0124500Y0053500D02*
X0113500Y0069500D01*
X0093500Y0063500D02*
X0089500Y0081500D01*
X0069500Y0083500D02*
X0072500Y0102500D01*
X0055000Y0111500D02*
X0064500Y0127500D01*
X0051500Y0143500D02*
X0067500Y0153500D01*
X0059500Y0174500D02*
X0078500Y0177500D01*
X0080500Y0198500D02*
X0099500Y0195500D01*
X0109000Y0215000D02*
X0139000Y0185000D01*
X0139000Y0152000D01*
X0147000Y0143000D02*
X0139000Y0134000D01*
X0131000Y0129000D02*
X0140000Y0120500D01*
X0126000Y0137000D02*
X0117500Y0128000D01*
X0090000Y0133500D02*
X0039500Y0133500D01*
X0016500Y0133500D01*
X0016500Y0137500D02*
X0039500Y0137500D01*
X0090000Y0137500D01*
X0130500Y0093000D02*
X0130500Y0043500D01*
X0130500Y0019500D01*
X0134500Y0019500D02*
X0134500Y0043500D01*
X0134500Y0093000D01*
X0175000Y0133500D02*
X0225500Y0133500D01*
X0248500Y0133500D01*
X0248500Y0137500D02*
X0225500Y0137500D01*
X0175000Y0137500D01*
X0230500Y0089500D02*
X0247500Y0095500D01*
X0238500Y0115500D02*
X0254500Y0126500D01*
X0240500Y0143500D02*
X0252500Y0159500D01*
X0234500Y0171500D02*
X0242500Y0189500D01*
X0221500Y0196500D02*
X0224500Y0215500D01*
X0203500Y0219500D02*
X0199500Y0234500D01*
X0179500Y0235500D02*
X0171500Y0248500D01*
X0142500Y0216500D02*
X0151500Y0201500D01*
X0128500Y0208500D02*
X0128500Y0238500D01*
X0109500Y0255500D01*
X0121500Y0256500D02*
X0123500Y0256500D01*
X0123500Y0257500D01*
X0129500Y0257500D02*
X0129500Y0249500D01*
X0133500Y0249500D01*
X0132500Y0249500D01*
X0132500Y0252500D01*
X0130500Y0252500D01*
X0130500Y0250500D01*
X0131500Y0250500D01*
X0131500Y0251500D01*
X0133500Y0249500D02*
X0133500Y0255500D01*
X0131500Y0255500D01*
X0131500Y0257500D01*
X0129500Y0257500D01*
X0096500Y0238500D02*
X0079500Y0244500D01*
X0070500Y0226500D02*
X0052500Y0227500D01*
X0048500Y0206500D02*
X0031500Y0203500D01*
X0032500Y0182500D02*
X0016500Y0175500D01*
X0023500Y0155500D02*
X0010500Y0144500D01*
X0024500Y0127500D02*
X0012500Y0112500D01*
X0030500Y0099500D02*
X0023500Y0081500D01*
X0043500Y0074500D02*
X0040500Y0055500D01*
X0061500Y0053500D02*
X0064500Y0033500D01*
X0085500Y0037500D02*
X0092500Y0020500D01*
X0112500Y0028500D02*
X0124500Y0013500D01*
X0139500Y0027500D02*
X0156500Y0015500D01*
X0168500Y0033500D02*
X0186500Y0026500D01*
X0193500Y0046500D02*
X0212500Y0043500D01*
X0214500Y0064500D02*
X0233500Y0067500D01*
D13*
X0042697Y0045697D02*
X0033802Y0055576D01*
X0025989Y0066331D01*
X0019342Y0077843D01*
X0013935Y0089987D01*
X0009827Y0102630D01*
X0007064Y0115633D01*
X0005674Y0128853D01*
X0005500Y0135500D01*
X0005674Y0142147D01*
X0007064Y0155367D01*
X0009827Y0168370D01*
X0013935Y0181013D01*
X0019342Y0193157D01*
X0025989Y0204669D01*
X0033802Y0215424D01*
X0042697Y0225303D01*
X0052576Y0234198D01*
X0063331Y0242011D01*
X0074843Y0248658D01*
X0086987Y0254065D01*
X0099630Y0258173D01*
X0112633Y0260936D01*
X0119900Y0261700D01*
X0119900Y0258838D01*
X0119140Y0258077D01*
X0118716Y0257054D01*
X0118716Y0255946D01*
X0119140Y0254923D01*
X0119900Y0254162D01*
X0119900Y0252044D01*
X0120544Y0251400D01*
X0126456Y0251400D01*
X0127100Y0252044D01*
X0127100Y0262359D01*
X0127900Y0262380D01*
X0127900Y0258587D01*
X0127600Y0258287D01*
X0127600Y0251538D01*
X0127140Y0251077D01*
X0126716Y0250054D01*
X0126716Y0248946D01*
X0127140Y0247923D01*
X0127923Y0247140D01*
X0128946Y0246716D01*
X0130054Y0246716D01*
X0131077Y0247140D01*
X0131500Y0247562D01*
X0131923Y0247140D01*
X0132946Y0246716D01*
X0134054Y0246716D01*
X0135077Y0247140D01*
X0135860Y0247923D01*
X0136284Y0248946D01*
X0136284Y0250054D01*
X0135860Y0251077D01*
X0135400Y0251538D01*
X0135400Y0256287D01*
X0135100Y0256587D01*
X0135100Y0262432D01*
X0136533Y0262394D01*
X0136470Y0262157D01*
X0136470Y0257460D01*
X0139970Y0257460D01*
X0139970Y0256460D01*
X0136470Y0256460D01*
X0136470Y0251763D01*
X0136572Y0251381D01*
X0136770Y0251039D01*
X0137049Y0250760D01*
X0137391Y0250562D01*
X0137773Y0250460D01*
X0139970Y0250460D01*
X0139970Y0256460D01*
X0140970Y0256460D01*
X0140970Y0257460D01*
X0144470Y0257460D01*
X0144470Y0261766D01*
X0152367Y0260936D01*
X0165370Y0258173D01*
X0178013Y0254065D01*
X0190157Y0248658D01*
X0201669Y0242011D01*
X0212424Y0234198D01*
X0222303Y0225303D01*
X0231198Y0215424D01*
X0239011Y0204669D01*
X0245658Y0193157D01*
X0251065Y0181013D01*
X0255173Y0168370D01*
X0257936Y0155367D01*
X0259326Y0142147D01*
X0259500Y0135500D01*
X0259326Y0128853D01*
X0257936Y0115633D01*
X0255173Y0102630D01*
X0251065Y0089987D01*
X0245658Y0077843D01*
X0239011Y0066331D01*
X0231198Y0055576D01*
X0222303Y0045697D01*
X0212424Y0036802D01*
X0201669Y0028989D01*
X0190157Y0022342D01*
X0178013Y0016935D01*
X0165370Y0012827D01*
X0152367Y0010064D01*
X0139147Y0008674D01*
X0132500Y0008500D01*
X0125853Y0008674D01*
X0112633Y0010064D01*
X0099630Y0012827D01*
X0086987Y0016935D01*
X0074843Y0022342D01*
X0063331Y0028989D01*
X0052576Y0036802D01*
X0042697Y0045697D01*
X0042999Y0045426D02*
X0060790Y0045426D01*
X0060640Y0046424D02*
X0042043Y0046424D01*
X0041144Y0047423D02*
X0060490Y0047423D01*
X0060341Y0048421D02*
X0040245Y0048421D01*
X0039346Y0049420D02*
X0060191Y0049420D01*
X0060041Y0050418D02*
X0038447Y0050418D01*
X0037548Y0051417D02*
X0059646Y0051417D01*
X0059923Y0051140D02*
X0059933Y0051135D01*
X0062316Y0035253D01*
X0062140Y0035077D01*
X0061716Y0034054D01*
X0061716Y0032946D01*
X0062140Y0031923D01*
X0062923Y0031140D01*
X0063946Y0030716D01*
X0065054Y0030716D01*
X0066077Y0031140D01*
X0066860Y0031923D01*
X0067284Y0032946D01*
X0067284Y0034054D01*
X0066860Y0035077D01*
X0066077Y0035860D01*
X0066067Y0035865D01*
X0063684Y0051747D01*
X0063860Y0051923D01*
X0064284Y0052946D01*
X0064284Y0054054D01*
X0063860Y0055077D01*
X0063077Y0055860D01*
X0062054Y0056284D01*
X0060946Y0056284D01*
X0059923Y0055860D01*
X0059140Y0055077D01*
X0058716Y0054054D01*
X0058716Y0052946D01*
X0059140Y0051923D01*
X0059923Y0051140D01*
X0058936Y0052415D02*
X0036649Y0052415D01*
X0035750Y0053414D02*
X0038649Y0053414D01*
X0038923Y0053140D02*
X0039946Y0052716D01*
X0041054Y0052716D01*
X0042077Y0053140D01*
X0042860Y0053923D01*
X0043284Y0054946D01*
X0043284Y0056054D01*
X0042860Y0057077D01*
X0042698Y0057239D01*
X0045049Y0072128D01*
X0045077Y0072140D01*
X0045860Y0072923D01*
X0046284Y0073946D01*
X0046284Y0075054D01*
X0045860Y0076077D01*
X0045077Y0076860D01*
X0044054Y0077284D01*
X0042946Y0077284D01*
X0041923Y0076860D01*
X0041140Y0076077D01*
X0040716Y0075054D01*
X0040716Y0073946D01*
X0041140Y0072923D01*
X0041302Y0072761D01*
X0038951Y0057872D01*
X0038923Y0057860D01*
X0038140Y0057077D01*
X0037716Y0056054D01*
X0037716Y0054946D01*
X0038140Y0053923D01*
X0038923Y0053140D01*
X0037937Y0054412D02*
X0034851Y0054412D01*
X0033952Y0055411D02*
X0037716Y0055411D01*
X0037863Y0056409D02*
X0033197Y0056409D01*
X0032472Y0057408D02*
X0038470Y0057408D01*
X0039035Y0058406D02*
X0031746Y0058406D01*
X0031021Y0059405D02*
X0039193Y0059405D01*
X0039351Y0060403D02*
X0030295Y0060403D01*
X0029570Y0061402D02*
X0039508Y0061402D01*
X0039666Y0062400D02*
X0028845Y0062400D01*
X0028119Y0063399D02*
X0039824Y0063399D01*
X0039981Y0064397D02*
X0027394Y0064397D01*
X0026668Y0065396D02*
X0040139Y0065396D01*
X0040297Y0066394D02*
X0025952Y0066394D01*
X0025376Y0067393D02*
X0040454Y0067393D01*
X0040612Y0068391D02*
X0024799Y0068391D01*
X0024223Y0069390D02*
X0040770Y0069390D01*
X0040927Y0070388D02*
X0023646Y0070388D01*
X0023070Y0071387D02*
X0041085Y0071387D01*
X0041243Y0072385D02*
X0022493Y0072385D01*
X0021917Y0073384D02*
X0040949Y0073384D01*
X0040716Y0074382D02*
X0021340Y0074382D01*
X0020764Y0075381D02*
X0040851Y0075381D01*
X0041442Y0076379D02*
X0020187Y0076379D01*
X0019611Y0077378D02*
X0045020Y0077378D01*
X0045558Y0076379D02*
X0045709Y0076379D01*
X0046149Y0075381D02*
X0046399Y0075381D01*
X0046284Y0074382D02*
X0047088Y0074382D01*
X0047778Y0073384D02*
X0046051Y0073384D01*
X0045323Y0072385D02*
X0048467Y0072385D01*
X0049157Y0071387D02*
X0044932Y0071387D01*
X0044774Y0070388D02*
X0049889Y0070388D01*
X0049696Y0070606D02*
X0058110Y0061110D01*
X0058110Y0061110D01*
X0058110Y0061110D01*
X0067606Y0052696D01*
X0078046Y0045487D01*
X0089278Y0039586D01*
X0101138Y0035080D01*
X0113454Y0032035D01*
X0113454Y0032035D01*
X0119050Y0031351D01*
X0119151Y0031250D01*
X0119875Y0031250D01*
X0120594Y0031162D01*
X0120706Y0031250D01*
X0120849Y0031250D01*
X0121361Y0031762D01*
X0121932Y0032208D01*
X0121949Y0032350D01*
X0122050Y0032451D01*
X0122050Y0033175D01*
X0122138Y0033894D01*
X0122050Y0034006D01*
X0122050Y0049252D01*
X0122151Y0049947D01*
X0122050Y0050081D01*
X0122050Y0050249D01*
X0121554Y0050745D01*
X0121134Y0051307D01*
X0120968Y0051331D01*
X0120849Y0051450D01*
X0120175Y0051450D01*
X0114919Y0052383D01*
X0104406Y0055311D01*
X0094351Y0059554D01*
X0084920Y0065044D01*
X0076265Y0071691D01*
X0068527Y0079386D01*
X0061834Y0088005D01*
X0056293Y0097407D01*
X0051995Y0107438D01*
X0049011Y0117935D01*
X0048050Y0123180D01*
X0048050Y0123849D01*
X0047927Y0123972D01*
X0047901Y0124144D01*
X0047341Y0124558D01*
X0046849Y0125050D01*
X0046675Y0125050D01*
X0046535Y0125153D01*
X0045847Y0125050D01*
X0031006Y0125050D01*
X0030894Y0125138D01*
X0030175Y0125050D01*
X0029451Y0125050D01*
X0029350Y0124949D01*
X0029208Y0124932D01*
X0028762Y0124361D01*
X0028250Y0123849D01*
X0028250Y0123706D01*
X0028162Y0123594D01*
X0028250Y0122875D01*
X0028250Y0122151D01*
X0028351Y0122050D01*
X0029035Y0116454D01*
X0032080Y0104138D01*
X0036586Y0092278D01*
X0036586Y0092278D01*
X0042487Y0081046D01*
X0049696Y0070606D01*
X0049696Y0070606D01*
X0050774Y0069390D02*
X0044617Y0069390D01*
X0044459Y0068391D02*
X0051659Y0068391D01*
X0052543Y0067393D02*
X0044301Y0067393D01*
X0044144Y0066394D02*
X0053428Y0066394D01*
X0054313Y0065396D02*
X0043986Y0065396D01*
X0043828Y0064397D02*
X0055198Y0064397D01*
X0056082Y0063399D02*
X0043671Y0063399D01*
X0043513Y0062400D02*
X0056967Y0062400D01*
X0057852Y0061402D02*
X0043355Y0061402D01*
X0043198Y0060403D02*
X0058908Y0060403D01*
X0060035Y0059405D02*
X0043040Y0059405D01*
X0042882Y0058406D02*
X0061162Y0058406D01*
X0062289Y0057408D02*
X0042725Y0057408D01*
X0043137Y0056409D02*
X0063416Y0056409D01*
X0063527Y0055411D02*
X0064543Y0055411D01*
X0064136Y0054412D02*
X0065670Y0054412D01*
X0066796Y0053414D02*
X0064284Y0053414D01*
X0064064Y0052415D02*
X0068013Y0052415D01*
X0067606Y0052696D02*
X0067606Y0052696D01*
X0069459Y0051417D02*
X0063734Y0051417D01*
X0063884Y0050418D02*
X0070905Y0050418D01*
X0072351Y0049420D02*
X0064033Y0049420D01*
X0064183Y0048421D02*
X0073797Y0048421D01*
X0075242Y0047423D02*
X0064333Y0047423D01*
X0064483Y0046424D02*
X0076688Y0046424D01*
X0078046Y0045487D02*
X0078046Y0045487D01*
X0078162Y0045426D02*
X0064632Y0045426D01*
X0064782Y0044427D02*
X0080063Y0044427D01*
X0081963Y0043429D02*
X0064932Y0043429D01*
X0065082Y0042430D02*
X0083864Y0042430D01*
X0085765Y0041432D02*
X0065232Y0041432D01*
X0065381Y0040433D02*
X0087665Y0040433D01*
X0087077Y0039860D02*
X0086054Y0040284D01*
X0084946Y0040284D01*
X0083923Y0039860D01*
X0083140Y0039077D01*
X0082716Y0038054D01*
X0082716Y0036946D01*
X0083140Y0035923D01*
X0083923Y0035140D01*
X0084519Y0034893D01*
X0089967Y0021661D01*
X0089716Y0021054D01*
X0089716Y0019946D01*
X0090140Y0018923D01*
X0090923Y0018140D01*
X0091946Y0017716D01*
X0093054Y0017716D01*
X0094077Y0018140D01*
X0094860Y0018923D01*
X0095284Y0019946D01*
X0095284Y0021054D01*
X0094860Y0022077D01*
X0094077Y0022860D01*
X0093481Y0023107D01*
X0088033Y0036339D01*
X0088284Y0036946D01*
X0088284Y0038054D01*
X0087860Y0039077D01*
X0087077Y0039860D01*
X0087503Y0039434D02*
X0089676Y0039434D01*
X0089278Y0039586D02*
X0089278Y0039586D01*
X0088126Y0038436D02*
X0092305Y0038436D01*
X0094933Y0037437D02*
X0088284Y0037437D01*
X0088074Y0036439D02*
X0097562Y0036439D01*
X0100190Y0035440D02*
X0088403Y0035440D01*
X0088814Y0034442D02*
X0103720Y0034442D01*
X0101138Y0035080D02*
X0101138Y0035080D01*
X0107759Y0033443D02*
X0089225Y0033443D01*
X0089636Y0032445D02*
X0111798Y0032445D01*
X0111946Y0031284D02*
X0110923Y0030860D01*
X0110140Y0030077D01*
X0109716Y0029054D01*
X0109716Y0027946D01*
X0110140Y0026923D01*
X0110923Y0026140D01*
X0111946Y0025716D01*
X0112294Y0025716D01*
X0121716Y0013939D01*
X0121716Y0012946D01*
X0122140Y0011923D01*
X0122923Y0011140D01*
X0123946Y0010716D01*
X0125054Y0010716D01*
X0126077Y0011140D01*
X0126860Y0011923D01*
X0127284Y0012946D01*
X0127284Y0014054D01*
X0126860Y0015077D01*
X0126077Y0015860D01*
X0125054Y0016284D01*
X0124706Y0016284D01*
X0115284Y0028061D01*
X0115284Y0029054D01*
X0114860Y0030077D01*
X0114077Y0030860D01*
X0113054Y0031284D01*
X0111946Y0031284D01*
X0110510Y0030448D02*
X0090459Y0030448D01*
X0090870Y0029449D02*
X0109880Y0029449D01*
X0109716Y0028451D02*
X0091281Y0028451D01*
X0091692Y0027452D02*
X0109920Y0027452D01*
X0110609Y0026454D02*
X0092103Y0026454D01*
X0092514Y0025455D02*
X0112503Y0025455D01*
X0113301Y0024457D02*
X0092925Y0024457D01*
X0093337Y0023458D02*
X0114100Y0023458D01*
X0114899Y0022460D02*
X0094478Y0022460D01*
X0095115Y0021461D02*
X0115698Y0021461D01*
X0116497Y0020463D02*
X0095284Y0020463D01*
X0095085Y0019464D02*
X0117295Y0019464D01*
X0118094Y0018466D02*
X0094403Y0018466D01*
X0094569Y0014472D02*
X0121289Y0014472D01*
X0121716Y0013473D02*
X0097642Y0013473D01*
X0101289Y0012475D02*
X0121911Y0012475D01*
X0122586Y0011476D02*
X0105987Y0011476D01*
X0110685Y0010478D02*
X0154315Y0010478D01*
X0154923Y0013140D02*
X0155946Y0012716D01*
X0157054Y0012716D01*
X0158077Y0013140D01*
X0158860Y0013923D01*
X0159284Y0014946D01*
X0159284Y0016054D01*
X0158860Y0017077D01*
X0158077Y0017860D01*
X0157054Y0018284D01*
X0155946Y0018284D01*
X0155886Y0018259D01*
X0142284Y0027860D01*
X0142284Y0028054D01*
X0141860Y0029077D01*
X0141077Y0029860D01*
X0140054Y0030284D01*
X0138946Y0030284D01*
X0137923Y0029860D01*
X0137140Y0029077D01*
X0136716Y0028054D01*
X0136716Y0026946D01*
X0137140Y0025923D01*
X0137923Y0025140D01*
X0138946Y0024716D01*
X0140054Y0024716D01*
X0140114Y0024741D01*
X0153716Y0015140D01*
X0153716Y0014946D01*
X0154140Y0013923D01*
X0154923Y0013140D01*
X0154589Y0013473D02*
X0127284Y0013473D01*
X0127111Y0014472D02*
X0153912Y0014472D01*
X0153247Y0015470D02*
X0126467Y0015470D01*
X0124558Y0016469D02*
X0151833Y0016469D01*
X0150418Y0017467D02*
X0136405Y0017467D01*
X0136077Y0017140D02*
X0136860Y0017923D01*
X0137284Y0018946D01*
X0137284Y0020054D01*
X0136860Y0021077D01*
X0136400Y0021538D01*
X0136400Y0041462D01*
X0136860Y0041923D01*
X0137284Y0042946D01*
X0137284Y0044054D01*
X0136860Y0045077D01*
X0136400Y0045538D01*
X0136400Y0090962D01*
X0136860Y0091423D01*
X0137284Y0092446D01*
X0137284Y0093554D01*
X0136860Y0094577D01*
X0136077Y0095360D01*
X0135054Y0095784D01*
X0133946Y0095784D01*
X0132923Y0095360D01*
X0132500Y0094937D01*
X0132077Y0095360D01*
X0131054Y0095784D01*
X0129946Y0095784D01*
X0128923Y0095360D01*
X0128140Y0094577D01*
X0127716Y0093554D01*
X0127716Y0092446D01*
X0128140Y0091423D01*
X0128600Y0090962D01*
X0128600Y0045538D01*
X0128140Y0045077D01*
X0127716Y0044054D01*
X0127716Y0042946D01*
X0128140Y0041923D01*
X0128600Y0041462D01*
X0128600Y0021538D01*
X0128140Y0021077D01*
X0127716Y0020054D01*
X0127716Y0018946D01*
X0128140Y0017923D01*
X0128923Y0017140D01*
X0129946Y0016716D01*
X0131054Y0016716D01*
X0132077Y0017140D01*
X0132500Y0017562D01*
X0132923Y0017140D01*
X0133946Y0016716D01*
X0135054Y0016716D01*
X0136077Y0017140D01*
X0137085Y0018466D02*
X0149004Y0018466D01*
X0147589Y0019464D02*
X0137284Y0019464D01*
X0137115Y0020463D02*
X0146175Y0020463D01*
X0144760Y0021461D02*
X0136476Y0021461D01*
X0136400Y0022460D02*
X0143346Y0022460D01*
X0141931Y0023458D02*
X0136400Y0023458D01*
X0136400Y0024457D02*
X0140516Y0024457D01*
X0137607Y0025455D02*
X0136400Y0025455D01*
X0136400Y0026454D02*
X0136920Y0026454D01*
X0136716Y0027452D02*
X0136400Y0027452D01*
X0136400Y0028451D02*
X0136880Y0028451D01*
X0136400Y0029449D02*
X0137512Y0029449D01*
X0136400Y0030448D02*
X0171106Y0030448D01*
X0169714Y0030989D02*
X0183914Y0025467D01*
X0184140Y0024923D01*
X0184923Y0024140D01*
X0185946Y0023716D01*
X0187054Y0023716D01*
X0188077Y0024140D01*
X0188860Y0024923D01*
X0189284Y0025946D01*
X0189284Y0027054D01*
X0188860Y0028077D01*
X0188077Y0028860D01*
X0187054Y0029284D01*
X0185946Y0029284D01*
X0185286Y0029011D01*
X0171086Y0034533D01*
X0170860Y0035077D01*
X0170077Y0035860D01*
X0169054Y0036284D01*
X0167946Y0036284D01*
X0166923Y0035860D01*
X0166140Y0035077D01*
X0165716Y0034054D01*
X0165716Y0032946D01*
X0166140Y0031923D01*
X0166923Y0031140D01*
X0167946Y0030716D01*
X0169054Y0030716D01*
X0169714Y0030989D01*
X0171320Y0034442D02*
X0209175Y0034442D01*
X0210549Y0035440D02*
X0170497Y0035440D01*
X0170311Y0037437D02*
X0213129Y0037437D01*
X0214238Y0038436D02*
X0172937Y0038436D01*
X0175562Y0039434D02*
X0215347Y0039434D01*
X0216456Y0040433D02*
X0177510Y0040433D01*
X0175739Y0039502D02*
X0186975Y0045411D01*
X0191829Y0048767D01*
X0191140Y0048077D01*
X0190716Y0047054D01*
X0190716Y0045946D01*
X0191140Y0044923D01*
X0191923Y0044140D01*
X0192946Y0043716D01*
X0194054Y0043716D01*
X0195077Y0044140D01*
X0195239Y0044302D01*
X0210128Y0041951D01*
X0210140Y0041923D01*
X0210923Y0041140D01*
X0211946Y0040716D01*
X0213054Y0040716D01*
X0214077Y0041140D01*
X0214860Y0041923D01*
X0215284Y0042946D01*
X0215284Y0044054D01*
X0214860Y0045077D01*
X0214077Y0045860D01*
X0213054Y0046284D01*
X0211946Y0046284D01*
X0210923Y0045860D01*
X0210761Y0045698D01*
X0195872Y0048049D01*
X0195860Y0048077D01*
X0195077Y0048860D01*
X0194054Y0049284D01*
X0192946Y0049284D01*
X0192027Y0048904D01*
X0197418Y0052630D01*
X0206915Y0061054D01*
X0215328Y0070561D01*
X0222536Y0081012D01*
X0228433Y0092254D01*
X0228433Y0092254D01*
X0232932Y0104125D01*
X0235716Y0115421D01*
X0235716Y0114946D01*
X0236140Y0113923D01*
X0236923Y0113140D01*
X0237946Y0112716D01*
X0239054Y0112716D01*
X0240077Y0113140D01*
X0240860Y0113923D01*
X0241284Y0114946D01*
X0241284Y0115108D01*
X0253857Y0123753D01*
X0253946Y0123716D01*
X0255054Y0123716D01*
X0256077Y0124140D01*
X0256860Y0124923D01*
X0257284Y0125946D01*
X0257284Y0127054D01*
X0256860Y0128077D01*
X0256077Y0128860D01*
X0255054Y0129284D01*
X0253946Y0129284D01*
X0252923Y0128860D01*
X0252140Y0128077D01*
X0251716Y0127054D01*
X0251716Y0126892D01*
X0239143Y0118247D01*
X0239054Y0118284D01*
X0237946Y0118284D01*
X0236923Y0117860D01*
X0236140Y0117077D01*
X0236007Y0116756D01*
X0236650Y0122051D01*
X0236750Y0122151D01*
X0236750Y0122876D01*
X0236837Y0123596D01*
X0236750Y0123707D01*
X0236750Y0123849D01*
X0236237Y0124362D01*
X0235790Y0124933D01*
X0235649Y0124950D01*
X0235549Y0125050D01*
X0234824Y0125050D01*
X0234104Y0125137D01*
X0233993Y0125050D01*
X0219247Y0125050D01*
X0218553Y0125150D01*
X0218419Y0125050D01*
X0218251Y0125050D01*
X0217755Y0124554D01*
X0217193Y0124134D01*
X0217169Y0123968D01*
X0217050Y0123849D01*
X0217050Y0123174D01*
X0216112Y0117893D01*
X0213167Y0107332D01*
X0208894Y0097234D01*
X0203364Y0087767D01*
X0196668Y0079085D01*
X0188915Y0071332D01*
X0186095Y0069157D01*
X0186860Y0069923D01*
X0187284Y0070946D01*
X0187284Y0072054D01*
X0186860Y0073077D01*
X0186077Y0073860D01*
X0185054Y0074284D01*
X0183946Y0074284D01*
X0182923Y0073860D01*
X0182851Y0073789D01*
X0167920Y0076932D01*
X0167860Y0077077D01*
X0167077Y0077860D01*
X0166054Y0078284D01*
X0164946Y0078284D01*
X0163923Y0077860D01*
X0163140Y0077077D01*
X0162716Y0076054D01*
X0162716Y0074946D01*
X0163140Y0073923D01*
X0163923Y0073140D01*
X0164946Y0072716D01*
X0166054Y0072716D01*
X0167077Y0073140D01*
X0167149Y0073211D01*
X0182080Y0070068D01*
X0182140Y0069923D01*
X0182923Y0069140D01*
X0183946Y0068716D01*
X0185054Y0068716D01*
X0186066Y0069135D01*
X0180233Y0064636D01*
X0170766Y0059106D01*
X0160668Y0054833D01*
X0150107Y0051888D01*
X0144825Y0050950D01*
X0144151Y0050950D01*
X0144032Y0050831D01*
X0143866Y0050807D01*
X0143446Y0050245D01*
X0142950Y0049749D01*
X0142950Y0049581D01*
X0142850Y0049447D01*
X0142950Y0048753D01*
X0142950Y0033906D01*
X0142862Y0033793D01*
X0142950Y0033075D01*
X0142950Y0032351D01*
X0143051Y0032250D01*
X0143069Y0032108D01*
X0143639Y0031662D01*
X0144151Y0031150D01*
X0144294Y0031150D01*
X0144407Y0031062D01*
X0145125Y0031150D01*
X0145849Y0031150D01*
X0145950Y0031251D01*
X0151550Y0031938D01*
X0163873Y0034989D01*
X0175739Y0039502D01*
X0179408Y0041432D02*
X0210631Y0041432D01*
X0214369Y0041432D02*
X0217565Y0041432D01*
X0218674Y0042430D02*
X0215070Y0042430D01*
X0215284Y0043429D02*
X0219783Y0043429D01*
X0220892Y0044427D02*
X0215130Y0044427D01*
X0214512Y0045426D02*
X0222001Y0045426D01*
X0222957Y0046424D02*
X0206163Y0046424D01*
X0207094Y0042430D02*
X0181307Y0042430D01*
X0183206Y0043429D02*
X0200770Y0043429D01*
X0199839Y0047423D02*
X0223856Y0047423D01*
X0224755Y0048421D02*
X0195516Y0048421D01*
X0194218Y0050418D02*
X0226553Y0050418D01*
X0225654Y0049420D02*
X0192774Y0049420D01*
X0191484Y0048421D02*
X0191329Y0048421D01*
X0190869Y0047423D02*
X0189885Y0047423D01*
X0190716Y0046424D02*
X0188441Y0046424D01*
X0186996Y0045426D02*
X0190931Y0045426D01*
X0191635Y0044427D02*
X0185104Y0044427D01*
X0195662Y0051417D02*
X0227452Y0051417D01*
X0228351Y0052415D02*
X0197107Y0052415D01*
X0198301Y0053414D02*
X0229250Y0053414D01*
X0230149Y0054412D02*
X0199427Y0054412D01*
X0200552Y0055411D02*
X0231048Y0055411D01*
X0231803Y0056409D02*
X0201678Y0056409D01*
X0202804Y0057408D02*
X0232528Y0057408D01*
X0233254Y0058406D02*
X0203930Y0058406D01*
X0205055Y0059405D02*
X0233979Y0059405D01*
X0234705Y0060403D02*
X0206181Y0060403D01*
X0206915Y0061054D02*
X0206915Y0061054D01*
X0207222Y0061402D02*
X0235430Y0061402D01*
X0236155Y0062400D02*
X0216338Y0062400D01*
X0216077Y0062140D02*
X0216860Y0062923D01*
X0216872Y0062951D01*
X0231761Y0065302D01*
X0231923Y0065140D01*
X0232946Y0064716D01*
X0234054Y0064716D01*
X0235077Y0065140D01*
X0235860Y0065923D01*
X0236284Y0066946D01*
X0236284Y0068054D01*
X0235860Y0069077D01*
X0235077Y0069860D01*
X0234054Y0070284D01*
X0232946Y0070284D01*
X0231923Y0069860D01*
X0231140Y0069077D01*
X0231128Y0069049D01*
X0216239Y0066698D01*
X0216077Y0066860D01*
X0215054Y0067284D01*
X0213946Y0067284D01*
X0212923Y0066860D01*
X0212140Y0066077D01*
X0211716Y0065054D01*
X0211716Y0063946D01*
X0212140Y0062923D01*
X0212923Y0062140D01*
X0213946Y0061716D01*
X0215054Y0061716D01*
X0216077Y0062140D01*
X0212662Y0062400D02*
X0208106Y0062400D01*
X0208990Y0063399D02*
X0211942Y0063399D01*
X0211716Y0064397D02*
X0209874Y0064397D01*
X0210757Y0065396D02*
X0211857Y0065396D01*
X0211641Y0066394D02*
X0212457Y0066394D01*
X0212525Y0067393D02*
X0220639Y0067393D01*
X0219708Y0063399D02*
X0236881Y0063399D01*
X0237606Y0064397D02*
X0226032Y0064397D01*
X0226963Y0068391D02*
X0213408Y0068391D01*
X0214292Y0069390D02*
X0231452Y0069390D01*
X0235548Y0069390D02*
X0240777Y0069390D01*
X0240201Y0068391D02*
X0236144Y0068391D01*
X0236284Y0067393D02*
X0239624Y0067393D01*
X0239048Y0066394D02*
X0236056Y0066394D01*
X0235333Y0065396D02*
X0238332Y0065396D01*
X0241354Y0070388D02*
X0215176Y0070388D01*
X0215328Y0070561D02*
X0215328Y0070561D01*
X0215898Y0071387D02*
X0241930Y0071387D01*
X0242507Y0072385D02*
X0216587Y0072385D01*
X0217275Y0073384D02*
X0243083Y0073384D01*
X0243660Y0074382D02*
X0217964Y0074382D01*
X0218653Y0075381D02*
X0244236Y0075381D01*
X0244813Y0076379D02*
X0219341Y0076379D01*
X0220030Y0077378D02*
X0245389Y0077378D01*
X0245895Y0078376D02*
X0220719Y0078376D01*
X0221407Y0079375D02*
X0246340Y0079375D01*
X0246784Y0080373D02*
X0222096Y0080373D01*
X0222536Y0081012D02*
X0222536Y0081012D01*
X0222725Y0081372D02*
X0247229Y0081372D01*
X0247674Y0082370D02*
X0223249Y0082370D01*
X0223772Y0083369D02*
X0248118Y0083369D01*
X0248563Y0084368D02*
X0224296Y0084368D01*
X0224820Y0085366D02*
X0249007Y0085366D01*
X0249452Y0086365D02*
X0225344Y0086365D01*
X0225867Y0087363D02*
X0228699Y0087363D01*
X0228923Y0087140D02*
X0229946Y0086716D01*
X0231054Y0086716D01*
X0232077Y0087140D01*
X0232860Y0087923D01*
X0233052Y0088386D01*
X0246198Y0093026D01*
X0246946Y0092716D01*
X0248054Y0092716D01*
X0249077Y0093140D01*
X0249860Y0093923D01*
X0250284Y0094946D01*
X0250284Y0096054D01*
X0249860Y0097077D01*
X0249077Y0097860D01*
X0248054Y0098284D01*
X0246946Y0098284D01*
X0245923Y0097860D01*
X0245140Y0097077D01*
X0244948Y0096614D01*
X0231802Y0091974D01*
X0231054Y0092284D01*
X0229946Y0092284D01*
X0228923Y0091860D01*
X0228140Y0091077D01*
X0227716Y0090054D01*
X0227716Y0088946D01*
X0228140Y0087923D01*
X0228923Y0087140D01*
X0227958Y0088362D02*
X0226391Y0088362D01*
X0226915Y0089360D02*
X0227716Y0089360D01*
X0227842Y0090359D02*
X0227438Y0090359D01*
X0227962Y0091357D02*
X0228420Y0091357D01*
X0228471Y0092356D02*
X0232882Y0092356D01*
X0235711Y0093354D02*
X0228849Y0093354D01*
X0229228Y0094353D02*
X0238540Y0094353D01*
X0241369Y0095351D02*
X0229606Y0095351D01*
X0229985Y0096350D02*
X0244199Y0096350D01*
X0245411Y0097348D02*
X0230363Y0097348D01*
X0230742Y0098347D02*
X0253781Y0098347D01*
X0254105Y0099345D02*
X0231120Y0099345D01*
X0231499Y0100344D02*
X0254430Y0100344D01*
X0254754Y0101342D02*
X0231877Y0101342D01*
X0232256Y0102341D02*
X0255079Y0102341D01*
X0255323Y0103339D02*
X0232634Y0103339D01*
X0232932Y0104125D02*
X0232932Y0104125D01*
X0232985Y0104338D02*
X0255536Y0104338D01*
X0255748Y0105336D02*
X0233231Y0105336D01*
X0233477Y0106335D02*
X0255960Y0106335D01*
X0256172Y0107333D02*
X0233723Y0107333D01*
X0233969Y0108332D02*
X0256385Y0108332D01*
X0256597Y0109330D02*
X0234215Y0109330D01*
X0234461Y0110329D02*
X0256809Y0110329D01*
X0257021Y0111327D02*
X0234707Y0111327D01*
X0234953Y0112326D02*
X0257234Y0112326D01*
X0257446Y0113324D02*
X0240262Y0113324D01*
X0241026Y0114323D02*
X0257658Y0114323D01*
X0257870Y0115321D02*
X0241594Y0115321D01*
X0243046Y0116320D02*
X0258009Y0116320D01*
X0258114Y0117318D02*
X0244499Y0117318D01*
X0245951Y0118317D02*
X0258219Y0118317D01*
X0258323Y0119315D02*
X0247403Y0119315D01*
X0248856Y0120314D02*
X0258428Y0120314D01*
X0258533Y0121312D02*
X0250308Y0121312D01*
X0251761Y0122311D02*
X0258638Y0122311D01*
X0258743Y0123309D02*
X0253213Y0123309D01*
X0256245Y0124308D02*
X0258848Y0124308D01*
X0258953Y0125306D02*
X0257019Y0125306D01*
X0257284Y0126305D02*
X0259058Y0126305D01*
X0259163Y0127303D02*
X0257181Y0127303D01*
X0256635Y0128302D02*
X0259268Y0128302D01*
X0259338Y0129301D02*
X0216637Y0129301D01*
X0216860Y0129077D02*
X0216077Y0129860D01*
X0215054Y0130284D01*
X0213946Y0130284D01*
X0212923Y0129860D01*
X0212140Y0129077D01*
X0211716Y0128054D01*
X0211716Y0128000D01*
X0199244Y0120205D01*
X0199054Y0120284D01*
X0197946Y0120284D01*
X0196923Y0119860D01*
X0196140Y0119077D01*
X0195716Y0118054D01*
X0195716Y0116946D01*
X0196140Y0115923D01*
X0196923Y0115140D01*
X0197946Y0114716D01*
X0199054Y0114716D01*
X0200077Y0115140D01*
X0200860Y0115923D01*
X0201284Y0116946D01*
X0201284Y0117000D01*
X0213756Y0124794D01*
X0213946Y0124716D01*
X0215054Y0124716D01*
X0216077Y0125140D01*
X0216860Y0125923D01*
X0217284Y0126946D01*
X0217284Y0128054D01*
X0216860Y0129077D01*
X0217181Y0128302D02*
X0252364Y0128302D01*
X0251819Y0127303D02*
X0217284Y0127303D01*
X0217019Y0126305D02*
X0250863Y0126305D01*
X0249410Y0125306D02*
X0216244Y0125306D01*
X0217426Y0124308D02*
X0212978Y0124308D01*
X0211380Y0123309D02*
X0217050Y0123309D01*
X0216897Y0122311D02*
X0209782Y0122311D01*
X0208185Y0121312D02*
X0216719Y0121312D01*
X0216542Y0120314D02*
X0206587Y0120314D01*
X0204990Y0119315D02*
X0216365Y0119315D01*
X0216188Y0118317D02*
X0203392Y0118317D01*
X0201794Y0117318D02*
X0215952Y0117318D01*
X0216112Y0117893D02*
X0216112Y0117893D01*
X0215674Y0116320D02*
X0201025Y0116320D01*
X0200259Y0115321D02*
X0215395Y0115321D01*
X0215117Y0114323D02*
X0193500Y0114323D01*
X0193861Y0115321D02*
X0196741Y0115321D01*
X0195975Y0116320D02*
X0194222Y0116320D01*
X0194583Y0117318D02*
X0195716Y0117318D01*
X0195825Y0118317D02*
X0194888Y0118317D01*
X0194816Y0117963D02*
X0195636Y0121987D01*
X0195800Y0122151D01*
X0195800Y0122793D01*
X0195928Y0123423D01*
X0195800Y0123617D01*
X0195800Y0123849D01*
X0195346Y0124303D01*
X0194991Y0124839D01*
X0194763Y0124886D01*
X0194599Y0125050D01*
X0193957Y0125050D01*
X0193327Y0125178D01*
X0193133Y0125050D01*
X0160446Y0125050D01*
X0160079Y0125217D01*
X0159630Y0125050D01*
X0159151Y0125050D01*
X0158866Y0124765D01*
X0158488Y0124624D01*
X0158289Y0124188D01*
X0157950Y0123849D01*
X0157950Y0123490D01*
X0156988Y0121613D01*
X0154115Y0117490D01*
X0150549Y0113948D01*
X0146407Y0111102D01*
X0144517Y0110150D01*
X0144151Y0110150D01*
X0143817Y0109816D01*
X0143386Y0109623D01*
X0143240Y0109239D01*
X0142950Y0108949D01*
X0142950Y0108477D01*
X0142782Y0108035D01*
X0142950Y0107661D01*
X0142950Y0074867D01*
X0142822Y0074673D01*
X0142950Y0074043D01*
X0142950Y0073401D01*
X0143114Y0073237D01*
X0143161Y0073009D01*
X0143697Y0072654D01*
X0144151Y0072200D01*
X0144383Y0072200D01*
X0144577Y0072072D01*
X0145207Y0072200D01*
X0145849Y0072200D01*
X0146013Y0072364D01*
X0150037Y0073184D01*
X0158919Y0076396D01*
X0167238Y0080868D01*
X0167238Y0080868D01*
X0174818Y0086503D01*
X0174818Y0086503D01*
X0181497Y0093182D01*
X0187132Y0100762D01*
X0191604Y0109081D01*
X0194816Y0117963D01*
X0195092Y0119315D02*
X0196378Y0119315D01*
X0195295Y0120314D02*
X0199417Y0120314D01*
X0201015Y0121312D02*
X0195498Y0121312D01*
X0195800Y0122311D02*
X0202613Y0122311D01*
X0204210Y0123309D02*
X0195905Y0123309D01*
X0195343Y0124308D02*
X0205808Y0124308D01*
X0207405Y0125306D02*
X0137678Y0125306D01*
X0138735Y0124308D02*
X0158344Y0124308D01*
X0157857Y0123309D02*
X0139792Y0123309D01*
X0139819Y0123284D02*
X0133784Y0128984D01*
X0133784Y0129554D01*
X0133360Y0130577D01*
X0132577Y0131360D01*
X0131554Y0131784D01*
X0130446Y0131784D01*
X0129423Y0131360D01*
X0128640Y0130577D01*
X0128216Y0129554D01*
X0128216Y0128446D01*
X0128640Y0127423D01*
X0129423Y0126640D01*
X0130446Y0126216D01*
X0131181Y0126216D01*
X0137216Y0120516D01*
X0137216Y0119946D01*
X0137640Y0118923D01*
X0138423Y0118140D01*
X0139446Y0117716D01*
X0140554Y0117716D01*
X0141577Y0118140D01*
X0142360Y0118923D01*
X0142784Y0119946D01*
X0142784Y0121054D01*
X0142360Y0122077D01*
X0141577Y0122860D01*
X0140554Y0123284D01*
X0139819Y0123284D01*
X0142127Y0122311D02*
X0157346Y0122311D01*
X0156779Y0121312D02*
X0142677Y0121312D01*
X0142784Y0120314D02*
X0156083Y0120314D01*
X0155387Y0119315D02*
X0142523Y0119315D01*
X0141754Y0118317D02*
X0154691Y0118317D01*
X0153942Y0117318D02*
X0111268Y0117318D01*
X0111035Y0117551D02*
X0108199Y0121636D01*
X0107250Y0123490D01*
X0107250Y0123849D01*
X0106911Y0124188D01*
X0106712Y0124624D01*
X0106334Y0124765D01*
X0106049Y0125050D01*
X0105570Y0125050D01*
X0105121Y0125217D01*
X0104754Y0125050D01*
X0071719Y0125050D01*
X0071528Y0125177D01*
X0070896Y0125050D01*
X0070251Y0125050D01*
X0070088Y0124888D01*
X0069863Y0124842D01*
X0069506Y0124305D01*
X0069050Y0123849D01*
X0069050Y0123619D01*
X0068923Y0123428D01*
X0069050Y0122796D01*
X0069050Y0122151D01*
X0069212Y0121988D01*
X0070026Y0117946D01*
X0073233Y0109019D01*
X0073233Y0109019D01*
X0077710Y0100655D01*
X0083359Y0093035D01*
X0083359Y0093034D01*
X0090060Y0086320D01*
X0097669Y0080655D01*
X0106023Y0076162D01*
X0114944Y0072936D01*
X0118987Y0072114D01*
X0119151Y0071950D01*
X0119794Y0071950D01*
X0120424Y0071822D01*
X0120617Y0071950D01*
X0120849Y0071950D01*
X0121304Y0072405D01*
X0121840Y0072760D01*
X0121886Y0072987D01*
X0122050Y0073151D01*
X0122050Y0073794D01*
X0122178Y0074424D01*
X0122050Y0074617D01*
X0122050Y0107754D01*
X0122217Y0108121D01*
X0122050Y0108570D01*
X0122050Y0109049D01*
X0121765Y0109334D01*
X0121624Y0109712D01*
X0121188Y0109911D01*
X0120849Y0110250D01*
X0120490Y0110250D01*
X0118636Y0111199D01*
X0114551Y0114035D01*
X0111035Y0117551D01*
X0110503Y0118317D02*
X0138246Y0118317D01*
X0137477Y0119315D02*
X0109810Y0119315D01*
X0109117Y0120314D02*
X0137216Y0120314D01*
X0136373Y0121312D02*
X0108423Y0121312D01*
X0107853Y0122311D02*
X0135315Y0122311D01*
X0134258Y0123309D02*
X0107342Y0123309D01*
X0106856Y0124308D02*
X0133201Y0124308D01*
X0132144Y0125306D02*
X0118273Y0125306D01*
X0118054Y0125216D02*
X0119077Y0125640D01*
X0119860Y0126423D01*
X0120284Y0127446D01*
X0120284Y0128181D01*
X0125984Y0134216D01*
X0126554Y0134216D01*
X0127577Y0134640D01*
X0128360Y0135423D01*
X0128784Y0136446D01*
X0128784Y0137554D01*
X0128360Y0138577D01*
X0127577Y0139360D01*
X0126554Y0139784D01*
X0125446Y0139784D01*
X0124423Y0139360D01*
X0123640Y0138577D01*
X0123216Y0137554D01*
X0123216Y0136819D01*
X0117516Y0130784D01*
X0116946Y0130784D01*
X0115923Y0130360D01*
X0115140Y0129577D01*
X0114716Y0128554D01*
X0114716Y0127446D01*
X0115140Y0126423D01*
X0115923Y0125640D01*
X0116946Y0125216D01*
X0118054Y0125216D01*
X0116727Y0125306D02*
X0066244Y0125306D01*
X0066077Y0125140D02*
X0066860Y0125923D01*
X0067284Y0126946D01*
X0067284Y0128054D01*
X0066860Y0129077D01*
X0066077Y0129860D01*
X0065054Y0130284D01*
X0063946Y0130284D01*
X0062923Y0129860D01*
X0062140Y0129077D01*
X0061716Y0128054D01*
X0061716Y0126946D01*
X0061817Y0126702D01*
X0054443Y0114283D01*
X0053423Y0113860D01*
X0052640Y0113077D01*
X0052216Y0112054D01*
X0052216Y0110946D01*
X0052640Y0109923D01*
X0053423Y0109140D01*
X0054446Y0108716D01*
X0055554Y0108716D01*
X0056577Y0109140D01*
X0057360Y0109923D01*
X0057784Y0110946D01*
X0057784Y0112054D01*
X0057683Y0112298D01*
X0065057Y0124717D01*
X0066077Y0125140D01*
X0067019Y0126305D02*
X0115257Y0126305D01*
X0114775Y0127303D02*
X0067284Y0127303D01*
X0067181Y0128302D02*
X0114716Y0128302D01*
X0115025Y0129301D02*
X0066637Y0129301D01*
X0062363Y0129301D02*
X0026637Y0129301D01*
X0026860Y0129077D02*
X0026077Y0129860D01*
X0025054Y0130284D01*
X0023946Y0130284D01*
X0022923Y0129860D01*
X0022140Y0129077D01*
X0021716Y0128054D01*
X0021716Y0127061D01*
X0012294Y0115284D01*
X0011946Y0115284D01*
X0010923Y0114860D01*
X0010140Y0114077D01*
X0009716Y0113054D01*
X0009716Y0111946D01*
X0010140Y0110923D01*
X0010923Y0110140D01*
X0011946Y0109716D01*
X0013054Y0109716D01*
X0014077Y0110140D01*
X0014860Y0110923D01*
X0015284Y0111946D01*
X0015284Y0112939D01*
X0024706Y0124716D01*
X0025054Y0124716D01*
X0026077Y0125140D01*
X0026860Y0125923D01*
X0027284Y0126946D01*
X0027284Y0128054D01*
X0026860Y0129077D01*
X0027181Y0128302D02*
X0061819Y0128302D01*
X0061716Y0127303D02*
X0027284Y0127303D01*
X0027019Y0126305D02*
X0061581Y0126305D01*
X0060988Y0125306D02*
X0026244Y0125306D01*
X0024380Y0124308D02*
X0028709Y0124308D01*
X0028197Y0123309D02*
X0023581Y0123309D01*
X0022782Y0122311D02*
X0028250Y0122311D01*
X0028441Y0121312D02*
X0021983Y0121312D01*
X0021184Y0120314D02*
X0028563Y0120314D01*
X0028685Y0119315D02*
X0020385Y0119315D01*
X0019587Y0118317D02*
X0028808Y0118317D01*
X0028930Y0117318D02*
X0018788Y0117318D01*
X0017989Y0116320D02*
X0029069Y0116320D01*
X0029035Y0116454D02*
X0029035Y0116454D01*
X0029315Y0115321D02*
X0017190Y0115321D01*
X0016391Y0114323D02*
X0029562Y0114323D01*
X0029809Y0113324D02*
X0015593Y0113324D01*
X0015284Y0112326D02*
X0030056Y0112326D01*
X0030303Y0111327D02*
X0015028Y0111327D01*
X0014266Y0110329D02*
X0030550Y0110329D01*
X0030797Y0109330D02*
X0008403Y0109330D01*
X0008615Y0108332D02*
X0031044Y0108332D01*
X0031290Y0107333D02*
X0008828Y0107333D01*
X0009040Y0106335D02*
X0031537Y0106335D01*
X0031784Y0105336D02*
X0009252Y0105336D01*
X0009464Y0104338D02*
X0032031Y0104338D01*
X0032080Y0104138D02*
X0032080Y0104138D01*
X0032384Y0103339D02*
X0009677Y0103339D01*
X0009921Y0102341D02*
X0032763Y0102341D01*
X0032077Y0101860D02*
X0031054Y0102284D01*
X0029946Y0102284D01*
X0028923Y0101860D01*
X0028140Y0101077D01*
X0027716Y0100054D01*
X0027716Y0098946D01*
X0027989Y0098286D01*
X0022467Y0084086D01*
X0021923Y0083860D01*
X0021140Y0083077D01*
X0020716Y0082054D01*
X0020716Y0080946D01*
X0021140Y0079923D01*
X0021923Y0079140D01*
X0022946Y0078716D01*
X0024054Y0078716D01*
X0025077Y0079140D01*
X0025860Y0079923D01*
X0026284Y0080946D01*
X0026284Y0082054D01*
X0026011Y0082714D01*
X0031533Y0096914D01*
X0032077Y0097140D01*
X0032860Y0097923D01*
X0033284Y0098946D01*
X0033284Y0100054D01*
X0032860Y0101077D01*
X0032077Y0101860D01*
X0032595Y0101342D02*
X0033142Y0101342D01*
X0033164Y0100344D02*
X0033522Y0100344D01*
X0033284Y0099345D02*
X0033901Y0099345D01*
X0034280Y0098347D02*
X0033036Y0098347D01*
X0032286Y0097348D02*
X0034660Y0097348D01*
X0035039Y0096350D02*
X0031313Y0096350D01*
X0030925Y0095351D02*
X0035418Y0095351D01*
X0035798Y0094353D02*
X0030537Y0094353D01*
X0030149Y0093354D02*
X0036177Y0093354D01*
X0036556Y0092356D02*
X0029760Y0092356D01*
X0029372Y0091357D02*
X0037070Y0091357D01*
X0037594Y0090359D02*
X0028984Y0090359D01*
X0028595Y0089360D02*
X0038119Y0089360D01*
X0038643Y0088362D02*
X0028207Y0088362D01*
X0027819Y0087363D02*
X0039168Y0087363D01*
X0039692Y0086365D02*
X0027430Y0086365D01*
X0027042Y0085366D02*
X0040217Y0085366D01*
X0040742Y0084368D02*
X0026654Y0084368D01*
X0026265Y0083369D02*
X0041266Y0083369D01*
X0041791Y0082370D02*
X0026153Y0082370D01*
X0026284Y0081372D02*
X0042315Y0081372D01*
X0042487Y0081046D02*
X0042487Y0081046D01*
X0042951Y0080373D02*
X0026047Y0080373D01*
X0025312Y0079375D02*
X0043640Y0079375D01*
X0044330Y0078376D02*
X0019105Y0078376D01*
X0018660Y0079375D02*
X0021688Y0079375D01*
X0020953Y0080373D02*
X0018216Y0080373D01*
X0017771Y0081372D02*
X0020716Y0081372D01*
X0020847Y0082370D02*
X0017326Y0082370D01*
X0016882Y0083369D02*
X0021431Y0083369D01*
X0022577Y0084368D02*
X0016437Y0084368D01*
X0015993Y0085366D02*
X0022965Y0085366D01*
X0023353Y0086365D02*
X0015548Y0086365D01*
X0015104Y0087363D02*
X0023741Y0087363D01*
X0024130Y0088362D02*
X0014659Y0088362D01*
X0014215Y0089360D02*
X0024518Y0089360D01*
X0024906Y0090359D02*
X0013815Y0090359D01*
X0013490Y0091357D02*
X0025295Y0091357D01*
X0025683Y0092356D02*
X0013166Y0092356D01*
X0012841Y0093354D02*
X0026071Y0093354D01*
X0026460Y0094353D02*
X0012517Y0094353D01*
X0012192Y0095351D02*
X0026848Y0095351D01*
X0027236Y0096350D02*
X0011868Y0096350D01*
X0011544Y0097348D02*
X0027625Y0097348D01*
X0027964Y0098347D02*
X0011219Y0098347D01*
X0010895Y0099345D02*
X0027716Y0099345D01*
X0027836Y0100344D02*
X0010570Y0100344D01*
X0010246Y0101342D02*
X0028405Y0101342D01*
X0012324Y0115321D02*
X0007130Y0115321D01*
X0006991Y0116320D02*
X0013123Y0116320D01*
X0013922Y0117318D02*
X0006886Y0117318D01*
X0006781Y0118317D02*
X0014720Y0118317D01*
X0015519Y0119315D02*
X0006677Y0119315D01*
X0006572Y0120314D02*
X0016318Y0120314D01*
X0017117Y0121312D02*
X0006467Y0121312D01*
X0006362Y0122311D02*
X0017916Y0122311D01*
X0018714Y0123309D02*
X0006257Y0123309D01*
X0006152Y0124308D02*
X0019513Y0124308D01*
X0020312Y0125306D02*
X0006047Y0125306D01*
X0005942Y0126305D02*
X0021111Y0126305D01*
X0021716Y0127303D02*
X0005837Y0127303D01*
X0005732Y0128302D02*
X0021819Y0128302D01*
X0022363Y0129301D02*
X0005662Y0129301D01*
X0005636Y0130299D02*
X0115862Y0130299D01*
X0118001Y0131298D02*
X0091735Y0131298D01*
X0091577Y0131140D02*
X0092360Y0131923D01*
X0092784Y0132946D01*
X0092784Y0134054D01*
X0092360Y0135077D01*
X0091937Y0135500D01*
X0092360Y0135923D01*
X0092784Y0136946D01*
X0092784Y0138054D01*
X0092360Y0139077D01*
X0091577Y0139860D01*
X0090554Y0140284D01*
X0142044Y0140284D01*
X0142931Y0141283D02*
X0053220Y0141283D01*
X0053077Y0141140D02*
X0053860Y0141923D01*
X0054284Y0142946D01*
X0054284Y0143000D01*
X0066756Y0150794D01*
X0066946Y0150716D01*
X0068054Y0150716D01*
X0069077Y0151140D01*
X0069860Y0151923D01*
X0070052Y0152386D01*
X0069364Y0149013D01*
X0069200Y0148849D01*
X0069200Y0148207D01*
X0069072Y0147578D01*
X0069200Y0147383D01*
X0069200Y0147150D01*
X0069654Y0146696D01*
X0070008Y0146161D01*
X0070237Y0146114D01*
X0070401Y0145950D01*
X0071043Y0145950D01*
X0071672Y0145822D01*
X0071867Y0145950D01*
X0104910Y0145960D01*
X0105282Y0145792D01*
X0105726Y0145960D01*
X0106200Y0145960D01*
X0106488Y0146249D01*
X0106870Y0146394D01*
X0107065Y0146826D01*
X0107400Y0147161D01*
X0107400Y0147526D01*
X0108337Y0149381D01*
X0111138Y0153467D01*
X0114618Y0156992D01*
X0118667Y0159846D01*
X0120498Y0160800D01*
X0120849Y0160800D01*
X0121194Y0161145D01*
X0121636Y0161351D01*
X0121771Y0161722D01*
X0122050Y0162001D01*
X0122050Y0162488D01*
X0122217Y0162946D01*
X0122050Y0163304D01*
X0122050Y0196134D01*
X0122178Y0196328D01*
X0122050Y0196957D01*
X0122050Y0197599D01*
X0121885Y0197764D01*
X0121839Y0197992D01*
X0121303Y0198346D01*
X0120849Y0198800D01*
X0120616Y0198800D01*
X0120422Y0198928D01*
X0119793Y0198800D01*
X0119151Y0198800D01*
X0118986Y0198635D01*
X0114963Y0197815D01*
X0106082Y0194601D01*
X0097764Y0190129D01*
X0097764Y0190129D01*
X0090185Y0184494D01*
X0090185Y0184494D01*
X0083506Y0177815D01*
X0077871Y0170236D01*
X0073399Y0161918D01*
X0073399Y0161918D01*
X0070284Y0153311D01*
X0070284Y0154054D01*
X0069860Y0155077D01*
X0069077Y0155860D01*
X0068054Y0156284D01*
X0066946Y0156284D01*
X0065923Y0155860D01*
X0065140Y0155077D01*
X0064716Y0154054D01*
X0064716Y0154000D01*
X0052244Y0146205D01*
X0052054Y0146284D01*
X0050946Y0146284D01*
X0049923Y0145860D01*
X0049140Y0145077D01*
X0048716Y0144054D01*
X0048716Y0142946D01*
X0049140Y0141923D01*
X0049923Y0141140D01*
X0050946Y0140716D01*
X0052054Y0140716D01*
X0053077Y0141140D01*
X0054009Y0142281D02*
X0143819Y0142281D01*
X0144216Y0142728D02*
X0138933Y0136784D01*
X0138446Y0136784D01*
X0137423Y0136360D01*
X0136640Y0135577D01*
X0136216Y0134554D01*
X0136216Y0133446D01*
X0136640Y0132423D01*
X0137423Y0131640D01*
X0138446Y0131216D01*
X0139554Y0131216D01*
X0140577Y0131640D01*
X0141360Y0132423D01*
X0141784Y0133446D01*
X0141784Y0134272D01*
X0147067Y0140216D01*
X0147554Y0140216D01*
X0148577Y0140640D01*
X0149360Y0141423D01*
X0149784Y0142446D01*
X0149784Y0143554D01*
X0149360Y0144577D01*
X0148577Y0145360D01*
X0147554Y0145784D01*
X0146446Y0145784D01*
X0145423Y0145360D01*
X0144640Y0144577D01*
X0144216Y0143554D01*
X0144216Y0142728D01*
X0144216Y0143280D02*
X0054732Y0143280D01*
X0056330Y0144278D02*
X0144516Y0144278D01*
X0145339Y0145277D02*
X0057928Y0145277D01*
X0059525Y0146275D02*
X0069933Y0146275D01*
X0069200Y0147274D02*
X0061123Y0147274D01*
X0062720Y0148272D02*
X0069200Y0148272D01*
X0069417Y0149271D02*
X0064318Y0149271D01*
X0065916Y0150269D02*
X0069621Y0150269D01*
X0069824Y0151268D02*
X0069205Y0151268D01*
X0070003Y0152266D02*
X0070028Y0152266D01*
X0070197Y0154263D02*
X0070629Y0154263D01*
X0070990Y0155262D02*
X0069676Y0155262D01*
X0068112Y0156260D02*
X0071351Y0156260D01*
X0071713Y0157259D02*
X0049888Y0157259D01*
X0050161Y0158257D02*
X0072074Y0158257D01*
X0072436Y0159256D02*
X0050434Y0159256D01*
X0050707Y0160254D02*
X0072797Y0160254D01*
X0073158Y0161253D02*
X0050980Y0161253D01*
X0051253Y0162251D02*
X0073578Y0162251D01*
X0074115Y0163250D02*
X0051526Y0163250D01*
X0051670Y0163775D02*
X0055918Y0173938D01*
X0057099Y0175978D01*
X0056716Y0175054D01*
X0056716Y0173946D01*
X0057140Y0172923D01*
X0057923Y0172140D01*
X0058946Y0171716D01*
X0060054Y0171716D01*
X0061077Y0172140D01*
X0061860Y0172923D01*
X0061872Y0172951D01*
X0076761Y0175302D01*
X0076923Y0175140D01*
X0077946Y0174716D01*
X0079054Y0174716D01*
X0080077Y0175140D01*
X0080860Y0175923D01*
X0081284Y0176946D01*
X0081284Y0178054D01*
X0080860Y0179077D01*
X0080077Y0179860D01*
X0079054Y0180284D01*
X0077946Y0180284D01*
X0076923Y0179860D01*
X0076140Y0179077D01*
X0076128Y0179049D01*
X0061239Y0176698D01*
X0061077Y0176860D01*
X0060054Y0177284D01*
X0058946Y0177284D01*
X0057923Y0176860D01*
X0057178Y0176116D01*
X0061437Y0183471D01*
X0068137Y0192216D01*
X0075905Y0200026D01*
X0084613Y0206772D01*
X0094116Y0212343D01*
X0104257Y0216645D01*
X0114867Y0219608D01*
X0120174Y0220550D01*
X0120849Y0220550D01*
X0120968Y0220668D01*
X0121133Y0220692D01*
X0121554Y0221254D01*
X0122050Y0221751D01*
X0122050Y0221918D01*
X0122150Y0222052D01*
X0122050Y0222747D01*
X0122050Y0237094D01*
X0122138Y0237206D01*
X0122050Y0237925D01*
X0122050Y0238649D01*
X0121949Y0238750D01*
X0121931Y0238892D01*
X0121361Y0239338D01*
X0120849Y0239850D01*
X0120706Y0239850D01*
X0120593Y0239938D01*
X0119875Y0239850D01*
X0119151Y0239850D01*
X0119050Y0239749D01*
X0113450Y0239063D01*
X0101127Y0236012D01*
X0101127Y0236012D01*
X0089261Y0231500D01*
X0078024Y0225591D01*
X0067581Y0218372D01*
X0058084Y0209947D01*
X0049670Y0200440D01*
X0042462Y0189989D01*
X0036566Y0178746D01*
X0032067Y0166875D01*
X0029030Y0154548D01*
X0028350Y0148949D01*
X0028250Y0148849D01*
X0028250Y0148124D01*
X0028163Y0147404D01*
X0028250Y0147293D01*
X0028250Y0147151D01*
X0028763Y0146638D01*
X0029210Y0146067D01*
X0029351Y0146050D01*
X0029451Y0145950D01*
X0030176Y0145950D01*
X0030896Y0145863D01*
X0031007Y0145950D01*
X0045658Y0145950D01*
X0046359Y0145853D01*
X0046488Y0145950D01*
X0046649Y0145950D01*
X0047149Y0146450D01*
X0047714Y0146877D01*
X0047736Y0147037D01*
X0047850Y0147151D01*
X0047850Y0147831D01*
X0048764Y0153149D01*
X0051670Y0163775D01*
X0051868Y0164248D02*
X0074652Y0164248D01*
X0075189Y0165247D02*
X0052285Y0165247D01*
X0052702Y0166245D02*
X0075725Y0166245D01*
X0076262Y0167244D02*
X0053120Y0167244D01*
X0053537Y0168242D02*
X0076799Y0168242D01*
X0077336Y0169241D02*
X0053954Y0169241D01*
X0054372Y0170239D02*
X0077873Y0170239D01*
X0077871Y0170236D02*
X0077871Y0170236D01*
X0078616Y0171238D02*
X0054789Y0171238D01*
X0055206Y0172237D02*
X0057826Y0172237D01*
X0057010Y0173235D02*
X0055624Y0173235D01*
X0056089Y0174234D02*
X0056716Y0174234D01*
X0056667Y0175232D02*
X0056790Y0175232D01*
X0057245Y0176231D02*
X0057293Y0176231D01*
X0057823Y0177229D02*
X0058813Y0177229D01*
X0058401Y0178228D02*
X0070926Y0178228D01*
X0069995Y0174234D02*
X0080843Y0174234D01*
X0080170Y0175232D02*
X0081585Y0175232D01*
X0080988Y0176231D02*
X0082328Y0176231D01*
X0083070Y0177229D02*
X0081284Y0177229D01*
X0081212Y0178228D02*
X0083918Y0178228D01*
X0083506Y0177815D02*
X0083506Y0177815D01*
X0084917Y0179226D02*
X0080711Y0179226D01*
X0079198Y0180225D02*
X0085915Y0180225D01*
X0086914Y0181223D02*
X0060135Y0181223D01*
X0059557Y0180225D02*
X0077802Y0180225D01*
X0076289Y0179226D02*
X0058979Y0179226D01*
X0060187Y0177229D02*
X0064602Y0177229D01*
X0063671Y0173235D02*
X0080101Y0173235D01*
X0079358Y0172237D02*
X0061174Y0172237D01*
X0060714Y0182222D02*
X0087912Y0182222D01*
X0088911Y0183220D02*
X0061292Y0183220D01*
X0062010Y0184219D02*
X0089909Y0184219D01*
X0091157Y0185217D02*
X0062775Y0185217D01*
X0063540Y0186216D02*
X0092500Y0186216D01*
X0093843Y0187214D02*
X0064305Y0187214D01*
X0065070Y0188213D02*
X0095186Y0188213D01*
X0096529Y0189211D02*
X0065835Y0189211D01*
X0066600Y0190210D02*
X0097914Y0190210D01*
X0099771Y0191208D02*
X0067365Y0191208D01*
X0068130Y0192207D02*
X0101628Y0192207D01*
X0101077Y0193140D02*
X0101860Y0193923D01*
X0102284Y0194946D01*
X0102284Y0196054D01*
X0101860Y0197077D01*
X0101077Y0197860D01*
X0100054Y0198284D01*
X0098946Y0198284D01*
X0097923Y0197860D01*
X0097761Y0197698D01*
X0082872Y0200049D01*
X0082860Y0200077D01*
X0082077Y0200860D01*
X0081054Y0201284D01*
X0079946Y0201284D01*
X0078923Y0200860D01*
X0078140Y0200077D01*
X0077716Y0199054D01*
X0077716Y0197946D01*
X0078140Y0196923D01*
X0078923Y0196140D01*
X0079946Y0195716D01*
X0081054Y0195716D01*
X0082077Y0196140D01*
X0082239Y0196302D01*
X0097128Y0193951D01*
X0097140Y0193923D01*
X0097923Y0193140D01*
X0098946Y0192716D01*
X0100054Y0192716D01*
X0101077Y0193140D01*
X0101143Y0193205D02*
X0103486Y0193205D01*
X0101977Y0194204D02*
X0105343Y0194204D01*
X0106082Y0194601D02*
X0106082Y0194601D01*
X0107743Y0195202D02*
X0102284Y0195202D01*
X0102223Y0196201D02*
X0110502Y0196201D01*
X0113262Y0197199D02*
X0101738Y0197199D01*
X0100263Y0198198D02*
X0116840Y0198198D01*
X0114963Y0197815D02*
X0114963Y0197815D01*
X0119121Y0202192D02*
X0078701Y0202192D01*
X0079727Y0201193D02*
X0077412Y0201193D01*
X0078257Y0200195D02*
X0076123Y0200195D01*
X0075080Y0199196D02*
X0077775Y0199196D01*
X0077716Y0198198D02*
X0074087Y0198198D01*
X0073094Y0197199D02*
X0078025Y0197199D01*
X0078862Y0196201D02*
X0072100Y0196201D01*
X0071107Y0195202D02*
X0089203Y0195202D01*
X0088272Y0199196D02*
X0122117Y0199196D01*
X0121527Y0198198D02*
X0123115Y0198198D01*
X0124114Y0197199D02*
X0122050Y0197199D01*
X0122094Y0196201D02*
X0125112Y0196201D01*
X0126111Y0195202D02*
X0122050Y0195202D01*
X0122050Y0194204D02*
X0127109Y0194204D01*
X0128108Y0193205D02*
X0122050Y0193205D01*
X0122050Y0192207D02*
X0129106Y0192207D01*
X0130105Y0191208D02*
X0122050Y0191208D01*
X0122050Y0190210D02*
X0131103Y0190210D01*
X0132102Y0189211D02*
X0122050Y0189211D01*
X0122050Y0188213D02*
X0133100Y0188213D01*
X0134099Y0187214D02*
X0122050Y0187214D01*
X0122050Y0186216D02*
X0135097Y0186216D01*
X0136096Y0185217D02*
X0122050Y0185217D01*
X0122050Y0184219D02*
X0137094Y0184219D01*
X0137100Y0184213D02*
X0137100Y0154038D01*
X0136640Y0153577D01*
X0136216Y0152554D01*
X0136216Y0151446D01*
X0136640Y0150423D01*
X0137423Y0149640D01*
X0138446Y0149216D01*
X0139554Y0149216D01*
X0140577Y0149640D01*
X0141360Y0150423D01*
X0141784Y0151446D01*
X0141784Y0152554D01*
X0141360Y0153577D01*
X0140900Y0154038D01*
X0140900Y0185787D01*
X0111784Y0214903D01*
X0111784Y0215554D01*
X0111360Y0216577D01*
X0110577Y0217360D01*
X0109554Y0217784D01*
X0108446Y0217784D01*
X0107423Y0217360D01*
X0106640Y0216577D01*
X0106216Y0215554D01*
X0106216Y0214446D01*
X0106640Y0213423D01*
X0107423Y0212640D01*
X0108446Y0212216D01*
X0109097Y0212216D01*
X0137100Y0184213D01*
X0137100Y0183220D02*
X0122050Y0183220D01*
X0122050Y0182222D02*
X0137100Y0182222D01*
X0137100Y0181223D02*
X0122050Y0181223D01*
X0122050Y0180225D02*
X0137100Y0180225D01*
X0137100Y0179226D02*
X0122050Y0179226D01*
X0122050Y0178228D02*
X0137100Y0178228D01*
X0137100Y0177229D02*
X0122050Y0177229D01*
X0122050Y0176231D02*
X0137100Y0176231D01*
X0137100Y0175232D02*
X0122050Y0175232D01*
X0122050Y0174234D02*
X0137100Y0174234D01*
X0137100Y0173235D02*
X0122050Y0173235D01*
X0122050Y0172237D02*
X0137100Y0172237D01*
X0137100Y0171238D02*
X0122050Y0171238D01*
X0122050Y0170239D02*
X0137100Y0170239D01*
X0137100Y0169241D02*
X0122050Y0169241D01*
X0122050Y0168242D02*
X0137100Y0168242D01*
X0137100Y0167244D02*
X0122050Y0167244D01*
X0122050Y0166245D02*
X0137100Y0166245D01*
X0137100Y0165247D02*
X0122050Y0165247D01*
X0122050Y0164248D02*
X0137100Y0164248D01*
X0137100Y0163250D02*
X0122075Y0163250D01*
X0122050Y0162251D02*
X0137100Y0162251D01*
X0137100Y0161253D02*
X0121426Y0161253D01*
X0119451Y0160254D02*
X0137100Y0160254D01*
X0137100Y0159256D02*
X0117831Y0159256D01*
X0116414Y0158257D02*
X0137100Y0158257D01*
X0137100Y0157259D02*
X0114997Y0157259D01*
X0113896Y0156260D02*
X0137100Y0156260D01*
X0137100Y0155262D02*
X0112911Y0155262D01*
X0111925Y0154263D02*
X0137100Y0154263D01*
X0136510Y0153265D02*
X0111000Y0153265D01*
X0110315Y0152266D02*
X0136216Y0152266D01*
X0136290Y0151268D02*
X0109631Y0151268D01*
X0108946Y0150269D02*
X0136793Y0150269D01*
X0138313Y0149271D02*
X0108281Y0149271D01*
X0107777Y0148272D02*
X0157308Y0148272D01*
X0157700Y0147509D02*
X0156754Y0149351D01*
X0153924Y0153420D01*
X0150420Y0156924D01*
X0146352Y0159754D01*
X0144509Y0160700D01*
X0144151Y0160700D01*
X0143811Y0161040D01*
X0143373Y0161241D01*
X0143234Y0161617D01*
X0142950Y0161901D01*
X0142950Y0162382D01*
X0142783Y0162833D01*
X0142950Y0163198D01*
X0142950Y0196133D01*
X0142822Y0196326D01*
X0142950Y0196956D01*
X0142950Y0197599D01*
X0143114Y0197763D01*
X0143160Y0197990D01*
X0143696Y0198345D01*
X0144151Y0198800D01*
X0144383Y0198800D01*
X0144576Y0198928D01*
X0145206Y0198800D01*
X0145849Y0198800D01*
X0146013Y0198636D01*
X0150040Y0197817D01*
X0150040Y0197817D01*
X0158931Y0194607D01*
X0158931Y0194607D01*
X0167261Y0190138D01*
X0167261Y0190138D01*
X0174852Y0184505D01*
X0174852Y0184505D01*
X0181544Y0177827D01*
X0181544Y0177827D01*
X0187192Y0170248D01*
X0187192Y0170248D01*
X0191679Y0161927D01*
X0191679Y0161927D01*
X0194907Y0153042D01*
X0194907Y0153042D01*
X0195734Y0149015D01*
X0195900Y0148849D01*
X0195900Y0148208D01*
X0196029Y0147581D01*
X0195900Y0147385D01*
X0195900Y0147151D01*
X0195447Y0146698D01*
X0195094Y0146163D01*
X0194865Y0146116D01*
X0194699Y0145950D01*
X0194058Y0145950D01*
X0193431Y0145821D01*
X0193235Y0145950D01*
X0160198Y0145950D01*
X0159833Y0145783D01*
X0159382Y0145950D01*
X0158901Y0145950D01*
X0158617Y0146234D01*
X0158241Y0146373D01*
X0158040Y0146811D01*
X0157700Y0147151D01*
X0157700Y0147509D01*
X0157700Y0147274D02*
X0107400Y0147274D01*
X0106557Y0146275D02*
X0158506Y0146275D01*
X0156795Y0149271D02*
X0139687Y0149271D01*
X0141207Y0150269D02*
X0156115Y0150269D01*
X0155421Y0151268D02*
X0141710Y0151268D01*
X0141784Y0152266D02*
X0154726Y0152266D01*
X0154032Y0153265D02*
X0141490Y0153265D01*
X0140900Y0154263D02*
X0153080Y0154263D01*
X0152082Y0155262D02*
X0140900Y0155262D01*
X0140900Y0156260D02*
X0151083Y0156260D01*
X0149938Y0157259D02*
X0140900Y0157259D01*
X0140900Y0158257D02*
X0148503Y0158257D01*
X0147067Y0159256D02*
X0140900Y0159256D01*
X0140900Y0160254D02*
X0145376Y0160254D01*
X0143369Y0161253D02*
X0140900Y0161253D01*
X0140900Y0162251D02*
X0142950Y0162251D01*
X0142950Y0163250D02*
X0140900Y0163250D01*
X0140900Y0164248D02*
X0142950Y0164248D01*
X0142950Y0165247D02*
X0140900Y0165247D01*
X0140900Y0166245D02*
X0142950Y0166245D01*
X0142950Y0167244D02*
X0140900Y0167244D01*
X0140900Y0168242D02*
X0142950Y0168242D01*
X0142950Y0169241D02*
X0140900Y0169241D01*
X0140900Y0170239D02*
X0142950Y0170239D01*
X0142950Y0171238D02*
X0140900Y0171238D01*
X0140900Y0172237D02*
X0142950Y0172237D01*
X0142950Y0173235D02*
X0140900Y0173235D01*
X0140900Y0174234D02*
X0142950Y0174234D01*
X0142950Y0175232D02*
X0140900Y0175232D01*
X0140900Y0176231D02*
X0142950Y0176231D01*
X0142950Y0177229D02*
X0140900Y0177229D01*
X0140900Y0178228D02*
X0142950Y0178228D01*
X0142950Y0179226D02*
X0140900Y0179226D01*
X0140900Y0180225D02*
X0142950Y0180225D01*
X0142950Y0181223D02*
X0140900Y0181223D01*
X0140900Y0182222D02*
X0142950Y0182222D01*
X0142950Y0183220D02*
X0140900Y0183220D01*
X0140900Y0184219D02*
X0142950Y0184219D01*
X0142950Y0185217D02*
X0140900Y0185217D01*
X0140471Y0186216D02*
X0142950Y0186216D01*
X0142950Y0187214D02*
X0139473Y0187214D01*
X0138474Y0188213D02*
X0142950Y0188213D01*
X0142950Y0189211D02*
X0137476Y0189211D01*
X0136477Y0190210D02*
X0142950Y0190210D01*
X0142950Y0191208D02*
X0135479Y0191208D01*
X0134480Y0192207D02*
X0142950Y0192207D01*
X0142950Y0193205D02*
X0133482Y0193205D01*
X0132483Y0194204D02*
X0142950Y0194204D01*
X0142950Y0195202D02*
X0131485Y0195202D01*
X0130486Y0196201D02*
X0142905Y0196201D01*
X0142950Y0197199D02*
X0129488Y0197199D01*
X0128489Y0198198D02*
X0143473Y0198198D01*
X0148169Y0198198D02*
X0171203Y0198198D01*
X0171045Y0199196D02*
X0153134Y0199196D01*
X0153077Y0199140D02*
X0153860Y0199923D01*
X0154284Y0200946D01*
X0154284Y0202054D01*
X0153860Y0203077D01*
X0153077Y0203860D01*
X0152054Y0204284D01*
X0152045Y0204284D01*
X0145188Y0215713D01*
X0145284Y0215946D01*
X0145284Y0217054D01*
X0144860Y0218077D01*
X0144077Y0218860D01*
X0143054Y0219284D01*
X0141946Y0219284D01*
X0140923Y0218860D01*
X0140140Y0218077D01*
X0139716Y0217054D01*
X0139716Y0215946D01*
X0140140Y0214923D01*
X0140923Y0214140D01*
X0141946Y0213716D01*
X0141955Y0213716D01*
X0148812Y0202287D01*
X0148716Y0202054D01*
X0148716Y0200946D01*
X0149140Y0199923D01*
X0149923Y0199140D01*
X0150946Y0198716D01*
X0152054Y0198716D01*
X0153077Y0199140D01*
X0153973Y0200195D02*
X0170888Y0200195D01*
X0170730Y0201193D02*
X0154284Y0201193D01*
X0154227Y0202192D02*
X0170572Y0202192D01*
X0170415Y0203190D02*
X0153747Y0203190D01*
X0152284Y0204189D02*
X0170257Y0204189D01*
X0170100Y0205187D02*
X0151503Y0205187D01*
X0150904Y0206186D02*
X0169877Y0206186D01*
X0169923Y0206140D02*
X0169951Y0206128D01*
X0172302Y0191239D01*
X0172140Y0191077D01*
X0171716Y0190054D01*
X0171716Y0188946D01*
X0172140Y0187923D01*
X0172923Y0187140D01*
X0173946Y0186716D01*
X0175054Y0186716D01*
X0176077Y0187140D01*
X0176860Y0187923D01*
X0177284Y0188946D01*
X0177284Y0190054D01*
X0176860Y0191077D01*
X0176077Y0191860D01*
X0176049Y0191872D01*
X0173698Y0206761D01*
X0173860Y0206923D01*
X0174284Y0207946D01*
X0174284Y0209054D01*
X0173860Y0210077D01*
X0173077Y0210860D01*
X0172054Y0211284D01*
X0170946Y0211284D01*
X0169923Y0210860D01*
X0169140Y0210077D01*
X0168716Y0209054D01*
X0168716Y0207946D01*
X0169140Y0206923D01*
X0169923Y0206140D01*
X0169031Y0207184D02*
X0150305Y0207184D01*
X0149706Y0208183D02*
X0168716Y0208183D01*
X0168769Y0209181D02*
X0149107Y0209181D01*
X0148508Y0210180D02*
X0169242Y0210180D01*
X0170691Y0211178D02*
X0147909Y0211178D01*
X0147310Y0212177D02*
X0171202Y0212177D01*
X0170894Y0212357D02*
X0180400Y0206789D01*
X0189111Y0200043D01*
X0196880Y0192232D01*
X0203580Y0183485D01*
X0209097Y0173949D01*
X0213340Y0163781D01*
X0216240Y0153152D01*
X0217150Y0147832D01*
X0217150Y0147151D01*
X0217263Y0147037D01*
X0217285Y0146878D01*
X0217850Y0146451D01*
X0218351Y0145950D01*
X0218511Y0145950D01*
X0218639Y0145853D01*
X0219341Y0145950D01*
X0233994Y0145950D01*
X0234106Y0145862D01*
X0234825Y0145950D01*
X0235549Y0145950D01*
X0235650Y0146051D01*
X0235792Y0146068D01*
X0236238Y0146639D01*
X0236750Y0147151D01*
X0236750Y0147294D01*
X0236838Y0147406D01*
X0236750Y0148125D01*
X0236750Y0148849D01*
X0236649Y0148950D01*
X0235963Y0154546D01*
X0232916Y0166861D01*
X0228409Y0178720D01*
X0222508Y0189950D01*
X0215298Y0200389D01*
X0206884Y0209884D01*
X0206884Y0209884D01*
X0197389Y0218298D01*
X0186950Y0225508D01*
X0175720Y0231409D01*
X0163861Y0235916D01*
X0163861Y0235916D01*
X0151546Y0238963D01*
X0151546Y0238963D01*
X0145950Y0239649D01*
X0145849Y0239750D01*
X0145125Y0239750D01*
X0144406Y0239838D01*
X0144294Y0239750D01*
X0144151Y0239750D01*
X0143639Y0239238D01*
X0143068Y0238792D01*
X0143051Y0238650D01*
X0142950Y0238549D01*
X0142950Y0237825D01*
X0142862Y0237106D01*
X0142950Y0236994D01*
X0142950Y0222746D01*
X0142850Y0222051D01*
X0142950Y0221917D01*
X0142950Y0221751D01*
X0143447Y0221254D01*
X0143868Y0220691D01*
X0144033Y0220668D01*
X0144151Y0220550D01*
X0144826Y0220550D01*
X0150136Y0219612D01*
X0160750Y0216656D01*
X0170894Y0212357D01*
X0172309Y0211178D02*
X0172907Y0211178D01*
X0173758Y0210180D02*
X0174611Y0210180D01*
X0174231Y0209181D02*
X0176316Y0209181D01*
X0178021Y0208183D02*
X0174284Y0208183D01*
X0173969Y0207184D02*
X0179725Y0207184D01*
X0181179Y0206186D02*
X0173789Y0206186D01*
X0173947Y0205187D02*
X0182468Y0205187D01*
X0183758Y0204189D02*
X0174104Y0204189D01*
X0174262Y0203190D02*
X0185047Y0203190D01*
X0186336Y0202192D02*
X0174420Y0202192D01*
X0174577Y0201193D02*
X0187625Y0201193D01*
X0188915Y0200195D02*
X0174735Y0200195D01*
X0174893Y0199196D02*
X0189953Y0199196D01*
X0190946Y0198198D02*
X0175050Y0198198D01*
X0175208Y0197199D02*
X0191939Y0197199D01*
X0192932Y0196201D02*
X0175366Y0196201D01*
X0175523Y0195202D02*
X0193926Y0195202D01*
X0194919Y0194204D02*
X0175681Y0194204D01*
X0175838Y0193205D02*
X0195912Y0193205D01*
X0196899Y0192207D02*
X0175996Y0192207D01*
X0176729Y0191208D02*
X0197664Y0191208D01*
X0198429Y0190210D02*
X0196234Y0190210D01*
X0196054Y0190284D02*
X0194946Y0190284D01*
X0193923Y0189860D01*
X0193140Y0189077D01*
X0192716Y0188054D01*
X0192716Y0186946D01*
X0193140Y0185923D01*
X0193302Y0185761D01*
X0190951Y0170872D01*
X0190923Y0170860D01*
X0190140Y0170077D01*
X0189716Y0169054D01*
X0189716Y0167946D01*
X0190140Y0166923D01*
X0190923Y0166140D01*
X0191946Y0165716D01*
X0193054Y0165716D01*
X0194077Y0166140D01*
X0194860Y0166923D01*
X0195284Y0167946D01*
X0195284Y0169054D01*
X0194860Y0170077D01*
X0194698Y0170239D01*
X0197049Y0185128D01*
X0197077Y0185140D01*
X0197860Y0185923D01*
X0198284Y0186946D01*
X0198284Y0188054D01*
X0197860Y0189077D01*
X0197077Y0189860D01*
X0196054Y0190284D01*
X0194766Y0190210D02*
X0177220Y0190210D01*
X0177284Y0189211D02*
X0193274Y0189211D01*
X0192782Y0188213D02*
X0176980Y0188213D01*
X0176152Y0187214D02*
X0192716Y0187214D01*
X0193018Y0186216D02*
X0172547Y0186216D01*
X0172848Y0187214D02*
X0171201Y0187214D01*
X0172020Y0188213D02*
X0169856Y0188213D01*
X0168510Y0189211D02*
X0171716Y0189211D01*
X0171780Y0190210D02*
X0167128Y0190210D01*
X0165267Y0191208D02*
X0172271Y0191208D01*
X0172149Y0192207D02*
X0163406Y0192207D01*
X0161545Y0193205D02*
X0171991Y0193205D01*
X0171834Y0194204D02*
X0159684Y0194204D01*
X0157284Y0195202D02*
X0171676Y0195202D01*
X0171518Y0196201D02*
X0154518Y0196201D01*
X0151752Y0197199D02*
X0171361Y0197199D01*
X0173893Y0185217D02*
X0193216Y0185217D01*
X0193058Y0184219D02*
X0175139Y0184219D01*
X0176140Y0183220D02*
X0192901Y0183220D01*
X0192743Y0182222D02*
X0177140Y0182222D01*
X0178141Y0181223D02*
X0192585Y0181223D01*
X0192428Y0180225D02*
X0179141Y0180225D01*
X0180142Y0179226D02*
X0192270Y0179226D01*
X0192112Y0178228D02*
X0181143Y0178228D01*
X0181989Y0177229D02*
X0191955Y0177229D01*
X0191797Y0176231D02*
X0182734Y0176231D01*
X0183478Y0175232D02*
X0191639Y0175232D01*
X0191482Y0174234D02*
X0184222Y0174234D01*
X0184966Y0173235D02*
X0191324Y0173235D01*
X0191166Y0172237D02*
X0185710Y0172237D01*
X0186454Y0171238D02*
X0191009Y0171238D01*
X0190302Y0170239D02*
X0187197Y0170239D01*
X0187735Y0169241D02*
X0189793Y0169241D01*
X0189716Y0168242D02*
X0188274Y0168242D01*
X0188812Y0167244D02*
X0190007Y0167244D01*
X0189350Y0166245D02*
X0190817Y0166245D01*
X0189889Y0165247D02*
X0212729Y0165247D01*
X0213145Y0164248D02*
X0190427Y0164248D01*
X0190965Y0163250D02*
X0213485Y0163250D01*
X0213758Y0162251D02*
X0212133Y0162251D01*
X0212054Y0162284D02*
X0210946Y0162284D01*
X0209923Y0161860D01*
X0209140Y0161077D01*
X0208716Y0160054D01*
X0208716Y0158946D01*
X0208753Y0158857D01*
X0200108Y0146284D01*
X0199946Y0146284D01*
X0198923Y0145860D01*
X0198140Y0145077D01*
X0197716Y0144054D01*
X0197716Y0142946D01*
X0198140Y0141923D01*
X0198923Y0141140D01*
X0199946Y0140716D01*
X0201054Y0140716D01*
X0202077Y0141140D01*
X0202860Y0141923D01*
X0203284Y0142946D01*
X0203284Y0144054D01*
X0203247Y0144143D01*
X0211892Y0156716D01*
X0212054Y0156716D01*
X0213077Y0157140D01*
X0213860Y0157923D01*
X0214284Y0158946D01*
X0214284Y0160054D01*
X0213860Y0161077D01*
X0213077Y0161860D01*
X0212054Y0162284D01*
X0210867Y0162251D02*
X0191504Y0162251D01*
X0191924Y0161253D02*
X0209315Y0161253D01*
X0208799Y0160254D02*
X0192287Y0160254D01*
X0192649Y0159256D02*
X0208716Y0159256D01*
X0208340Y0158257D02*
X0193012Y0158257D01*
X0193375Y0157259D02*
X0207654Y0157259D01*
X0206967Y0156260D02*
X0193738Y0156260D01*
X0194101Y0155262D02*
X0206281Y0155262D01*
X0205594Y0154263D02*
X0194463Y0154263D01*
X0194826Y0153265D02*
X0204908Y0153265D01*
X0204221Y0152266D02*
X0195067Y0152266D01*
X0195272Y0151268D02*
X0203535Y0151268D01*
X0202848Y0150269D02*
X0195477Y0150269D01*
X0195682Y0149271D02*
X0202162Y0149271D01*
X0201475Y0148272D02*
X0195900Y0148272D01*
X0195900Y0147274D02*
X0200789Y0147274D01*
X0199924Y0146275D02*
X0195168Y0146275D01*
X0197809Y0144278D02*
X0149484Y0144278D01*
X0149784Y0143280D02*
X0197716Y0143280D01*
X0197991Y0142281D02*
X0149716Y0142281D01*
X0149220Y0141283D02*
X0198780Y0141283D01*
X0202220Y0141283D02*
X0238780Y0141283D01*
X0238923Y0141140D02*
X0239946Y0140716D01*
X0241054Y0140716D01*
X0242077Y0141140D01*
X0242860Y0141923D01*
X0243284Y0142946D01*
X0243284Y0144046D01*
X0252787Y0156716D01*
X0253054Y0156716D01*
X0254077Y0157140D01*
X0254860Y0157923D01*
X0255284Y0158946D01*
X0255284Y0160054D01*
X0254860Y0161077D01*
X0254077Y0161860D01*
X0253054Y0162284D01*
X0251946Y0162284D01*
X0250923Y0161860D01*
X0250140Y0161077D01*
X0249716Y0160054D01*
X0249716Y0158954D01*
X0240213Y0146284D01*
X0239946Y0146284D01*
X0238923Y0145860D01*
X0238140Y0145077D01*
X0237716Y0144054D01*
X0237716Y0142946D01*
X0238140Y0141923D01*
X0238923Y0141140D01*
X0237991Y0142281D02*
X0203009Y0142281D01*
X0203284Y0143280D02*
X0237716Y0143280D01*
X0237809Y0144278D02*
X0203341Y0144278D01*
X0204027Y0145277D02*
X0238339Y0145277D01*
X0239924Y0146275D02*
X0235954Y0146275D01*
X0236750Y0147274D02*
X0240955Y0147274D01*
X0241704Y0148272D02*
X0236750Y0148272D01*
X0236610Y0149271D02*
X0242453Y0149271D01*
X0243202Y0150269D02*
X0236487Y0150269D01*
X0236365Y0151268D02*
X0243951Y0151268D01*
X0244700Y0152266D02*
X0236243Y0152266D01*
X0236120Y0153265D02*
X0245449Y0153265D01*
X0246197Y0154263D02*
X0235998Y0154263D01*
X0235963Y0154546D02*
X0235963Y0154546D01*
X0235786Y0155262D02*
X0246946Y0155262D01*
X0247695Y0156260D02*
X0235539Y0156260D01*
X0235292Y0157259D02*
X0248444Y0157259D01*
X0249193Y0158257D02*
X0235045Y0158257D01*
X0234798Y0159256D02*
X0249716Y0159256D01*
X0249799Y0160254D02*
X0234551Y0160254D01*
X0234304Y0161253D02*
X0250315Y0161253D01*
X0251867Y0162251D02*
X0234057Y0162251D01*
X0233810Y0163250D02*
X0256261Y0163250D01*
X0256049Y0164248D02*
X0233563Y0164248D01*
X0233316Y0165247D02*
X0255836Y0165247D01*
X0255624Y0166245D02*
X0233069Y0166245D01*
X0232771Y0167244D02*
X0255412Y0167244D01*
X0255200Y0168242D02*
X0232391Y0168242D01*
X0232923Y0169140D02*
X0233946Y0168716D01*
X0235054Y0168716D01*
X0236077Y0169140D01*
X0236860Y0169923D01*
X0237284Y0170946D01*
X0237284Y0172054D01*
X0237063Y0172588D01*
X0243407Y0186862D01*
X0244077Y0187140D01*
X0244860Y0187923D01*
X0245284Y0188946D01*
X0245284Y0190054D01*
X0244860Y0191077D01*
X0244077Y0191860D01*
X0243054Y0192284D01*
X0241946Y0192284D01*
X0240923Y0191860D01*
X0240140Y0191077D01*
X0239716Y0190054D01*
X0239716Y0188946D01*
X0239937Y0188412D01*
X0233593Y0174138D01*
X0232923Y0173860D01*
X0232140Y0173077D01*
X0231716Y0172054D01*
X0231716Y0170946D01*
X0232140Y0169923D01*
X0232923Y0169140D01*
X0232822Y0169241D02*
X0232012Y0169241D01*
X0232008Y0170239D02*
X0231632Y0170239D01*
X0231716Y0171238D02*
X0231253Y0171238D01*
X0230873Y0172237D02*
X0231791Y0172237D01*
X0232298Y0173235D02*
X0230494Y0173235D01*
X0230114Y0174234D02*
X0233636Y0174234D01*
X0234080Y0175232D02*
X0229735Y0175232D01*
X0229355Y0176231D02*
X0234523Y0176231D01*
X0234967Y0177229D02*
X0228976Y0177229D01*
X0228596Y0178228D02*
X0235411Y0178228D01*
X0235855Y0179226D02*
X0228143Y0179226D01*
X0227619Y0180225D02*
X0236298Y0180225D01*
X0236742Y0181223D02*
X0227094Y0181223D01*
X0226569Y0182222D02*
X0237186Y0182222D01*
X0237630Y0183220D02*
X0226045Y0183220D01*
X0225520Y0184219D02*
X0238074Y0184219D01*
X0238517Y0185217D02*
X0224995Y0185217D01*
X0224471Y0186216D02*
X0238961Y0186216D01*
X0239405Y0187214D02*
X0223946Y0187214D01*
X0223421Y0188213D02*
X0239849Y0188213D01*
X0239716Y0189211D02*
X0222896Y0189211D01*
X0222329Y0190210D02*
X0239780Y0190210D01*
X0240271Y0191208D02*
X0221639Y0191208D01*
X0220950Y0192207D02*
X0241759Y0192207D01*
X0243241Y0192207D02*
X0246081Y0192207D01*
X0246525Y0191208D02*
X0244729Y0191208D01*
X0245220Y0190210D02*
X0246970Y0190210D01*
X0247415Y0189211D02*
X0245284Y0189211D01*
X0244980Y0188213D02*
X0247859Y0188213D01*
X0248304Y0187214D02*
X0244152Y0187214D01*
X0243119Y0186216D02*
X0248748Y0186216D01*
X0249193Y0185217D02*
X0242676Y0185217D01*
X0242232Y0184219D02*
X0249637Y0184219D01*
X0250082Y0183220D02*
X0241788Y0183220D01*
X0241344Y0182222D02*
X0250526Y0182222D01*
X0250971Y0181223D02*
X0240901Y0181223D01*
X0240457Y0180225D02*
X0251321Y0180225D01*
X0251645Y0179226D02*
X0240013Y0179226D01*
X0239569Y0178228D02*
X0251970Y0178228D01*
X0252294Y0177229D02*
X0239125Y0177229D01*
X0238682Y0176231D02*
X0252619Y0176231D01*
X0252943Y0175232D02*
X0238238Y0175232D01*
X0237794Y0174234D02*
X0253267Y0174234D01*
X0253592Y0173235D02*
X0237350Y0173235D01*
X0237209Y0172237D02*
X0253916Y0172237D01*
X0254241Y0171238D02*
X0237284Y0171238D01*
X0236992Y0170239D02*
X0254565Y0170239D01*
X0254890Y0169241D02*
X0236178Y0169241D01*
X0252445Y0156260D02*
X0257747Y0156260D01*
X0257947Y0155262D02*
X0251696Y0155262D01*
X0250947Y0154263D02*
X0258052Y0154263D01*
X0258157Y0153265D02*
X0250199Y0153265D01*
X0249450Y0152266D02*
X0258262Y0152266D01*
X0258367Y0151268D02*
X0248701Y0151268D01*
X0247952Y0150269D02*
X0258472Y0150269D01*
X0258577Y0149271D02*
X0247203Y0149271D01*
X0246454Y0148272D02*
X0258682Y0148272D01*
X0258787Y0147274D02*
X0245705Y0147274D01*
X0244956Y0146275D02*
X0258892Y0146275D01*
X0258997Y0145277D02*
X0244208Y0145277D01*
X0243459Y0144278D02*
X0259102Y0144278D01*
X0259207Y0143280D02*
X0243284Y0143280D01*
X0243009Y0142281D02*
X0259312Y0142281D01*
X0259349Y0141283D02*
X0242220Y0141283D01*
X0246462Y0139400D02*
X0227537Y0139400D01*
X0227077Y0139860D01*
X0226054Y0140284D01*
X0247946Y0140284D01*
X0246923Y0139860D01*
X0246462Y0139400D01*
X0247946Y0140284D02*
X0249054Y0140284D01*
X0259375Y0140284D01*
X0259401Y0139286D02*
X0250652Y0139286D01*
X0250860Y0139077D02*
X0250077Y0139860D01*
X0249054Y0140284D01*
X0250860Y0139077D02*
X0251284Y0138054D01*
X0251284Y0136946D01*
X0250860Y0135923D01*
X0250437Y0135500D01*
X0250860Y0135077D01*
X0251284Y0134054D01*
X0251284Y0132946D01*
X0250860Y0131923D01*
X0250077Y0131140D01*
X0249054Y0130716D01*
X0247946Y0130716D01*
X0246923Y0131140D01*
X0246462Y0131600D01*
X0227537Y0131600D01*
X0227077Y0131140D01*
X0226054Y0130716D01*
X0224946Y0130716D01*
X0223923Y0131140D01*
X0223462Y0131600D01*
X0177038Y0131600D01*
X0176577Y0131140D01*
X0175554Y0130716D01*
X0174446Y0130716D01*
X0173423Y0131140D01*
X0172640Y0131923D01*
X0172216Y0132946D01*
X0172216Y0134054D01*
X0172640Y0135077D01*
X0173062Y0135500D01*
X0172640Y0135923D01*
X0172216Y0136946D01*
X0172216Y0138054D01*
X0172640Y0139077D01*
X0173423Y0139860D01*
X0174446Y0140284D01*
X0147719Y0140284D01*
X0146240Y0139286D02*
X0172848Y0139286D01*
X0172312Y0138287D02*
X0145353Y0138287D01*
X0144465Y0137289D02*
X0172216Y0137289D01*
X0172487Y0136290D02*
X0143578Y0136290D01*
X0142690Y0135292D02*
X0172854Y0135292D01*
X0172315Y0134293D02*
X0141803Y0134293D01*
X0141721Y0133295D02*
X0172216Y0133295D01*
X0172485Y0132296D02*
X0141234Y0132296D01*
X0139751Y0131298D02*
X0173265Y0131298D01*
X0176735Y0131298D02*
X0223765Y0131298D01*
X0227235Y0131298D02*
X0246765Y0131298D01*
X0250235Y0131298D02*
X0259390Y0131298D01*
X0259416Y0132296D02*
X0251015Y0132296D01*
X0251284Y0133295D02*
X0259442Y0133295D01*
X0259468Y0134293D02*
X0251185Y0134293D01*
X0250646Y0135292D02*
X0259495Y0135292D01*
X0259479Y0136290D02*
X0251012Y0136290D01*
X0251284Y0137289D02*
X0259453Y0137289D01*
X0259427Y0138287D02*
X0251188Y0138287D01*
X0259364Y0130299D02*
X0133476Y0130299D01*
X0133784Y0129301D02*
X0212363Y0129301D01*
X0211819Y0128302D02*
X0134506Y0128302D01*
X0135563Y0127303D02*
X0210601Y0127303D01*
X0209003Y0126305D02*
X0136621Y0126305D01*
X0138249Y0131298D02*
X0132640Y0131298D01*
X0129360Y0131298D02*
X0123228Y0131298D01*
X0124171Y0132296D02*
X0136766Y0132296D01*
X0136279Y0133295D02*
X0125114Y0133295D01*
X0126740Y0134293D02*
X0136216Y0134293D01*
X0136521Y0135292D02*
X0128229Y0135292D01*
X0128720Y0136290D02*
X0137353Y0136290D01*
X0139381Y0137289D02*
X0128784Y0137289D01*
X0128480Y0138287D02*
X0140269Y0138287D01*
X0141156Y0139286D02*
X0127652Y0139286D01*
X0124348Y0139286D02*
X0092152Y0139286D01*
X0092688Y0138287D02*
X0123520Y0138287D01*
X0123216Y0137289D02*
X0092784Y0137289D01*
X0092512Y0136290D02*
X0122716Y0136290D01*
X0121773Y0135292D02*
X0092146Y0135292D01*
X0092685Y0134293D02*
X0120830Y0134293D01*
X0119887Y0133295D02*
X0092784Y0133295D01*
X0092515Y0132296D02*
X0118944Y0132296D01*
X0121342Y0129301D02*
X0128216Y0129301D01*
X0128275Y0128302D02*
X0120399Y0128302D01*
X0120225Y0127303D02*
X0128759Y0127303D01*
X0130231Y0126305D02*
X0119742Y0126305D01*
X0122285Y0130299D02*
X0128524Y0130299D01*
X0115575Y0113324D02*
X0149641Y0113324D01*
X0150926Y0114323D02*
X0114263Y0114323D01*
X0113265Y0115321D02*
X0151932Y0115321D01*
X0152937Y0116320D02*
X0112266Y0116320D01*
X0117013Y0112326D02*
X0148188Y0112326D01*
X0146734Y0111327D02*
X0118451Y0111327D01*
X0120336Y0110329D02*
X0144872Y0110329D01*
X0143275Y0109330D02*
X0121769Y0109330D01*
X0122139Y0108332D02*
X0142895Y0108332D01*
X0142950Y0107333D02*
X0122050Y0107333D01*
X0122050Y0106335D02*
X0142950Y0106335D01*
X0142950Y0105336D02*
X0122050Y0105336D01*
X0122050Y0104338D02*
X0142950Y0104338D01*
X0142950Y0103339D02*
X0122050Y0103339D01*
X0122050Y0102341D02*
X0142950Y0102341D01*
X0142950Y0101342D02*
X0122050Y0101342D01*
X0122050Y0100344D02*
X0142950Y0100344D01*
X0142950Y0099345D02*
X0122050Y0099345D01*
X0122050Y0098347D02*
X0142950Y0098347D01*
X0142950Y0097348D02*
X0122050Y0097348D01*
X0122050Y0096350D02*
X0142950Y0096350D01*
X0142950Y0095351D02*
X0136086Y0095351D01*
X0136953Y0094353D02*
X0142950Y0094353D01*
X0142950Y0093354D02*
X0137284Y0093354D01*
X0137247Y0092356D02*
X0142950Y0092356D01*
X0142950Y0091357D02*
X0136795Y0091357D01*
X0136400Y0090359D02*
X0142950Y0090359D01*
X0142950Y0089360D02*
X0136400Y0089360D01*
X0136400Y0088362D02*
X0142950Y0088362D01*
X0142950Y0087363D02*
X0136400Y0087363D01*
X0136400Y0086365D02*
X0142950Y0086365D01*
X0142950Y0085366D02*
X0136400Y0085366D01*
X0136400Y0084368D02*
X0142950Y0084368D01*
X0142950Y0083369D02*
X0136400Y0083369D01*
X0136400Y0082370D02*
X0142950Y0082370D01*
X0142950Y0081372D02*
X0136400Y0081372D01*
X0136400Y0080373D02*
X0142950Y0080373D01*
X0142950Y0079375D02*
X0136400Y0079375D01*
X0136400Y0078376D02*
X0142950Y0078376D01*
X0142950Y0077378D02*
X0136400Y0077378D01*
X0136400Y0076379D02*
X0142950Y0076379D01*
X0142950Y0075381D02*
X0136400Y0075381D01*
X0136400Y0074382D02*
X0142881Y0074382D01*
X0142967Y0073384D02*
X0136400Y0073384D01*
X0136400Y0072385D02*
X0143965Y0072385D01*
X0146117Y0072385D02*
X0171072Y0072385D01*
X0170546Y0076379D02*
X0193962Y0076379D01*
X0192963Y0075381D02*
X0175288Y0075381D01*
X0180031Y0074382D02*
X0191965Y0074382D01*
X0190966Y0073384D02*
X0186554Y0073384D01*
X0187147Y0072385D02*
X0189968Y0072385D01*
X0188969Y0071387D02*
X0187284Y0071387D01*
X0187053Y0070388D02*
X0187691Y0070388D01*
X0186396Y0069390D02*
X0186327Y0069390D01*
X0185102Y0068391D02*
X0143144Y0068391D01*
X0143284Y0068054D02*
X0143284Y0067927D01*
X0154824Y0060234D01*
X0154946Y0060284D01*
X0156054Y0060284D01*
X0157077Y0059860D01*
X0157860Y0059077D01*
X0158284Y0058054D01*
X0158284Y0056946D01*
X0157860Y0055923D01*
X0157077Y0055140D01*
X0156054Y0054716D01*
X0154946Y0054716D01*
X0153923Y0055140D01*
X0153140Y0055923D01*
X0152716Y0056946D01*
X0152716Y0057073D01*
X0141175Y0064766D01*
X0141054Y0064716D01*
X0139946Y0064716D01*
X0138923Y0065140D01*
X0138140Y0065923D01*
X0137716Y0066946D01*
X0137716Y0068054D01*
X0138140Y0069077D01*
X0138923Y0069860D01*
X0139946Y0070284D01*
X0141054Y0070284D01*
X0142077Y0069860D01*
X0142860Y0069077D01*
X0143284Y0068054D01*
X0144086Y0067393D02*
X0183807Y0067393D01*
X0182513Y0066394D02*
X0145584Y0066394D01*
X0147082Y0065396D02*
X0181218Y0065396D01*
X0179825Y0064397D02*
X0148579Y0064397D01*
X0150077Y0063399D02*
X0178115Y0063399D01*
X0176406Y0062400D02*
X0151575Y0062400D01*
X0153073Y0061402D02*
X0174697Y0061402D01*
X0172987Y0060403D02*
X0154570Y0060403D01*
X0157533Y0059405D02*
X0171278Y0059405D01*
X0169113Y0058406D02*
X0158138Y0058406D01*
X0158284Y0057408D02*
X0166753Y0057408D01*
X0164394Y0056409D02*
X0158062Y0056409D01*
X0157348Y0055411D02*
X0162034Y0055411D01*
X0159160Y0054412D02*
X0136400Y0054412D01*
X0136400Y0053414D02*
X0155580Y0053414D01*
X0153652Y0055411D02*
X0136400Y0055411D01*
X0136400Y0056409D02*
X0152938Y0056409D01*
X0152213Y0057408D02*
X0136400Y0057408D01*
X0136400Y0058406D02*
X0150715Y0058406D01*
X0149218Y0059405D02*
X0136400Y0059405D01*
X0136400Y0060403D02*
X0147720Y0060403D01*
X0146222Y0061402D02*
X0136400Y0061402D01*
X0136400Y0062400D02*
X0144724Y0062400D01*
X0143227Y0063399D02*
X0136400Y0063399D01*
X0136400Y0064397D02*
X0141729Y0064397D01*
X0138667Y0065396D02*
X0136400Y0065396D01*
X0136400Y0066394D02*
X0137944Y0066394D01*
X0137716Y0067393D02*
X0136400Y0067393D01*
X0136400Y0068391D02*
X0137856Y0068391D01*
X0138452Y0069390D02*
X0136400Y0069390D01*
X0136400Y0070388D02*
X0180558Y0070388D01*
X0182673Y0069390D02*
X0142548Y0069390D01*
X0136400Y0071387D02*
X0175815Y0071387D01*
X0167560Y0077378D02*
X0194960Y0077378D01*
X0195959Y0078376D02*
X0162603Y0078376D01*
X0163440Y0077378D02*
X0160745Y0077378D01*
X0158919Y0076396D02*
X0158919Y0076396D01*
X0158872Y0076379D02*
X0162851Y0076379D01*
X0162716Y0075381D02*
X0156112Y0075381D01*
X0153351Y0074382D02*
X0162949Y0074382D01*
X0163679Y0073384D02*
X0150590Y0073384D01*
X0150037Y0073184D02*
X0150037Y0073184D01*
X0164461Y0079375D02*
X0196891Y0079375D01*
X0197661Y0080373D02*
X0166319Y0080373D01*
X0167917Y0081372D02*
X0198431Y0081372D01*
X0199202Y0082370D02*
X0169260Y0082370D01*
X0170603Y0083369D02*
X0199972Y0083369D01*
X0200742Y0084368D02*
X0171946Y0084368D01*
X0173289Y0085366D02*
X0201512Y0085366D01*
X0202282Y0086365D02*
X0174632Y0086365D01*
X0175679Y0087363D02*
X0203053Y0087363D01*
X0203712Y0088362D02*
X0176677Y0088362D01*
X0177676Y0089360D02*
X0204295Y0089360D01*
X0204878Y0090359D02*
X0178674Y0090359D01*
X0179673Y0091357D02*
X0184705Y0091357D01*
X0184923Y0091140D02*
X0185946Y0090716D01*
X0187054Y0090716D01*
X0188077Y0091140D01*
X0188860Y0091923D01*
X0188880Y0091970D01*
X0202776Y0094286D01*
X0202923Y0094140D01*
X0203946Y0093716D01*
X0205054Y0093716D01*
X0206077Y0094140D01*
X0206860Y0094923D01*
X0207284Y0095946D01*
X0207284Y0097054D01*
X0206860Y0098077D01*
X0206077Y0098860D01*
X0205054Y0099284D01*
X0203946Y0099284D01*
X0202923Y0098860D01*
X0202140Y0098077D01*
X0202120Y0098030D01*
X0188224Y0095714D01*
X0188077Y0095860D01*
X0187054Y0096284D01*
X0185946Y0096284D01*
X0184923Y0095860D01*
X0184140Y0095077D01*
X0183716Y0094054D01*
X0183716Y0092946D01*
X0184140Y0091923D01*
X0184923Y0091140D01*
X0183960Y0092356D02*
X0180671Y0092356D01*
X0181497Y0093182D02*
X0181497Y0093182D01*
X0181625Y0093354D02*
X0183716Y0093354D01*
X0183840Y0094353D02*
X0182368Y0094353D01*
X0183110Y0095351D02*
X0184414Y0095351D01*
X0183852Y0096350D02*
X0192041Y0096350D01*
X0191191Y0092356D02*
X0206045Y0092356D01*
X0206628Y0093354D02*
X0197182Y0093354D01*
X0198032Y0097348D02*
X0184595Y0097348D01*
X0185337Y0098347D02*
X0202409Y0098347D01*
X0206591Y0098347D02*
X0209365Y0098347D01*
X0209788Y0099345D02*
X0186079Y0099345D01*
X0186822Y0100344D02*
X0210210Y0100344D01*
X0210633Y0101342D02*
X0187444Y0101342D01*
X0187981Y0102341D02*
X0211055Y0102341D01*
X0211478Y0103339D02*
X0188518Y0103339D01*
X0189054Y0104338D02*
X0211900Y0104338D01*
X0212323Y0105336D02*
X0189591Y0105336D01*
X0190128Y0106335D02*
X0212745Y0106335D01*
X0213168Y0107333D02*
X0190664Y0107333D01*
X0191201Y0108332D02*
X0213446Y0108332D01*
X0213725Y0109330D02*
X0191694Y0109330D01*
X0191604Y0109081D02*
X0191604Y0109081D01*
X0192055Y0110329D02*
X0214003Y0110329D01*
X0214282Y0111327D02*
X0192416Y0111327D01*
X0192777Y0112326D02*
X0214560Y0112326D01*
X0214838Y0113324D02*
X0193138Y0113324D01*
X0207162Y0097348D02*
X0208943Y0097348D01*
X0208378Y0096350D02*
X0207284Y0096350D01*
X0207038Y0095351D02*
X0207794Y0095351D01*
X0207211Y0094353D02*
X0206290Y0094353D01*
X0205461Y0091357D02*
X0188295Y0091357D01*
X0151999Y0052415D02*
X0136400Y0052415D01*
X0136400Y0051417D02*
X0147454Y0051417D01*
X0143575Y0050418D02*
X0136400Y0050418D01*
X0136400Y0049420D02*
X0142854Y0049420D01*
X0142950Y0048421D02*
X0136400Y0048421D01*
X0136400Y0047423D02*
X0142950Y0047423D01*
X0142950Y0046424D02*
X0136400Y0046424D01*
X0136512Y0045426D02*
X0142950Y0045426D01*
X0142950Y0044427D02*
X0137130Y0044427D01*
X0137284Y0043429D02*
X0142950Y0043429D01*
X0142950Y0042430D02*
X0137070Y0042430D01*
X0136400Y0041432D02*
X0142950Y0041432D01*
X0142950Y0040433D02*
X0136400Y0040433D01*
X0136400Y0039434D02*
X0142950Y0039434D01*
X0142950Y0038436D02*
X0136400Y0038436D01*
X0136400Y0037437D02*
X0142950Y0037437D01*
X0142950Y0036439D02*
X0136400Y0036439D01*
X0136400Y0035440D02*
X0142950Y0035440D01*
X0142950Y0034442D02*
X0136400Y0034442D01*
X0136400Y0033443D02*
X0142905Y0033443D01*
X0142950Y0032445D02*
X0136400Y0032445D01*
X0136400Y0031446D02*
X0143854Y0031446D01*
X0141488Y0029449D02*
X0173674Y0029449D01*
X0176241Y0028451D02*
X0142120Y0028451D01*
X0142862Y0027452D02*
X0178809Y0027452D01*
X0181377Y0026454D02*
X0144277Y0026454D01*
X0145691Y0025455D02*
X0183919Y0025455D01*
X0184606Y0024457D02*
X0147106Y0024457D01*
X0148520Y0023458D02*
X0192090Y0023458D01*
X0190361Y0022460D02*
X0149935Y0022460D01*
X0151350Y0021461D02*
X0188178Y0021461D01*
X0185936Y0020463D02*
X0152764Y0020463D01*
X0154179Y0019464D02*
X0183693Y0019464D01*
X0181450Y0018466D02*
X0155593Y0018466D01*
X0158470Y0017467D02*
X0179208Y0017467D01*
X0176577Y0016469D02*
X0159112Y0016469D01*
X0159284Y0015470D02*
X0173504Y0015470D01*
X0170431Y0014472D02*
X0159088Y0014472D01*
X0158411Y0013473D02*
X0167358Y0013473D01*
X0163711Y0012475D02*
X0127089Y0012475D01*
X0126414Y0011476D02*
X0159013Y0011476D01*
X0146807Y0009479D02*
X0118193Y0009479D01*
X0120491Y0015470D02*
X0091496Y0015470D01*
X0090597Y0018466D02*
X0083550Y0018466D01*
X0085792Y0017467D02*
X0118893Y0017467D01*
X0119692Y0016469D02*
X0088423Y0016469D01*
X0089915Y0019464D02*
X0081307Y0019464D01*
X0079064Y0020463D02*
X0089716Y0020463D01*
X0089885Y0021461D02*
X0076822Y0021461D01*
X0074639Y0022460D02*
X0089638Y0022460D01*
X0089227Y0023458D02*
X0072910Y0023458D01*
X0071180Y0024457D02*
X0088816Y0024457D01*
X0088405Y0025455D02*
X0069451Y0025455D01*
X0067722Y0026454D02*
X0087994Y0026454D01*
X0087582Y0027452D02*
X0065992Y0027452D01*
X0064263Y0028451D02*
X0087171Y0028451D01*
X0086760Y0029449D02*
X0062697Y0029449D01*
X0061323Y0030448D02*
X0086349Y0030448D01*
X0085938Y0031446D02*
X0066384Y0031446D01*
X0067077Y0032445D02*
X0085527Y0032445D01*
X0085116Y0033443D02*
X0067284Y0033443D01*
X0067123Y0034442D02*
X0084704Y0034442D01*
X0083622Y0035440D02*
X0066497Y0035440D01*
X0065980Y0036439D02*
X0082926Y0036439D01*
X0082716Y0037437D02*
X0065831Y0037437D01*
X0065681Y0038436D02*
X0082874Y0038436D01*
X0083497Y0039434D02*
X0065531Y0039434D01*
X0061988Y0037437D02*
X0051871Y0037437D01*
X0050762Y0038436D02*
X0061838Y0038436D01*
X0061689Y0039434D02*
X0049653Y0039434D01*
X0048544Y0040433D02*
X0061539Y0040433D01*
X0061389Y0041432D02*
X0047435Y0041432D01*
X0046326Y0042430D02*
X0061239Y0042430D01*
X0061089Y0043429D02*
X0045217Y0043429D01*
X0044108Y0044427D02*
X0060940Y0044427D01*
X0062138Y0036439D02*
X0053077Y0036439D01*
X0054451Y0035440D02*
X0062288Y0035440D01*
X0061877Y0034442D02*
X0055825Y0034442D01*
X0057200Y0033443D02*
X0061716Y0033443D01*
X0061923Y0032445D02*
X0058574Y0032445D01*
X0059948Y0031446D02*
X0062616Y0031446D01*
X0058716Y0053414D02*
X0042351Y0053414D01*
X0043063Y0054412D02*
X0058864Y0054412D01*
X0059473Y0055411D02*
X0043284Y0055411D01*
X0068539Y0079375D02*
X0087688Y0079375D01*
X0087923Y0079140D02*
X0088094Y0079069D01*
X0091192Y0065129D01*
X0091140Y0065077D01*
X0090716Y0064054D01*
X0090716Y0062946D01*
X0091140Y0061923D01*
X0091923Y0061140D01*
X0092946Y0060716D01*
X0094054Y0060716D01*
X0095077Y0061140D01*
X0095860Y0061923D01*
X0096284Y0062946D01*
X0096284Y0064054D01*
X0095860Y0065077D01*
X0095077Y0065860D01*
X0094906Y0065931D01*
X0091808Y0079871D01*
X0091860Y0079923D01*
X0092284Y0080946D01*
X0092284Y0082054D01*
X0091860Y0083077D01*
X0091077Y0083860D01*
X0090054Y0084284D01*
X0088946Y0084284D01*
X0087923Y0083860D01*
X0087140Y0083077D01*
X0086716Y0082054D01*
X0086716Y0080946D01*
X0087140Y0079923D01*
X0087923Y0079140D01*
X0088248Y0078376D02*
X0069543Y0078376D01*
X0070546Y0077378D02*
X0088470Y0077378D01*
X0088692Y0076379D02*
X0071550Y0076379D01*
X0072554Y0075381D02*
X0088913Y0075381D01*
X0089135Y0074382D02*
X0073558Y0074382D01*
X0074562Y0073384D02*
X0089357Y0073384D01*
X0089579Y0072385D02*
X0075566Y0072385D01*
X0076660Y0071387D02*
X0089801Y0071387D01*
X0090023Y0070388D02*
X0077960Y0070388D01*
X0079261Y0069390D02*
X0090245Y0069390D01*
X0090467Y0068391D02*
X0080561Y0068391D01*
X0081861Y0067393D02*
X0090689Y0067393D01*
X0090910Y0066394D02*
X0083161Y0066394D01*
X0084461Y0065396D02*
X0091132Y0065396D01*
X0090858Y0064397D02*
X0086030Y0064397D01*
X0087746Y0063399D02*
X0090716Y0063399D01*
X0090942Y0062400D02*
X0089461Y0062400D01*
X0091177Y0061402D02*
X0091661Y0061402D01*
X0092892Y0060403D02*
X0117448Y0060403D01*
X0118135Y0059405D02*
X0094705Y0059405D01*
X0095339Y0061402D02*
X0116762Y0061402D01*
X0116075Y0062400D02*
X0096058Y0062400D01*
X0096284Y0063399D02*
X0115389Y0063399D01*
X0114702Y0064397D02*
X0096142Y0064397D01*
X0095542Y0065396D02*
X0114016Y0065396D01*
X0113329Y0066394D02*
X0094803Y0066394D01*
X0094581Y0067393D02*
X0111670Y0067393D01*
X0111923Y0067140D02*
X0111140Y0067923D01*
X0110716Y0068946D01*
X0110716Y0070054D01*
X0111140Y0071077D01*
X0111923Y0071860D01*
X0112946Y0072284D01*
X0114054Y0072284D01*
X0115077Y0071860D01*
X0115860Y0071077D01*
X0116284Y0070054D01*
X0116284Y0068946D01*
X0116247Y0068857D01*
X0124892Y0056284D01*
X0125054Y0056284D01*
X0126077Y0055860D01*
X0126860Y0055077D01*
X0127284Y0054054D01*
X0127284Y0052946D01*
X0126860Y0051923D01*
X0126077Y0051140D01*
X0125054Y0050716D01*
X0123946Y0050716D01*
X0122923Y0051140D01*
X0122140Y0051923D01*
X0121716Y0052946D01*
X0121716Y0054054D01*
X0121753Y0054143D01*
X0113108Y0066716D01*
X0112946Y0066716D01*
X0111923Y0067140D01*
X0110946Y0068391D02*
X0094359Y0068391D01*
X0094137Y0069390D02*
X0110716Y0069390D01*
X0110854Y0070388D02*
X0093916Y0070388D01*
X0093694Y0071387D02*
X0111449Y0071387D01*
X0113705Y0073384D02*
X0093250Y0073384D01*
X0093028Y0074382D02*
X0110944Y0074382D01*
X0108183Y0075381D02*
X0092806Y0075381D01*
X0092584Y0076379D02*
X0105619Y0076379D01*
X0106023Y0076162D02*
X0106023Y0076162D01*
X0103762Y0077378D02*
X0092362Y0077378D01*
X0092140Y0078376D02*
X0101906Y0078376D01*
X0100049Y0079375D02*
X0091919Y0079375D01*
X0092047Y0080373D02*
X0098193Y0080373D01*
X0097669Y0080655D02*
X0097669Y0080655D01*
X0096706Y0081372D02*
X0092284Y0081372D01*
X0092153Y0082370D02*
X0095365Y0082370D01*
X0094024Y0083369D02*
X0091569Y0083369D01*
X0092682Y0084368D02*
X0072154Y0084368D01*
X0072284Y0084054D02*
X0071860Y0085077D01*
X0071698Y0085239D01*
X0074049Y0100128D01*
X0074077Y0100140D01*
X0074860Y0100923D01*
X0075284Y0101946D01*
X0075284Y0103054D01*
X0074860Y0104077D01*
X0074077Y0104860D01*
X0073054Y0105284D01*
X0071946Y0105284D01*
X0070923Y0104860D01*
X0070140Y0104077D01*
X0069716Y0103054D01*
X0069716Y0101946D01*
X0070140Y0100923D01*
X0070302Y0100761D01*
X0067951Y0085872D01*
X0067923Y0085860D01*
X0067140Y0085077D01*
X0066716Y0084054D01*
X0066716Y0082946D01*
X0067140Y0081923D01*
X0067923Y0081140D01*
X0068946Y0080716D01*
X0070054Y0080716D01*
X0071077Y0081140D01*
X0071860Y0081923D01*
X0072284Y0082946D01*
X0072284Y0084054D01*
X0072284Y0083369D02*
X0087431Y0083369D01*
X0086847Y0082370D02*
X0072046Y0082370D01*
X0071309Y0081372D02*
X0086716Y0081372D01*
X0086953Y0080373D02*
X0067761Y0080373D01*
X0067691Y0081372D02*
X0066985Y0081372D01*
X0066954Y0082370D02*
X0066210Y0082370D01*
X0066716Y0083369D02*
X0065434Y0083369D01*
X0064659Y0084368D02*
X0066846Y0084368D01*
X0067429Y0085366D02*
X0063883Y0085366D01*
X0063108Y0086365D02*
X0068029Y0086365D01*
X0068186Y0087363D02*
X0062332Y0087363D01*
X0061623Y0088362D02*
X0068344Y0088362D01*
X0068502Y0089360D02*
X0061035Y0089360D01*
X0060447Y0090359D02*
X0068659Y0090359D01*
X0068817Y0091357D02*
X0059858Y0091357D01*
X0059270Y0092356D02*
X0068975Y0092356D01*
X0069132Y0093354D02*
X0058681Y0093354D01*
X0058093Y0094353D02*
X0069290Y0094353D01*
X0069448Y0095351D02*
X0057504Y0095351D01*
X0056916Y0096350D02*
X0069605Y0096350D01*
X0069763Y0097348D02*
X0056327Y0097348D01*
X0055890Y0098347D02*
X0069921Y0098347D01*
X0070078Y0099345D02*
X0055462Y0099345D01*
X0055034Y0100344D02*
X0070236Y0100344D01*
X0069966Y0101342D02*
X0054607Y0101342D01*
X0054179Y0102341D02*
X0069716Y0102341D01*
X0069834Y0103339D02*
X0053751Y0103339D01*
X0053323Y0104338D02*
X0070400Y0104338D01*
X0074600Y0104338D02*
X0075739Y0104338D01*
X0075204Y0105336D02*
X0052895Y0105336D01*
X0052468Y0106335D02*
X0074670Y0106335D01*
X0074135Y0107333D02*
X0052040Y0107333D01*
X0051741Y0108332D02*
X0073601Y0108332D01*
X0073121Y0109330D02*
X0056768Y0109330D01*
X0057529Y0110329D02*
X0072763Y0110329D01*
X0072404Y0111327D02*
X0057784Y0111327D01*
X0057700Y0112326D02*
X0072045Y0112326D01*
X0071686Y0113324D02*
X0058293Y0113324D01*
X0058886Y0114323D02*
X0071327Y0114323D01*
X0070969Y0115321D02*
X0059479Y0115321D01*
X0060071Y0116320D02*
X0070610Y0116320D01*
X0070251Y0117318D02*
X0060664Y0117318D01*
X0061257Y0118317D02*
X0069951Y0118317D01*
X0069750Y0119315D02*
X0061850Y0119315D01*
X0062443Y0120314D02*
X0069549Y0120314D01*
X0069348Y0121312D02*
X0063036Y0121312D01*
X0063629Y0122311D02*
X0069050Y0122311D01*
X0068947Y0123309D02*
X0064222Y0123309D01*
X0064814Y0124308D02*
X0069508Y0124308D01*
X0060395Y0124308D02*
X0047680Y0124308D01*
X0048050Y0123309D02*
X0059802Y0123309D01*
X0059209Y0122311D02*
X0048209Y0122311D01*
X0048392Y0121312D02*
X0058616Y0121312D01*
X0058024Y0120314D02*
X0048575Y0120314D01*
X0048758Y0119315D02*
X0057431Y0119315D01*
X0056838Y0118317D02*
X0048941Y0118317D01*
X0049186Y0117318D02*
X0056245Y0117318D01*
X0055652Y0116320D02*
X0049470Y0116320D01*
X0049754Y0115321D02*
X0055059Y0115321D01*
X0054466Y0114323D02*
X0050038Y0114323D01*
X0050322Y0113324D02*
X0052887Y0113324D01*
X0052328Y0112326D02*
X0050605Y0112326D01*
X0050889Y0111327D02*
X0052216Y0111327D01*
X0052471Y0110329D02*
X0051173Y0110329D01*
X0051457Y0109330D02*
X0053232Y0109330D01*
X0072506Y0090359D02*
X0086029Y0090359D01*
X0085033Y0091357D02*
X0072664Y0091357D01*
X0072822Y0092356D02*
X0084036Y0092356D01*
X0083122Y0093354D02*
X0072979Y0093354D01*
X0073137Y0094353D02*
X0082382Y0094353D01*
X0081641Y0095351D02*
X0073295Y0095351D01*
X0073452Y0096350D02*
X0080901Y0096350D01*
X0080161Y0097348D02*
X0073610Y0097348D01*
X0073768Y0098347D02*
X0079421Y0098347D01*
X0078681Y0099345D02*
X0073925Y0099345D01*
X0074281Y0100344D02*
X0077941Y0100344D01*
X0077710Y0100655D02*
X0077710Y0100655D01*
X0077342Y0101342D02*
X0075034Y0101342D01*
X0075284Y0102341D02*
X0076808Y0102341D01*
X0076273Y0103339D02*
X0075166Y0103339D01*
X0072349Y0089360D02*
X0087026Y0089360D01*
X0088022Y0088362D02*
X0072191Y0088362D01*
X0072033Y0087363D02*
X0089019Y0087363D01*
X0090015Y0086365D02*
X0071876Y0086365D01*
X0071718Y0085366D02*
X0091341Y0085366D01*
X0090060Y0086320D02*
X0090060Y0086320D01*
X0090060Y0086320D01*
X0093472Y0072385D02*
X0117652Y0072385D01*
X0115551Y0071387D02*
X0128600Y0071387D01*
X0128600Y0072385D02*
X0121284Y0072385D01*
X0122050Y0073384D02*
X0128600Y0073384D01*
X0128600Y0074382D02*
X0122170Y0074382D01*
X0122050Y0075381D02*
X0128600Y0075381D01*
X0128600Y0076379D02*
X0122050Y0076379D01*
X0122050Y0077378D02*
X0128600Y0077378D01*
X0128600Y0078376D02*
X0122050Y0078376D01*
X0122050Y0079375D02*
X0128600Y0079375D01*
X0128600Y0080373D02*
X0122050Y0080373D01*
X0122050Y0081372D02*
X0128600Y0081372D01*
X0128600Y0082370D02*
X0122050Y0082370D01*
X0122050Y0083369D02*
X0128600Y0083369D01*
X0128600Y0084368D02*
X0122050Y0084368D01*
X0122050Y0085366D02*
X0128600Y0085366D01*
X0128600Y0086365D02*
X0122050Y0086365D01*
X0122050Y0087363D02*
X0128600Y0087363D01*
X0128600Y0088362D02*
X0122050Y0088362D01*
X0122050Y0089360D02*
X0128600Y0089360D01*
X0128600Y0090359D02*
X0122050Y0090359D01*
X0122050Y0091357D02*
X0128205Y0091357D01*
X0127753Y0092356D02*
X0122050Y0092356D01*
X0122050Y0093354D02*
X0127716Y0093354D01*
X0128047Y0094353D02*
X0122050Y0094353D01*
X0122050Y0095351D02*
X0128914Y0095351D01*
X0132086Y0095351D02*
X0132914Y0095351D01*
X0114944Y0072936D02*
X0114944Y0072936D01*
X0116146Y0070388D02*
X0128600Y0070388D01*
X0128600Y0069390D02*
X0116284Y0069390D01*
X0116568Y0068391D02*
X0128600Y0068391D01*
X0128600Y0067393D02*
X0117254Y0067393D01*
X0117941Y0066394D02*
X0128600Y0066394D01*
X0128600Y0065396D02*
X0118627Y0065396D01*
X0119314Y0064397D02*
X0128600Y0064397D01*
X0128600Y0063399D02*
X0120000Y0063399D01*
X0120687Y0062400D02*
X0128600Y0062400D01*
X0128600Y0061402D02*
X0121373Y0061402D01*
X0122060Y0060403D02*
X0128600Y0060403D01*
X0128600Y0059405D02*
X0122746Y0059405D01*
X0123433Y0058406D02*
X0128600Y0058406D01*
X0128600Y0057408D02*
X0124119Y0057408D01*
X0124806Y0056409D02*
X0128600Y0056409D01*
X0128600Y0055411D02*
X0126527Y0055411D01*
X0127136Y0054412D02*
X0128600Y0054412D01*
X0128600Y0053414D02*
X0127284Y0053414D01*
X0127064Y0052415D02*
X0128600Y0052415D01*
X0128600Y0051417D02*
X0126354Y0051417D01*
X0128600Y0050418D02*
X0121881Y0050418D01*
X0122074Y0049420D02*
X0128600Y0049420D01*
X0128600Y0048421D02*
X0122050Y0048421D01*
X0122050Y0047423D02*
X0128600Y0047423D01*
X0128600Y0046424D02*
X0122050Y0046424D01*
X0122050Y0045426D02*
X0128488Y0045426D01*
X0127870Y0044427D02*
X0122050Y0044427D01*
X0122050Y0043429D02*
X0127716Y0043429D01*
X0127930Y0042430D02*
X0122050Y0042430D01*
X0122050Y0041432D02*
X0128600Y0041432D01*
X0128600Y0040433D02*
X0122050Y0040433D01*
X0122050Y0039434D02*
X0128600Y0039434D01*
X0128600Y0038436D02*
X0122050Y0038436D01*
X0122050Y0037437D02*
X0128600Y0037437D01*
X0128600Y0036439D02*
X0122050Y0036439D01*
X0122050Y0035440D02*
X0128600Y0035440D01*
X0128600Y0034442D02*
X0122050Y0034442D01*
X0122083Y0033443D02*
X0128600Y0033443D01*
X0128600Y0032445D02*
X0122044Y0032445D01*
X0121046Y0031446D02*
X0128600Y0031446D01*
X0128600Y0030448D02*
X0114490Y0030448D01*
X0115120Y0029449D02*
X0128600Y0029449D01*
X0128600Y0028451D02*
X0115284Y0028451D01*
X0115771Y0027452D02*
X0128600Y0027452D01*
X0128600Y0026454D02*
X0116570Y0026454D01*
X0117369Y0025455D02*
X0128600Y0025455D01*
X0128600Y0024457D02*
X0118168Y0024457D01*
X0118967Y0023458D02*
X0128600Y0023458D01*
X0128600Y0022460D02*
X0119765Y0022460D01*
X0120564Y0021461D02*
X0128524Y0021461D01*
X0127885Y0020463D02*
X0121363Y0020463D01*
X0122162Y0019464D02*
X0127716Y0019464D01*
X0127915Y0018466D02*
X0122961Y0018466D01*
X0123759Y0017467D02*
X0128595Y0017467D01*
X0132405Y0017467D02*
X0132595Y0017467D01*
X0132500Y0008500D02*
X0132500Y0008500D01*
X0118269Y0031446D02*
X0090047Y0031446D01*
X0111218Y0053414D02*
X0121716Y0053414D01*
X0121567Y0054412D02*
X0107632Y0054412D01*
X0104169Y0055411D02*
X0120881Y0055411D01*
X0120194Y0056409D02*
X0101803Y0056409D01*
X0099437Y0057408D02*
X0119508Y0057408D01*
X0118821Y0058406D02*
X0097071Y0058406D01*
X0114804Y0052415D02*
X0121936Y0052415D01*
X0122646Y0051417D02*
X0120882Y0051417D01*
X0147543Y0031446D02*
X0166616Y0031446D01*
X0165923Y0032445D02*
X0153599Y0032445D01*
X0157631Y0033443D02*
X0165716Y0033443D01*
X0165877Y0034442D02*
X0161664Y0034442D01*
X0165060Y0035440D02*
X0166503Y0035440D01*
X0167686Y0036439D02*
X0211923Y0036439D01*
X0207800Y0033443D02*
X0173888Y0033443D01*
X0176455Y0032445D02*
X0206426Y0032445D01*
X0205052Y0031446D02*
X0179023Y0031446D01*
X0181590Y0030448D02*
X0203677Y0030448D01*
X0202303Y0029449D02*
X0184158Y0029449D01*
X0188487Y0028451D02*
X0200737Y0028451D01*
X0199008Y0027452D02*
X0189119Y0027452D01*
X0189284Y0026454D02*
X0197278Y0026454D01*
X0195549Y0025455D02*
X0189081Y0025455D01*
X0188394Y0024457D02*
X0193820Y0024457D01*
X0232301Y0087363D02*
X0249896Y0087363D01*
X0250341Y0088362D02*
X0233042Y0088362D01*
X0235812Y0089360D02*
X0250785Y0089360D01*
X0251185Y0090359D02*
X0238641Y0090359D01*
X0241470Y0091357D02*
X0251510Y0091357D01*
X0251834Y0092356D02*
X0244300Y0092356D01*
X0249292Y0093354D02*
X0252159Y0093354D01*
X0252483Y0094353D02*
X0250038Y0094353D01*
X0250284Y0095351D02*
X0252808Y0095351D01*
X0253132Y0096350D02*
X0250162Y0096350D01*
X0249589Y0097348D02*
X0253456Y0097348D01*
X0236738Y0113324D02*
X0235199Y0113324D01*
X0235445Y0114323D02*
X0235974Y0114323D01*
X0235716Y0115321D02*
X0235691Y0115321D01*
X0236075Y0117318D02*
X0236381Y0117318D01*
X0236196Y0118317D02*
X0239244Y0118317D01*
X0240696Y0119315D02*
X0236317Y0119315D01*
X0236439Y0120314D02*
X0242148Y0120314D01*
X0243601Y0121312D02*
X0236560Y0121312D01*
X0236750Y0122311D02*
X0245053Y0122311D01*
X0246505Y0123309D02*
X0236803Y0123309D01*
X0236291Y0124308D02*
X0247958Y0124308D01*
X0226054Y0140284D02*
X0224946Y0140284D01*
X0175554Y0140284D01*
X0174446Y0140284D01*
X0175554Y0140284D02*
X0176577Y0139860D01*
X0177038Y0139400D01*
X0223462Y0139400D01*
X0223923Y0139860D01*
X0224946Y0140284D01*
X0218026Y0146275D02*
X0204714Y0146275D01*
X0205400Y0147274D02*
X0217150Y0147274D01*
X0217075Y0148272D02*
X0206087Y0148272D01*
X0206773Y0149271D02*
X0216904Y0149271D01*
X0216733Y0150269D02*
X0207460Y0150269D01*
X0208146Y0151268D02*
X0216562Y0151268D01*
X0216391Y0152266D02*
X0208833Y0152266D01*
X0209519Y0153265D02*
X0216209Y0153265D01*
X0215937Y0154263D02*
X0210205Y0154263D01*
X0210892Y0155262D02*
X0215664Y0155262D01*
X0215392Y0156260D02*
X0211578Y0156260D01*
X0213196Y0157259D02*
X0215120Y0157259D01*
X0214847Y0158257D02*
X0213999Y0158257D01*
X0214284Y0159256D02*
X0214575Y0159256D01*
X0214302Y0160254D02*
X0214201Y0160254D01*
X0214030Y0161253D02*
X0213685Y0161253D01*
X0212312Y0166245D02*
X0194183Y0166245D01*
X0194993Y0167244D02*
X0211895Y0167244D01*
X0211478Y0168242D02*
X0195284Y0168242D01*
X0195207Y0169241D02*
X0211062Y0169241D01*
X0210645Y0170239D02*
X0194698Y0170239D01*
X0194856Y0171238D02*
X0210228Y0171238D01*
X0209811Y0172237D02*
X0195013Y0172237D01*
X0195171Y0173235D02*
X0209395Y0173235D01*
X0208932Y0174234D02*
X0195329Y0174234D01*
X0195486Y0175232D02*
X0208354Y0175232D01*
X0207777Y0176231D02*
X0195644Y0176231D01*
X0195802Y0177229D02*
X0207199Y0177229D01*
X0206621Y0178228D02*
X0195959Y0178228D01*
X0196117Y0179226D02*
X0206043Y0179226D01*
X0205466Y0180225D02*
X0196275Y0180225D01*
X0196432Y0181223D02*
X0204888Y0181223D01*
X0204310Y0182222D02*
X0196590Y0182222D01*
X0196748Y0183220D02*
X0203733Y0183220D01*
X0203018Y0184219D02*
X0196905Y0184219D01*
X0197155Y0185217D02*
X0202253Y0185217D01*
X0201488Y0186216D02*
X0197982Y0186216D01*
X0198284Y0187214D02*
X0200723Y0187214D01*
X0199958Y0188213D02*
X0198218Y0188213D01*
X0197726Y0189211D02*
X0199194Y0189211D01*
X0213701Y0202192D02*
X0220475Y0202192D01*
X0220633Y0203190D02*
X0212816Y0203190D01*
X0211931Y0204189D02*
X0220791Y0204189D01*
X0220948Y0205187D02*
X0211046Y0205187D01*
X0210162Y0206186D02*
X0221106Y0206186D01*
X0221263Y0207184D02*
X0209277Y0207184D01*
X0208392Y0208183D02*
X0221421Y0208183D01*
X0221579Y0209181D02*
X0207507Y0209181D01*
X0206551Y0210180D02*
X0221736Y0210180D01*
X0221894Y0211178D02*
X0205424Y0211178D01*
X0204297Y0212177D02*
X0222052Y0212177D01*
X0222209Y0213175D02*
X0203170Y0213175D01*
X0202043Y0214174D02*
X0222036Y0214174D01*
X0222140Y0213923D02*
X0222302Y0213761D01*
X0219951Y0198872D01*
X0219923Y0198860D01*
X0219140Y0198077D01*
X0218716Y0197054D01*
X0218716Y0195946D01*
X0219140Y0194923D01*
X0219923Y0194140D01*
X0220946Y0193716D01*
X0222054Y0193716D01*
X0223077Y0194140D01*
X0223860Y0194923D01*
X0224284Y0195946D01*
X0224284Y0197054D01*
X0223860Y0198077D01*
X0223698Y0198239D01*
X0226049Y0213128D01*
X0226077Y0213140D01*
X0226860Y0213923D01*
X0227284Y0214946D01*
X0227284Y0216054D01*
X0226860Y0217077D01*
X0226077Y0217860D01*
X0225054Y0218284D01*
X0223946Y0218284D01*
X0222923Y0217860D01*
X0222140Y0217077D01*
X0221716Y0216054D01*
X0221716Y0214946D01*
X0222140Y0213923D01*
X0221716Y0215172D02*
X0200917Y0215172D01*
X0199790Y0216171D02*
X0221764Y0216171D01*
X0222232Y0217170D02*
X0205107Y0217170D01*
X0205077Y0217140D02*
X0205860Y0217923D01*
X0206284Y0218946D01*
X0206284Y0220054D01*
X0205860Y0221077D01*
X0205077Y0221860D01*
X0204807Y0221972D01*
X0201877Y0232962D01*
X0202284Y0233946D01*
X0202284Y0235054D01*
X0201860Y0236077D01*
X0201077Y0236860D01*
X0200054Y0237284D01*
X0198946Y0237284D01*
X0197923Y0236860D01*
X0197140Y0236077D01*
X0196716Y0235054D01*
X0196716Y0233946D01*
X0197140Y0232923D01*
X0197923Y0232140D01*
X0198193Y0232028D01*
X0201123Y0221038D01*
X0200716Y0220054D01*
X0200716Y0218946D01*
X0201140Y0217923D01*
X0201923Y0217140D01*
X0202946Y0216716D01*
X0204054Y0216716D01*
X0205077Y0217140D01*
X0205962Y0218168D02*
X0223666Y0218168D01*
X0225334Y0218168D02*
X0228727Y0218168D01*
X0229626Y0217170D02*
X0226768Y0217170D01*
X0227236Y0216171D02*
X0230525Y0216171D01*
X0231380Y0215172D02*
X0227284Y0215172D01*
X0226964Y0214174D02*
X0232105Y0214174D01*
X0232831Y0213175D02*
X0226113Y0213175D01*
X0225899Y0212177D02*
X0233556Y0212177D01*
X0234282Y0211178D02*
X0225741Y0211178D01*
X0225584Y0210180D02*
X0235007Y0210180D01*
X0235733Y0209181D02*
X0225426Y0209181D01*
X0225268Y0208183D02*
X0236458Y0208183D01*
X0237184Y0207184D02*
X0225111Y0207184D01*
X0224953Y0206186D02*
X0237909Y0206186D01*
X0238635Y0205187D02*
X0224795Y0205187D01*
X0224638Y0204189D02*
X0239288Y0204189D01*
X0239865Y0203190D02*
X0224480Y0203190D01*
X0224322Y0202192D02*
X0240441Y0202192D01*
X0241018Y0201193D02*
X0224165Y0201193D01*
X0224007Y0200195D02*
X0241594Y0200195D01*
X0242171Y0199196D02*
X0223849Y0199196D01*
X0223740Y0198198D02*
X0242747Y0198198D01*
X0243324Y0197199D02*
X0224224Y0197199D01*
X0224284Y0196201D02*
X0243900Y0196201D01*
X0244477Y0195202D02*
X0223976Y0195202D01*
X0223141Y0194204D02*
X0245053Y0194204D01*
X0245630Y0193205D02*
X0220260Y0193205D01*
X0219859Y0194204D02*
X0219570Y0194204D01*
X0219024Y0195202D02*
X0218881Y0195202D01*
X0218716Y0196201D02*
X0218191Y0196201D01*
X0218776Y0197199D02*
X0217501Y0197199D01*
X0216812Y0198198D02*
X0219260Y0198198D01*
X0220002Y0199196D02*
X0216122Y0199196D01*
X0215432Y0200195D02*
X0220160Y0200195D01*
X0220318Y0201193D02*
X0214586Y0201193D01*
X0201893Y0217170D02*
X0198663Y0217170D01*
X0197536Y0218168D02*
X0201038Y0218168D01*
X0200716Y0219167D02*
X0196132Y0219167D01*
X0194686Y0220165D02*
X0200762Y0220165D01*
X0201090Y0221164D02*
X0193241Y0221164D01*
X0191795Y0222162D02*
X0200824Y0222162D01*
X0200557Y0223161D02*
X0190349Y0223161D01*
X0188903Y0224159D02*
X0200291Y0224159D01*
X0200025Y0225158D02*
X0187458Y0225158D01*
X0185717Y0226156D02*
X0199759Y0226156D01*
X0199492Y0227155D02*
X0183817Y0227155D01*
X0181917Y0228153D02*
X0199226Y0228153D01*
X0198960Y0229152D02*
X0180016Y0229152D01*
X0178116Y0230150D02*
X0198694Y0230150D01*
X0198427Y0231149D02*
X0176216Y0231149D01*
X0177923Y0233140D02*
X0177140Y0233923D01*
X0176716Y0234946D01*
X0176716Y0236054D01*
X0176801Y0236260D01*
X0170982Y0245716D01*
X0170946Y0245716D01*
X0169923Y0246140D01*
X0169140Y0246923D01*
X0168716Y0247946D01*
X0168716Y0249054D01*
X0169140Y0250077D01*
X0169923Y0250860D01*
X0170946Y0251284D01*
X0172054Y0251284D01*
X0173077Y0250860D01*
X0173860Y0250077D01*
X0174284Y0249054D01*
X0174284Y0247946D01*
X0174199Y0247740D01*
X0180018Y0238284D01*
X0180054Y0238284D01*
X0181077Y0237860D01*
X0181860Y0237077D01*
X0182284Y0236054D01*
X0182284Y0234946D01*
X0181860Y0233923D01*
X0181077Y0233140D01*
X0180054Y0232716D01*
X0178946Y0232716D01*
X0177923Y0233140D01*
X0177917Y0233146D02*
X0171151Y0233146D01*
X0168524Y0234144D02*
X0177048Y0234144D01*
X0176716Y0235143D02*
X0165896Y0235143D01*
X0162952Y0236141D02*
X0176752Y0236141D01*
X0176260Y0237140D02*
X0158916Y0237140D01*
X0154880Y0238138D02*
X0175646Y0238138D01*
X0175031Y0239137D02*
X0150130Y0239137D01*
X0143509Y0239137D02*
X0130400Y0239137D01*
X0130400Y0239287D02*
X0130357Y0239330D01*
X0130353Y0239391D01*
X0129806Y0239881D01*
X0129287Y0240400D01*
X0129226Y0240400D01*
X0112284Y0255558D01*
X0112284Y0256054D01*
X0111860Y0257077D01*
X0111077Y0257860D01*
X0110054Y0258284D01*
X0108946Y0258284D01*
X0107923Y0257860D01*
X0107140Y0257077D01*
X0106716Y0256054D01*
X0106716Y0254946D01*
X0107140Y0253923D01*
X0107923Y0253140D01*
X0108946Y0252716D01*
X0109762Y0252716D01*
X0126600Y0237650D01*
X0126600Y0210538D01*
X0126140Y0210077D01*
X0125716Y0209054D01*
X0125716Y0207946D01*
X0126140Y0206923D01*
X0126923Y0206140D01*
X0127946Y0205716D01*
X0129054Y0205716D01*
X0130077Y0206140D01*
X0130860Y0206923D01*
X0131284Y0207946D01*
X0131284Y0209054D01*
X0130860Y0210077D01*
X0130400Y0210538D01*
X0130400Y0237774D01*
X0130441Y0237820D01*
X0130400Y0238553D01*
X0130400Y0239287D01*
X0130423Y0238138D02*
X0142950Y0238138D01*
X0142866Y0237140D02*
X0130400Y0237140D01*
X0130400Y0236141D02*
X0142950Y0236141D01*
X0142950Y0235143D02*
X0130400Y0235143D01*
X0130400Y0234144D02*
X0142950Y0234144D01*
X0142950Y0233146D02*
X0130400Y0233146D01*
X0130400Y0232147D02*
X0142950Y0232147D01*
X0142950Y0231149D02*
X0130400Y0231149D01*
X0130400Y0230150D02*
X0142950Y0230150D01*
X0142950Y0229152D02*
X0130400Y0229152D01*
X0130400Y0228153D02*
X0142950Y0228153D01*
X0142950Y0227155D02*
X0130400Y0227155D01*
X0130400Y0226156D02*
X0142950Y0226156D01*
X0142950Y0225158D02*
X0130400Y0225158D01*
X0130400Y0224159D02*
X0142950Y0224159D01*
X0142950Y0223161D02*
X0130400Y0223161D01*
X0130400Y0222162D02*
X0142866Y0222162D01*
X0143515Y0221164D02*
X0130400Y0221164D01*
X0130400Y0220165D02*
X0147006Y0220165D01*
X0144769Y0218168D02*
X0155320Y0218168D01*
X0151736Y0219167D02*
X0143338Y0219167D01*
X0141662Y0219167D02*
X0130400Y0219167D01*
X0130400Y0218168D02*
X0140231Y0218168D01*
X0139764Y0217170D02*
X0130400Y0217170D01*
X0130400Y0216171D02*
X0139716Y0216171D01*
X0140036Y0215172D02*
X0130400Y0215172D01*
X0130400Y0214174D02*
X0140888Y0214174D01*
X0142279Y0213175D02*
X0130400Y0213175D01*
X0130400Y0212177D02*
X0142878Y0212177D01*
X0143477Y0211178D02*
X0130400Y0211178D01*
X0130758Y0210180D02*
X0144076Y0210180D01*
X0144675Y0209181D02*
X0131231Y0209181D01*
X0131284Y0208183D02*
X0145274Y0208183D01*
X0145874Y0207184D02*
X0130969Y0207184D01*
X0130123Y0206186D02*
X0146473Y0206186D01*
X0147072Y0205187D02*
X0121500Y0205187D01*
X0122498Y0204189D02*
X0147671Y0204189D01*
X0148270Y0203190D02*
X0123497Y0203190D01*
X0124495Y0202192D02*
X0148773Y0202192D01*
X0148716Y0201193D02*
X0125494Y0201193D01*
X0126492Y0200195D02*
X0149027Y0200195D01*
X0149866Y0199196D02*
X0127491Y0199196D01*
X0121118Y0200195D02*
X0082743Y0200195D01*
X0081273Y0201193D02*
X0120120Y0201193D01*
X0118123Y0203190D02*
X0079990Y0203190D01*
X0081278Y0204189D02*
X0117124Y0204189D01*
X0116126Y0205187D02*
X0082567Y0205187D01*
X0083856Y0206186D02*
X0115127Y0206186D01*
X0114129Y0207184D02*
X0085316Y0207184D01*
X0087019Y0208183D02*
X0113130Y0208183D01*
X0112132Y0209181D02*
X0088723Y0209181D01*
X0090426Y0210180D02*
X0111133Y0210180D01*
X0110135Y0211178D02*
X0092130Y0211178D01*
X0093833Y0212177D02*
X0109136Y0212177D01*
X0106887Y0213175D02*
X0096078Y0213175D01*
X0098432Y0214174D02*
X0106328Y0214174D01*
X0106216Y0215172D02*
X0100785Y0215172D01*
X0103139Y0216171D02*
X0106471Y0216171D01*
X0106134Y0217170D02*
X0107232Y0217170D01*
X0109709Y0218168D02*
X0126600Y0218168D01*
X0126600Y0217170D02*
X0110768Y0217170D01*
X0111529Y0216171D02*
X0126600Y0216171D01*
X0126600Y0215172D02*
X0111784Y0215172D01*
X0112513Y0214174D02*
X0126600Y0214174D01*
X0126600Y0213175D02*
X0113512Y0213175D01*
X0114510Y0212177D02*
X0126600Y0212177D01*
X0126600Y0211178D02*
X0115509Y0211178D01*
X0116507Y0210180D02*
X0126242Y0210180D01*
X0125769Y0209181D02*
X0117506Y0209181D01*
X0118504Y0208183D02*
X0125716Y0208183D01*
X0126031Y0207184D02*
X0119503Y0207184D01*
X0120501Y0206186D02*
X0126877Y0206186D01*
X0126600Y0219167D02*
X0113285Y0219167D01*
X0118005Y0220165D02*
X0126600Y0220165D01*
X0126600Y0221164D02*
X0121486Y0221164D01*
X0122134Y0222162D02*
X0126600Y0222162D01*
X0126600Y0223161D02*
X0122050Y0223161D01*
X0122050Y0224159D02*
X0126600Y0224159D01*
X0126600Y0225158D02*
X0122050Y0225158D01*
X0122050Y0226156D02*
X0126600Y0226156D01*
X0126600Y0227155D02*
X0122050Y0227155D01*
X0122050Y0228153D02*
X0126600Y0228153D01*
X0126600Y0229152D02*
X0122050Y0229152D01*
X0122050Y0230150D02*
X0126600Y0230150D01*
X0126600Y0231149D02*
X0122050Y0231149D01*
X0122050Y0232147D02*
X0126600Y0232147D01*
X0126600Y0233146D02*
X0122050Y0233146D01*
X0122050Y0234144D02*
X0126600Y0234144D01*
X0126600Y0235143D02*
X0122050Y0235143D01*
X0122050Y0236141D02*
X0126600Y0236141D01*
X0126600Y0237140D02*
X0122086Y0237140D01*
X0122050Y0238138D02*
X0126055Y0238138D01*
X0124939Y0239137D02*
X0121619Y0239137D01*
X0122707Y0241134D02*
X0097417Y0241134D01*
X0097054Y0241284D02*
X0095946Y0241284D01*
X0095198Y0240974D01*
X0082052Y0245614D01*
X0081860Y0246077D01*
X0081077Y0246860D01*
X0080054Y0247284D01*
X0078946Y0247284D01*
X0077923Y0246860D01*
X0077140Y0246077D01*
X0076716Y0245054D01*
X0076716Y0243946D01*
X0077140Y0242923D01*
X0077923Y0242140D01*
X0078946Y0241716D01*
X0080054Y0241716D01*
X0080802Y0242026D01*
X0093948Y0237386D01*
X0094140Y0236923D01*
X0094923Y0236140D01*
X0095946Y0235716D01*
X0097054Y0235716D01*
X0098077Y0236140D01*
X0098860Y0236923D01*
X0099284Y0237946D01*
X0099284Y0239054D01*
X0098860Y0240077D01*
X0098077Y0240860D01*
X0097054Y0241284D01*
X0095583Y0241134D02*
X0094746Y0241134D01*
X0091917Y0242132D02*
X0121591Y0242132D01*
X0120475Y0243131D02*
X0089088Y0243131D01*
X0086259Y0244129D02*
X0119359Y0244129D01*
X0118243Y0245128D02*
X0083430Y0245128D01*
X0081811Y0246126D02*
X0117127Y0246126D01*
X0116011Y0247125D02*
X0080439Y0247125D01*
X0078561Y0247125D02*
X0072188Y0247125D01*
X0073917Y0248123D02*
X0114895Y0248123D01*
X0113779Y0249122D02*
X0075885Y0249122D01*
X0078128Y0250120D02*
X0112663Y0250120D01*
X0111547Y0251119D02*
X0080371Y0251119D01*
X0082614Y0252117D02*
X0110431Y0252117D01*
X0107980Y0253116D02*
X0084856Y0253116D01*
X0087140Y0254114D02*
X0107060Y0254114D01*
X0106716Y0255113D02*
X0090213Y0255113D01*
X0093286Y0256111D02*
X0106740Y0256111D01*
X0107172Y0257110D02*
X0096360Y0257110D01*
X0099433Y0258108D02*
X0108522Y0258108D01*
X0110478Y0258108D02*
X0119171Y0258108D01*
X0118739Y0257110D02*
X0111828Y0257110D01*
X0112260Y0256111D02*
X0118716Y0256111D01*
X0119061Y0255113D02*
X0112782Y0255113D01*
X0113898Y0254114D02*
X0119900Y0254114D01*
X0119900Y0253116D02*
X0115014Y0253116D01*
X0116130Y0252117D02*
X0119900Y0252117D01*
X0118362Y0250120D02*
X0126743Y0250120D01*
X0126716Y0249122D02*
X0119478Y0249122D01*
X0120594Y0248123D02*
X0127057Y0248123D01*
X0127959Y0247125D02*
X0121710Y0247125D01*
X0122826Y0246126D02*
X0169955Y0246126D01*
X0169056Y0247125D02*
X0135041Y0247125D01*
X0135943Y0248123D02*
X0168716Y0248123D01*
X0168744Y0249122D02*
X0136284Y0249122D01*
X0136257Y0250120D02*
X0169183Y0250120D01*
X0170547Y0251119D02*
X0144216Y0251119D01*
X0144170Y0251039D02*
X0144368Y0251381D01*
X0144470Y0251763D01*
X0144470Y0256460D01*
X0140970Y0256460D01*
X0140970Y0250460D01*
X0143167Y0250460D01*
X0143549Y0250562D01*
X0143891Y0250760D01*
X0144170Y0251039D01*
X0144470Y0252117D02*
X0182386Y0252117D01*
X0180144Y0253116D02*
X0144470Y0253116D01*
X0144470Y0254114D02*
X0177860Y0254114D01*
X0174787Y0255113D02*
X0144470Y0255113D01*
X0144470Y0256111D02*
X0171713Y0256111D01*
X0168640Y0257110D02*
X0140970Y0257110D01*
X0140970Y0256111D02*
X0139970Y0256111D01*
X0139970Y0255113D02*
X0140970Y0255113D01*
X0140970Y0254114D02*
X0139970Y0254114D01*
X0139970Y0253116D02*
X0140970Y0253116D01*
X0140970Y0252117D02*
X0139970Y0252117D01*
X0139970Y0251119D02*
X0140970Y0251119D01*
X0136724Y0251119D02*
X0135819Y0251119D01*
X0135400Y0252117D02*
X0136470Y0252117D01*
X0136470Y0253116D02*
X0135400Y0253116D01*
X0135400Y0254114D02*
X0136470Y0254114D01*
X0136470Y0255113D02*
X0135400Y0255113D01*
X0135400Y0256111D02*
X0136470Y0256111D01*
X0135100Y0257110D02*
X0139970Y0257110D01*
X0144470Y0258108D02*
X0165567Y0258108D01*
X0160974Y0259107D02*
X0144470Y0259107D01*
X0144470Y0260105D02*
X0156276Y0260105D01*
X0150773Y0261104D02*
X0144470Y0261104D01*
X0136470Y0261104D02*
X0135100Y0261104D01*
X0135100Y0260105D02*
X0136470Y0260105D01*
X0136470Y0259107D02*
X0135100Y0259107D01*
X0135100Y0258108D02*
X0136470Y0258108D01*
X0136470Y0262103D02*
X0135100Y0262103D01*
X0127900Y0262103D02*
X0127100Y0262103D01*
X0127100Y0261104D02*
X0127900Y0261104D01*
X0127900Y0260105D02*
X0127100Y0260105D01*
X0127100Y0259107D02*
X0127900Y0259107D01*
X0127600Y0258108D02*
X0127100Y0258108D01*
X0127100Y0257110D02*
X0127600Y0257110D01*
X0127600Y0256111D02*
X0127100Y0256111D01*
X0127100Y0255113D02*
X0127600Y0255113D01*
X0127600Y0254114D02*
X0127100Y0254114D01*
X0127100Y0253116D02*
X0127600Y0253116D01*
X0127600Y0252117D02*
X0127100Y0252117D01*
X0127181Y0251119D02*
X0117246Y0251119D01*
X0119900Y0259107D02*
X0104026Y0259107D01*
X0108724Y0260105D02*
X0119900Y0260105D01*
X0119900Y0261104D02*
X0114227Y0261104D01*
X0123942Y0245128D02*
X0171344Y0245128D01*
X0171959Y0244129D02*
X0125058Y0244129D01*
X0126174Y0243131D02*
X0172573Y0243131D01*
X0173188Y0242132D02*
X0127290Y0242132D01*
X0128406Y0241134D02*
X0173802Y0241134D01*
X0174417Y0240135D02*
X0129552Y0240135D01*
X0123823Y0240135D02*
X0098802Y0240135D01*
X0099250Y0239137D02*
X0114055Y0239137D01*
X0113450Y0239063D02*
X0113450Y0239063D01*
X0109716Y0238138D02*
X0099284Y0238138D01*
X0098950Y0237140D02*
X0105682Y0237140D01*
X0101648Y0236141D02*
X0098079Y0236141D01*
X0098841Y0235143D02*
X0053877Y0235143D01*
X0052517Y0234144D02*
X0096215Y0234144D01*
X0094921Y0236141D02*
X0055252Y0236141D01*
X0056626Y0237140D02*
X0094050Y0237140D01*
X0091816Y0238138D02*
X0058000Y0238138D01*
X0059375Y0239137D02*
X0088987Y0239137D01*
X0086158Y0240135D02*
X0060749Y0240135D01*
X0062123Y0241134D02*
X0083329Y0241134D01*
X0077941Y0242132D02*
X0063541Y0242132D01*
X0065270Y0243131D02*
X0077053Y0243131D01*
X0076716Y0244129D02*
X0067000Y0244129D01*
X0068729Y0245128D02*
X0076746Y0245128D01*
X0077189Y0246126D02*
X0070459Y0246126D01*
X0069946Y0229284D02*
X0068923Y0228860D01*
X0068572Y0228510D01*
X0054654Y0229283D01*
X0054077Y0229860D01*
X0053054Y0230284D01*
X0051946Y0230284D01*
X0050923Y0229860D01*
X0050140Y0229077D01*
X0049716Y0228054D01*
X0049716Y0226946D01*
X0050140Y0225923D01*
X0050923Y0225140D01*
X0051946Y0224716D01*
X0053054Y0224716D01*
X0054077Y0225140D01*
X0054427Y0225490D01*
X0068346Y0224717D01*
X0068923Y0224140D01*
X0069946Y0223716D01*
X0071054Y0223716D01*
X0072077Y0224140D01*
X0072860Y0224923D01*
X0073284Y0225946D01*
X0073284Y0227054D01*
X0072860Y0228077D01*
X0072077Y0228860D01*
X0071054Y0229284D01*
X0069946Y0229284D01*
X0069626Y0229152D02*
X0057023Y0229152D01*
X0053378Y0230150D02*
X0086694Y0230150D01*
X0084796Y0229152D02*
X0071374Y0229152D01*
X0072784Y0228153D02*
X0082897Y0228153D01*
X0080998Y0227155D02*
X0073242Y0227155D01*
X0073284Y0226156D02*
X0079099Y0226156D01*
X0078024Y0225591D02*
X0078024Y0225591D01*
X0077398Y0225158D02*
X0072958Y0225158D01*
X0072097Y0224159D02*
X0075953Y0224159D01*
X0074509Y0223161D02*
X0040769Y0223161D01*
X0041668Y0224159D02*
X0068903Y0224159D01*
X0071620Y0221164D02*
X0038971Y0221164D01*
X0039870Y0222162D02*
X0073064Y0222162D01*
X0070176Y0220165D02*
X0038072Y0220165D01*
X0037173Y0219167D02*
X0068731Y0219167D01*
X0067581Y0218372D02*
X0067581Y0218372D01*
X0067352Y0218168D02*
X0036273Y0218168D01*
X0035374Y0217170D02*
X0066226Y0217170D01*
X0065100Y0216171D02*
X0034475Y0216171D01*
X0033620Y0215172D02*
X0063975Y0215172D01*
X0062849Y0214174D02*
X0032894Y0214174D01*
X0032169Y0213175D02*
X0061723Y0213175D01*
X0060597Y0212177D02*
X0031444Y0212177D01*
X0030718Y0211178D02*
X0059472Y0211178D01*
X0058346Y0210180D02*
X0029993Y0210180D01*
X0029267Y0209181D02*
X0047698Y0209181D01*
X0047946Y0209284D02*
X0046923Y0208860D01*
X0046140Y0208077D01*
X0046111Y0208008D01*
X0033207Y0205731D01*
X0033077Y0205860D01*
X0032054Y0206284D01*
X0030946Y0206284D01*
X0029923Y0205860D01*
X0029140Y0205077D01*
X0028716Y0204054D01*
X0028716Y0202946D01*
X0029140Y0201923D01*
X0029923Y0201140D01*
X0030946Y0200716D01*
X0032054Y0200716D01*
X0033077Y0201140D01*
X0033860Y0201923D01*
X0033889Y0201992D01*
X0046793Y0204269D01*
X0046923Y0204140D01*
X0047946Y0203716D01*
X0049054Y0203716D01*
X0050077Y0204140D01*
X0050860Y0204923D01*
X0051284Y0205946D01*
X0051284Y0207054D01*
X0050860Y0208077D01*
X0050077Y0208860D01*
X0049054Y0209284D01*
X0047946Y0209284D01*
X0049302Y0209181D02*
X0057406Y0209181D01*
X0058084Y0209947D02*
X0058084Y0209947D01*
X0058084Y0209947D01*
X0056522Y0208183D02*
X0050755Y0208183D01*
X0051230Y0207184D02*
X0055638Y0207184D01*
X0054755Y0206186D02*
X0051284Y0206186D01*
X0050970Y0205187D02*
X0053871Y0205187D01*
X0052987Y0204189D02*
X0050126Y0204189D01*
X0052104Y0203190D02*
X0040678Y0203190D01*
X0041445Y0207184D02*
X0027816Y0207184D01*
X0027091Y0206186D02*
X0030709Y0206186D01*
X0032291Y0206186D02*
X0035787Y0206186D01*
X0035020Y0202192D02*
X0051220Y0202192D01*
X0050336Y0201193D02*
X0033131Y0201193D01*
X0029869Y0201193D02*
X0023982Y0201193D01*
X0023406Y0200195D02*
X0049501Y0200195D01*
X0049670Y0200440D02*
X0049670Y0200440D01*
X0048812Y0199196D02*
X0022829Y0199196D01*
X0022253Y0198198D02*
X0048123Y0198198D01*
X0047435Y0197199D02*
X0021676Y0197199D01*
X0021100Y0196201D02*
X0046746Y0196201D01*
X0046057Y0195202D02*
X0020523Y0195202D01*
X0019947Y0194204D02*
X0045369Y0194204D01*
X0044680Y0193205D02*
X0019370Y0193205D01*
X0018919Y0192207D02*
X0043992Y0192207D01*
X0043303Y0191208D02*
X0018475Y0191208D01*
X0018030Y0190210D02*
X0042614Y0190210D01*
X0042462Y0189989D02*
X0042462Y0189989D01*
X0042054Y0189211D02*
X0017585Y0189211D01*
X0017141Y0188213D02*
X0041531Y0188213D01*
X0041007Y0187214D02*
X0016696Y0187214D01*
X0016252Y0186216D02*
X0040483Y0186216D01*
X0039960Y0185217D02*
X0033216Y0185217D01*
X0033054Y0185284D02*
X0031946Y0185284D01*
X0030923Y0184860D01*
X0030140Y0184077D01*
X0029869Y0183423D01*
X0017603Y0178057D01*
X0017054Y0178284D01*
X0015946Y0178284D01*
X0014923Y0177860D01*
X0014140Y0177077D01*
X0013716Y0176054D01*
X0013716Y0174946D01*
X0014140Y0173923D01*
X0014923Y0173140D01*
X0015946Y0172716D01*
X0017054Y0172716D01*
X0018077Y0173140D01*
X0018860Y0173923D01*
X0019131Y0174577D01*
X0031397Y0179943D01*
X0031946Y0179716D01*
X0033054Y0179716D01*
X0034077Y0180140D01*
X0034860Y0180923D01*
X0035284Y0181946D01*
X0035284Y0183054D01*
X0034860Y0184077D01*
X0034077Y0184860D01*
X0033054Y0185284D01*
X0031784Y0185217D02*
X0015807Y0185217D01*
X0015363Y0184219D02*
X0030281Y0184219D01*
X0029406Y0183220D02*
X0014918Y0183220D01*
X0014473Y0182222D02*
X0027123Y0182222D01*
X0024841Y0181223D02*
X0014029Y0181223D01*
X0013679Y0180225D02*
X0022559Y0180225D01*
X0020276Y0179226D02*
X0013355Y0179226D01*
X0013030Y0178228D02*
X0015809Y0178228D01*
X0017191Y0178228D02*
X0017994Y0178228D01*
X0014292Y0177229D02*
X0012706Y0177229D01*
X0012381Y0176231D02*
X0013789Y0176231D01*
X0013716Y0175232D02*
X0012057Y0175232D01*
X0011733Y0174234D02*
X0014011Y0174234D01*
X0014827Y0173235D02*
X0011408Y0173235D01*
X0011084Y0172237D02*
X0034099Y0172237D01*
X0034477Y0173235D02*
X0018173Y0173235D01*
X0018989Y0174234D02*
X0034856Y0174234D01*
X0035234Y0175232D02*
X0020628Y0175232D01*
X0022910Y0176231D02*
X0035613Y0176231D01*
X0035991Y0177229D02*
X0025192Y0177229D01*
X0027475Y0178228D02*
X0036369Y0178228D01*
X0036566Y0178746D02*
X0036566Y0178746D01*
X0036818Y0179226D02*
X0029757Y0179226D01*
X0034162Y0180225D02*
X0037341Y0180225D01*
X0037865Y0181223D02*
X0034985Y0181223D01*
X0035284Y0182222D02*
X0038389Y0182222D01*
X0038912Y0183220D02*
X0035215Y0183220D01*
X0034719Y0184219D02*
X0039436Y0184219D01*
X0033720Y0171238D02*
X0010759Y0171238D01*
X0010435Y0170239D02*
X0033342Y0170239D01*
X0032963Y0169241D02*
X0010110Y0169241D01*
X0009800Y0168242D02*
X0032585Y0168242D01*
X0032207Y0167244D02*
X0009588Y0167244D01*
X0009376Y0166245D02*
X0031912Y0166245D01*
X0032067Y0166875D02*
X0032067Y0166875D01*
X0031666Y0165247D02*
X0009164Y0165247D01*
X0008951Y0164248D02*
X0031420Y0164248D01*
X0031174Y0163250D02*
X0008739Y0163250D01*
X0008527Y0162251D02*
X0030928Y0162251D01*
X0030682Y0161253D02*
X0008315Y0161253D01*
X0008102Y0160254D02*
X0030436Y0160254D01*
X0030190Y0159256D02*
X0007890Y0159256D01*
X0007678Y0158257D02*
X0022881Y0158257D01*
X0022946Y0158284D02*
X0021923Y0157860D01*
X0021140Y0157077D01*
X0020716Y0156054D01*
X0020716Y0155633D01*
X0010849Y0147284D01*
X0009946Y0147284D01*
X0008923Y0146860D01*
X0008140Y0146077D01*
X0007716Y0145054D01*
X0007716Y0143946D01*
X0008140Y0142923D01*
X0008923Y0142140D01*
X0009946Y0141716D01*
X0011054Y0141716D01*
X0012077Y0142140D01*
X0012860Y0142923D01*
X0013284Y0143946D01*
X0013284Y0144367D01*
X0023151Y0152716D01*
X0024054Y0152716D01*
X0025077Y0153140D01*
X0025860Y0153923D01*
X0026284Y0154946D01*
X0026284Y0156054D01*
X0025860Y0157077D01*
X0025077Y0157860D01*
X0024054Y0158284D01*
X0022946Y0158284D01*
X0024119Y0158257D02*
X0029944Y0158257D01*
X0029698Y0157259D02*
X0025679Y0157259D01*
X0026199Y0156260D02*
X0029452Y0156260D01*
X0029206Y0155262D02*
X0026284Y0155262D01*
X0026001Y0154263D02*
X0028995Y0154263D01*
X0029030Y0154548D02*
X0029030Y0154548D01*
X0028874Y0153265D02*
X0025202Y0153265D01*
X0022620Y0152266D02*
X0028753Y0152266D01*
X0028632Y0151268D02*
X0021440Y0151268D01*
X0020260Y0150269D02*
X0028510Y0150269D01*
X0028389Y0149271D02*
X0019080Y0149271D01*
X0017900Y0148272D02*
X0028250Y0148272D01*
X0028250Y0147274D02*
X0016719Y0147274D01*
X0015539Y0146275D02*
X0029047Y0146275D01*
X0037462Y0139400D02*
X0018538Y0139400D01*
X0018077Y0139860D01*
X0017054Y0140284D01*
X0038946Y0140284D01*
X0037923Y0139860D01*
X0037462Y0139400D01*
X0038946Y0140284D02*
X0040054Y0140284D01*
X0089446Y0140284D01*
X0088423Y0139860D01*
X0087962Y0139400D01*
X0041538Y0139400D01*
X0041077Y0139860D01*
X0040054Y0140284D01*
X0046974Y0146275D02*
X0050924Y0146275D01*
X0052076Y0146275D02*
X0052355Y0146275D01*
X0053953Y0147274D02*
X0047850Y0147274D01*
X0047926Y0148272D02*
X0055551Y0148272D01*
X0057148Y0149271D02*
X0048097Y0149271D01*
X0048269Y0150269D02*
X0058746Y0150269D01*
X0060344Y0151268D02*
X0048441Y0151268D01*
X0048612Y0152266D02*
X0061941Y0152266D01*
X0063539Y0153265D02*
X0048796Y0153265D01*
X0049069Y0154263D02*
X0064803Y0154263D01*
X0065324Y0155262D02*
X0049342Y0155262D01*
X0049615Y0156260D02*
X0066888Y0156260D01*
X0049339Y0145277D02*
X0014359Y0145277D01*
X0013284Y0144278D02*
X0048809Y0144278D01*
X0048716Y0143280D02*
X0013008Y0143280D01*
X0012219Y0142281D02*
X0048991Y0142281D01*
X0049780Y0141283D02*
X0005651Y0141283D01*
X0005688Y0142281D02*
X0008781Y0142281D01*
X0007992Y0143280D02*
X0005793Y0143280D01*
X0005898Y0144278D02*
X0007716Y0144278D01*
X0007808Y0145277D02*
X0006003Y0145277D01*
X0006108Y0146275D02*
X0008338Y0146275D01*
X0009921Y0147274D02*
X0006213Y0147274D01*
X0006318Y0148272D02*
X0012017Y0148272D01*
X0013197Y0149271D02*
X0006423Y0149271D01*
X0006528Y0150269D02*
X0014377Y0150269D01*
X0015557Y0151268D02*
X0006633Y0151268D01*
X0006738Y0152266D02*
X0016737Y0152266D01*
X0017917Y0153265D02*
X0006843Y0153265D01*
X0006948Y0154263D02*
X0019097Y0154263D01*
X0020277Y0155262D02*
X0007052Y0155262D01*
X0007253Y0156260D02*
X0020801Y0156260D01*
X0021321Y0157259D02*
X0007466Y0157259D01*
X0005625Y0140284D02*
X0015946Y0140284D01*
X0014923Y0139860D01*
X0014140Y0139077D01*
X0013716Y0138054D01*
X0013716Y0136946D01*
X0014140Y0135923D01*
X0014562Y0135500D01*
X0014140Y0135077D01*
X0013716Y0134054D01*
X0013716Y0132946D01*
X0014140Y0131923D01*
X0014923Y0131140D01*
X0015946Y0130716D01*
X0017054Y0130716D01*
X0018077Y0131140D01*
X0018538Y0131600D01*
X0037462Y0131600D01*
X0037923Y0131140D01*
X0038946Y0130716D01*
X0040054Y0130716D01*
X0041077Y0131140D01*
X0041538Y0131600D01*
X0087962Y0131600D01*
X0088423Y0131140D01*
X0089446Y0130716D01*
X0090554Y0130716D01*
X0091577Y0131140D01*
X0088265Y0131298D02*
X0041235Y0131298D01*
X0037765Y0131298D02*
X0018235Y0131298D01*
X0014765Y0131298D02*
X0005610Y0131298D01*
X0005584Y0132296D02*
X0013985Y0132296D01*
X0013716Y0133295D02*
X0005558Y0133295D01*
X0005532Y0134293D02*
X0013815Y0134293D01*
X0014354Y0135292D02*
X0005505Y0135292D01*
X0005521Y0136290D02*
X0013987Y0136290D01*
X0013716Y0137289D02*
X0005547Y0137289D01*
X0005573Y0138287D02*
X0013812Y0138287D01*
X0014348Y0139286D02*
X0005599Y0139286D01*
X0015946Y0140284D02*
X0017054Y0140284D01*
X0010385Y0114323D02*
X0007342Y0114323D01*
X0007554Y0113324D02*
X0009828Y0113324D01*
X0009716Y0112326D02*
X0007766Y0112326D01*
X0007979Y0111327D02*
X0009972Y0111327D01*
X0010734Y0110329D02*
X0008191Y0110329D01*
X0076319Y0175232D02*
X0076830Y0175232D01*
X0069121Y0193205D02*
X0097857Y0193205D01*
X0095527Y0194204D02*
X0070114Y0194204D01*
X0082138Y0196201D02*
X0082879Y0196201D01*
X0094596Y0198198D02*
X0098737Y0198198D01*
X0088593Y0231149D02*
X0049190Y0231149D01*
X0050299Y0232147D02*
X0090963Y0232147D01*
X0089261Y0231500D02*
X0089261Y0231500D01*
X0093589Y0233146D02*
X0051408Y0233146D01*
X0051622Y0230150D02*
X0048081Y0230150D01*
X0046972Y0229152D02*
X0050214Y0229152D01*
X0049757Y0228153D02*
X0045863Y0228153D01*
X0044754Y0227155D02*
X0049716Y0227155D01*
X0050043Y0226156D02*
X0043645Y0226156D01*
X0042567Y0225158D02*
X0050905Y0225158D01*
X0054095Y0225158D02*
X0060411Y0225158D01*
X0046245Y0208183D02*
X0028542Y0208183D01*
X0029250Y0205187D02*
X0026365Y0205187D01*
X0025712Y0204189D02*
X0028772Y0204189D01*
X0028716Y0203190D02*
X0025135Y0203190D01*
X0024559Y0202192D02*
X0029028Y0202192D01*
X0046337Y0204189D02*
X0046874Y0204189D01*
X0089446Y0140284D02*
X0090554Y0140284D01*
X0148661Y0145277D02*
X0198339Y0145277D01*
X0254196Y0157259D02*
X0257534Y0157259D01*
X0257322Y0158257D02*
X0254999Y0158257D01*
X0255284Y0159256D02*
X0257110Y0159256D01*
X0256898Y0160254D02*
X0255201Y0160254D01*
X0254685Y0161253D02*
X0256685Y0161253D01*
X0256473Y0162251D02*
X0253133Y0162251D01*
X0227827Y0219167D02*
X0206284Y0219167D01*
X0206238Y0220165D02*
X0226928Y0220165D01*
X0226029Y0221164D02*
X0205774Y0221164D01*
X0204757Y0222162D02*
X0225130Y0222162D01*
X0224231Y0223161D02*
X0204490Y0223161D01*
X0204224Y0224159D02*
X0223332Y0224159D01*
X0222433Y0225158D02*
X0203958Y0225158D01*
X0203691Y0226156D02*
X0221355Y0226156D01*
X0220246Y0227155D02*
X0203425Y0227155D01*
X0203159Y0228153D02*
X0219137Y0228153D01*
X0218028Y0229152D02*
X0202893Y0229152D01*
X0202626Y0230150D02*
X0216919Y0230150D01*
X0215810Y0231149D02*
X0202360Y0231149D01*
X0202094Y0232147D02*
X0214701Y0232147D01*
X0213592Y0233146D02*
X0201953Y0233146D01*
X0202284Y0234144D02*
X0212483Y0234144D01*
X0211123Y0235143D02*
X0202247Y0235143D01*
X0201796Y0236141D02*
X0209748Y0236141D01*
X0208374Y0237140D02*
X0200403Y0237140D01*
X0198597Y0237140D02*
X0181798Y0237140D01*
X0182248Y0236141D02*
X0197204Y0236141D01*
X0196753Y0235143D02*
X0182284Y0235143D01*
X0181952Y0234144D02*
X0196716Y0234144D01*
X0197047Y0233146D02*
X0181083Y0233146D01*
X0180406Y0238138D02*
X0207000Y0238138D01*
X0205625Y0239137D02*
X0179493Y0239137D01*
X0178878Y0240135D02*
X0204251Y0240135D01*
X0202877Y0241134D02*
X0178264Y0241134D01*
X0177650Y0242132D02*
X0201459Y0242132D01*
X0199730Y0243131D02*
X0177035Y0243131D01*
X0176421Y0244129D02*
X0198000Y0244129D01*
X0196271Y0245128D02*
X0175806Y0245128D01*
X0175192Y0246126D02*
X0194541Y0246126D01*
X0192812Y0247125D02*
X0174577Y0247125D01*
X0174284Y0248123D02*
X0191083Y0248123D01*
X0189115Y0249122D02*
X0174256Y0249122D01*
X0173817Y0250120D02*
X0186872Y0250120D01*
X0184629Y0251119D02*
X0172453Y0251119D01*
X0173778Y0232147D02*
X0197915Y0232147D01*
X0168963Y0213175D02*
X0146710Y0213175D01*
X0146111Y0214174D02*
X0166607Y0214174D01*
X0164250Y0215172D02*
X0145512Y0215172D01*
X0145284Y0216171D02*
X0161893Y0216171D01*
X0158905Y0217170D02*
X0145236Y0217170D01*
X0131959Y0247125D02*
X0131041Y0247125D01*
M02*
