G75*
%MOIN*%
%OFA0B0*%
%FSLAX25Y25*%
%IPPOS*%
%LPD*%
%AMOC8*
5,1,8,0,0,1.08239X$1,22.5*
%
%ADD10R,0.03846X0.04437*%
%ADD11R,0.04437X0.03846*%
%ADD12R,0.04831X0.04437*%
%ADD13R,0.04437X0.04831*%
D10*
G36*
X0048539Y0043947D02*
X0045819Y0046667D01*
X0048955Y0049803D01*
X0051675Y0047083D01*
X0048539Y0043947D01*
G37*
G36*
X0043667Y0048819D02*
X0040947Y0051539D01*
X0044083Y0054675D01*
X0046803Y0051955D01*
X0043667Y0048819D01*
G37*
G36*
X0053411Y0058563D02*
X0050691Y0061283D01*
X0053827Y0064419D01*
X0056547Y0061699D01*
X0053411Y0058563D01*
G37*
G36*
X0058283Y0053691D02*
X0055563Y0056411D01*
X0058699Y0059547D01*
X0061419Y0056827D01*
X0058283Y0053691D01*
G37*
G36*
X0076018Y0040714D02*
X0072688Y0042637D01*
X0074906Y0046478D01*
X0078236Y0044555D01*
X0076018Y0040714D01*
G37*
G36*
X0081984Y0037269D02*
X0078654Y0039192D01*
X0080872Y0043033D01*
X0084202Y0041110D01*
X0081984Y0037269D01*
G37*
G36*
X0075094Y0025336D02*
X0071764Y0027259D01*
X0073982Y0031100D01*
X0077312Y0029177D01*
X0075094Y0025336D01*
G37*
G36*
X0069128Y0028781D02*
X0065798Y0030704D01*
X0068016Y0034545D01*
X0071346Y0032622D01*
X0069128Y0028781D01*
G37*
G36*
X0098908Y0016016D02*
X0095194Y0017012D01*
X0096342Y0021296D01*
X0100056Y0020300D01*
X0098908Y0016016D01*
G37*
G36*
X0105563Y0014232D02*
X0101849Y0015228D01*
X0102997Y0019512D01*
X0106711Y0018516D01*
X0105563Y0014232D01*
G37*
G36*
X0109130Y0027542D02*
X0105416Y0028538D01*
X0106564Y0032822D01*
X0110278Y0031826D01*
X0109130Y0027542D01*
G37*
G36*
X0102475Y0029326D02*
X0098761Y0030322D01*
X0099909Y0034606D01*
X0103623Y0033610D01*
X0102475Y0029326D01*
G37*
X0129055Y0027390D03*
X0135945Y0027390D03*
X0135945Y0013610D03*
X0129055Y0013610D03*
G36*
X0159584Y0028538D02*
X0155870Y0027542D01*
X0154722Y0031826D01*
X0158436Y0032822D01*
X0159584Y0028538D01*
G37*
G36*
X0166239Y0030322D02*
X0162525Y0029326D01*
X0161377Y0033610D01*
X0165091Y0034606D01*
X0166239Y0030322D01*
G37*
G36*
X0169806Y0017012D02*
X0166092Y0016016D01*
X0164944Y0020300D01*
X0168658Y0021296D01*
X0169806Y0017012D01*
G37*
G36*
X0163151Y0015228D02*
X0159437Y0014232D01*
X0158289Y0018516D01*
X0162003Y0019512D01*
X0163151Y0015228D01*
G37*
G36*
X0186346Y0039192D02*
X0183016Y0037269D01*
X0180798Y0041110D01*
X0184128Y0043033D01*
X0186346Y0039192D01*
G37*
G36*
X0192312Y0042637D02*
X0188982Y0040714D01*
X0186764Y0044555D01*
X0190094Y0046478D01*
X0192312Y0042637D01*
G37*
G36*
X0199202Y0030704D02*
X0195872Y0028781D01*
X0193654Y0032622D01*
X0196984Y0034545D01*
X0199202Y0030704D01*
G37*
G36*
X0193236Y0027259D02*
X0189906Y0025336D01*
X0187688Y0029177D01*
X0191018Y0031100D01*
X0193236Y0027259D01*
G37*
G36*
X0219181Y0046667D02*
X0216461Y0043947D01*
X0213325Y0047083D01*
X0216045Y0049803D01*
X0219181Y0046667D01*
G37*
G36*
X0224053Y0051539D02*
X0221333Y0048819D01*
X0218197Y0051955D01*
X0220917Y0054675D01*
X0224053Y0051539D01*
G37*
G36*
X0214309Y0061283D02*
X0211589Y0058563D01*
X0208453Y0061699D01*
X0211173Y0064419D01*
X0214309Y0061283D01*
G37*
G36*
X0209437Y0056411D02*
X0206717Y0053691D01*
X0203581Y0056827D01*
X0206301Y0059547D01*
X0209437Y0056411D01*
G37*
G36*
X0190864Y0074984D02*
X0188144Y0072264D01*
X0185008Y0075400D01*
X0187728Y0078120D01*
X0190864Y0074984D01*
G37*
G36*
X0195736Y0079856D02*
X0193016Y0077136D01*
X0189880Y0080272D01*
X0192600Y0082992D01*
X0195736Y0079856D01*
G37*
G36*
X0185992Y0089600D02*
X0183272Y0086880D01*
X0180136Y0090016D01*
X0182856Y0092736D01*
X0185992Y0089600D01*
G37*
G36*
X0181120Y0084728D02*
X0178400Y0082008D01*
X0175264Y0085144D01*
X0177984Y0087864D01*
X0181120Y0084728D01*
G37*
G36*
X0164371Y0072571D02*
X0160819Y0071099D01*
X0159121Y0075197D01*
X0162673Y0076669D01*
X0164371Y0072571D01*
G37*
G36*
X0158006Y0069934D02*
X0154454Y0068462D01*
X0152756Y0072560D01*
X0156308Y0074032D01*
X0158006Y0069934D01*
G37*
G36*
X0163279Y0057203D02*
X0159727Y0055731D01*
X0158029Y0059829D01*
X0161581Y0061301D01*
X0163279Y0057203D01*
G37*
G36*
X0169644Y0059840D02*
X0166092Y0058368D01*
X0164394Y0062466D01*
X0167946Y0063938D01*
X0169644Y0059840D01*
G37*
X0135945Y0053610D03*
X0129055Y0053610D03*
X0129055Y0067390D03*
X0135945Y0067390D03*
G36*
X0110546Y0068462D02*
X0106994Y0069934D01*
X0108692Y0074032D01*
X0112244Y0072560D01*
X0110546Y0068462D01*
G37*
G36*
X0104181Y0071099D02*
X0100629Y0072571D01*
X0102327Y0076669D01*
X0105879Y0075197D01*
X0104181Y0071099D01*
G37*
G36*
X0098908Y0058368D02*
X0095356Y0059840D01*
X0097054Y0063938D01*
X0100606Y0062466D01*
X0098908Y0058368D01*
G37*
G36*
X0105273Y0055731D02*
X0101721Y0057203D01*
X0103419Y0061301D01*
X0106971Y0059829D01*
X0105273Y0055731D01*
G37*
G36*
X0076856Y0072264D02*
X0074136Y0074984D01*
X0077272Y0078120D01*
X0079992Y0075400D01*
X0076856Y0072264D01*
G37*
G36*
X0071984Y0077136D02*
X0069264Y0079856D01*
X0072400Y0082992D01*
X0075120Y0080272D01*
X0071984Y0077136D01*
G37*
G36*
X0081728Y0086880D02*
X0079008Y0089600D01*
X0082144Y0092736D01*
X0084864Y0090016D01*
X0081728Y0086880D01*
G37*
G36*
X0086600Y0082008D02*
X0083880Y0084728D01*
X0087016Y0087864D01*
X0089736Y0085144D01*
X0086600Y0082008D01*
G37*
G36*
X0069471Y0103529D02*
X0067999Y0107081D01*
X0072097Y0108779D01*
X0073569Y0105227D01*
X0069471Y0103529D01*
G37*
G36*
X0066834Y0109894D02*
X0065362Y0113446D01*
X0069460Y0115144D01*
X0070932Y0111592D01*
X0066834Y0109894D01*
G37*
G36*
X0056740Y0098256D02*
X0055268Y0101808D01*
X0059366Y0103506D01*
X0060838Y0099954D01*
X0056740Y0098256D01*
G37*
G36*
X0054103Y0104621D02*
X0052631Y0108173D01*
X0056729Y0109871D01*
X0058201Y0106319D01*
X0054103Y0104621D01*
G37*
G36*
X0036192Y0081654D02*
X0034269Y0084984D01*
X0038110Y0087202D01*
X0040033Y0083872D01*
X0036192Y0081654D01*
G37*
G36*
X0039637Y0075688D02*
X0037714Y0079018D01*
X0041555Y0081236D01*
X0043478Y0077906D01*
X0039637Y0075688D01*
G37*
G36*
X0027704Y0068798D02*
X0025781Y0072128D01*
X0029622Y0074346D01*
X0031545Y0071016D01*
X0027704Y0068798D01*
G37*
G36*
X0024259Y0074764D02*
X0022336Y0078094D01*
X0026177Y0080312D01*
X0028100Y0076982D01*
X0024259Y0074764D01*
G37*
G36*
X0014012Y0098194D02*
X0013016Y0101908D01*
X0017300Y0103056D01*
X0018296Y0099342D01*
X0014012Y0098194D01*
G37*
G36*
X0012228Y0104849D02*
X0011232Y0108563D01*
X0015516Y0109711D01*
X0016512Y0105997D01*
X0012228Y0104849D01*
G37*
G36*
X0025538Y0108416D02*
X0024542Y0112130D01*
X0028826Y0113278D01*
X0029822Y0109564D01*
X0025538Y0108416D01*
G37*
G36*
X0027322Y0101761D02*
X0026326Y0105475D01*
X0030610Y0106623D01*
X0031606Y0102909D01*
X0027322Y0101761D01*
G37*
G36*
X0065562Y0157454D02*
X0067034Y0161006D01*
X0071132Y0159308D01*
X0069660Y0155756D01*
X0065562Y0157454D01*
G37*
G36*
X0068199Y0163819D02*
X0069671Y0167371D01*
X0073769Y0165673D01*
X0072297Y0162121D01*
X0068199Y0163819D01*
G37*
G36*
X0055468Y0169092D02*
X0056940Y0172644D01*
X0061038Y0170946D01*
X0059566Y0167394D01*
X0055468Y0169092D01*
G37*
G36*
X0052831Y0162727D02*
X0054303Y0166279D01*
X0058401Y0164581D01*
X0056929Y0161029D01*
X0052831Y0162727D01*
G37*
G36*
X0026326Y0165525D02*
X0027322Y0169239D01*
X0031606Y0168091D01*
X0030610Y0164377D01*
X0026326Y0165525D01*
G37*
G36*
X0024542Y0158870D02*
X0025538Y0162584D01*
X0029822Y0161436D01*
X0028826Y0157722D01*
X0024542Y0158870D01*
G37*
G36*
X0011232Y0162437D02*
X0012228Y0166151D01*
X0016512Y0165003D01*
X0015516Y0161289D01*
X0011232Y0162437D01*
G37*
G36*
X0013016Y0169092D02*
X0014012Y0172806D01*
X0018296Y0171658D01*
X0017300Y0167944D01*
X0013016Y0169092D01*
G37*
G36*
X0022336Y0192906D02*
X0024259Y0196236D01*
X0028100Y0194018D01*
X0026177Y0190688D01*
X0022336Y0192906D01*
G37*
G36*
X0025781Y0198872D02*
X0027704Y0202202D01*
X0031545Y0199984D01*
X0029622Y0196654D01*
X0025781Y0198872D01*
G37*
G36*
X0034269Y0186016D02*
X0036192Y0189346D01*
X0040033Y0187128D01*
X0038110Y0183798D01*
X0034269Y0186016D01*
G37*
G36*
X0037714Y0191982D02*
X0039637Y0195312D01*
X0043478Y0193094D01*
X0041555Y0189764D01*
X0037714Y0191982D01*
G37*
G36*
X0050691Y0209717D02*
X0053411Y0212437D01*
X0056547Y0209301D01*
X0053827Y0206581D01*
X0050691Y0209717D01*
G37*
G36*
X0055563Y0214589D02*
X0058283Y0217309D01*
X0061419Y0214173D01*
X0058699Y0211453D01*
X0055563Y0214589D01*
G37*
G36*
X0045819Y0224333D02*
X0048539Y0227053D01*
X0051675Y0223917D01*
X0048955Y0221197D01*
X0045819Y0224333D01*
G37*
G36*
X0040947Y0219461D02*
X0043667Y0222181D01*
X0046803Y0219045D01*
X0044083Y0216325D01*
X0040947Y0219461D01*
G37*
G36*
X0065798Y0240296D02*
X0069128Y0242219D01*
X0071346Y0238378D01*
X0068016Y0236455D01*
X0065798Y0240296D01*
G37*
G36*
X0071764Y0243741D02*
X0075094Y0245664D01*
X0077312Y0241823D01*
X0073982Y0239900D01*
X0071764Y0243741D01*
G37*
G36*
X0078654Y0231808D02*
X0081984Y0233731D01*
X0084202Y0229890D01*
X0080872Y0227967D01*
X0078654Y0231808D01*
G37*
G36*
X0072688Y0228363D02*
X0076018Y0230286D01*
X0078236Y0226445D01*
X0074906Y0224522D01*
X0072688Y0228363D01*
G37*
G36*
X0095256Y0211260D02*
X0098808Y0212732D01*
X0100506Y0208634D01*
X0096954Y0207162D01*
X0095256Y0211260D01*
G37*
G36*
X0101621Y0213897D02*
X0105173Y0215369D01*
X0106871Y0211271D01*
X0103319Y0209799D01*
X0101621Y0213897D01*
G37*
G36*
X0106894Y0201166D02*
X0110446Y0202638D01*
X0112144Y0198540D01*
X0108592Y0197068D01*
X0106894Y0201166D01*
G37*
G36*
X0100529Y0198529D02*
X0104081Y0200001D01*
X0105779Y0195903D01*
X0102227Y0194431D01*
X0100529Y0198529D01*
G37*
G36*
X0083880Y0186272D02*
X0086600Y0188992D01*
X0089736Y0185856D01*
X0087016Y0183136D01*
X0083880Y0186272D01*
G37*
G36*
X0079008Y0181400D02*
X0081728Y0184120D01*
X0084864Y0180984D01*
X0082144Y0178264D01*
X0079008Y0181400D01*
G37*
G36*
X0069264Y0191144D02*
X0071984Y0193864D01*
X0075120Y0190728D01*
X0072400Y0188008D01*
X0069264Y0191144D01*
G37*
G36*
X0074136Y0196016D02*
X0076856Y0198736D01*
X0079992Y0195600D01*
X0077272Y0192880D01*
X0074136Y0196016D01*
G37*
G36*
X0098761Y0240678D02*
X0102475Y0241674D01*
X0103623Y0237390D01*
X0099909Y0236394D01*
X0098761Y0240678D01*
G37*
G36*
X0105416Y0242462D02*
X0109130Y0243458D01*
X0110278Y0239174D01*
X0106564Y0238178D01*
X0105416Y0242462D01*
G37*
G36*
X0095194Y0253988D02*
X0098908Y0254984D01*
X0100056Y0250700D01*
X0096342Y0249704D01*
X0095194Y0253988D01*
G37*
G36*
X0101849Y0255772D02*
X0105563Y0256768D01*
X0106711Y0252484D01*
X0102997Y0251488D01*
X0101849Y0255772D01*
G37*
X0129055Y0257390D03*
X0135945Y0257390D03*
X0135945Y0243610D03*
X0129055Y0243610D03*
X0129055Y0217390D03*
X0135945Y0217390D03*
X0135945Y0203610D03*
X0129055Y0203610D03*
G36*
X0154554Y0202738D02*
X0158106Y0201266D01*
X0156408Y0197168D01*
X0152856Y0198640D01*
X0154554Y0202738D01*
G37*
G36*
X0160919Y0200101D02*
X0164471Y0198629D01*
X0162773Y0194531D01*
X0159221Y0196003D01*
X0160919Y0200101D01*
G37*
G36*
X0166192Y0212832D02*
X0169744Y0211360D01*
X0168046Y0207262D01*
X0164494Y0208734D01*
X0166192Y0212832D01*
G37*
G36*
X0159827Y0215469D02*
X0163379Y0213997D01*
X0161681Y0209899D01*
X0158129Y0211371D01*
X0159827Y0215469D01*
G37*
G36*
X0162525Y0241674D02*
X0166239Y0240678D01*
X0165091Y0236394D01*
X0161377Y0237390D01*
X0162525Y0241674D01*
G37*
G36*
X0155870Y0243458D02*
X0159584Y0242462D01*
X0158436Y0238178D01*
X0154722Y0239174D01*
X0155870Y0243458D01*
G37*
G36*
X0159437Y0256768D02*
X0163151Y0255772D01*
X0162003Y0251488D01*
X0158289Y0252484D01*
X0159437Y0256768D01*
G37*
G36*
X0166092Y0254984D02*
X0169806Y0253988D01*
X0168658Y0249704D01*
X0164944Y0250700D01*
X0166092Y0254984D01*
G37*
G36*
X0189906Y0245664D02*
X0193236Y0243741D01*
X0191018Y0239900D01*
X0187688Y0241823D01*
X0189906Y0245664D01*
G37*
G36*
X0195872Y0242219D02*
X0199202Y0240296D01*
X0196984Y0236455D01*
X0193654Y0238378D01*
X0195872Y0242219D01*
G37*
G36*
X0183016Y0233731D02*
X0186346Y0231808D01*
X0184128Y0227967D01*
X0180798Y0229890D01*
X0183016Y0233731D01*
G37*
G36*
X0188982Y0230286D02*
X0192312Y0228363D01*
X0190094Y0224522D01*
X0186764Y0226445D01*
X0188982Y0230286D01*
G37*
G36*
X0206717Y0217309D02*
X0209437Y0214589D01*
X0206301Y0211453D01*
X0203581Y0214173D01*
X0206717Y0217309D01*
G37*
G36*
X0211589Y0212437D02*
X0214309Y0209717D01*
X0211173Y0206581D01*
X0208453Y0209301D01*
X0211589Y0212437D01*
G37*
G36*
X0221333Y0222181D02*
X0224053Y0219461D01*
X0220917Y0216325D01*
X0218197Y0219045D01*
X0221333Y0222181D01*
G37*
G36*
X0216461Y0227053D02*
X0219181Y0224333D01*
X0216045Y0221197D01*
X0213325Y0223917D01*
X0216461Y0227053D01*
G37*
G36*
X0237296Y0202202D02*
X0239219Y0198872D01*
X0235378Y0196654D01*
X0233455Y0199984D01*
X0237296Y0202202D01*
G37*
G36*
X0240741Y0196236D02*
X0242664Y0192906D01*
X0238823Y0190688D01*
X0236900Y0194018D01*
X0240741Y0196236D01*
G37*
G36*
X0228808Y0189346D02*
X0230731Y0186016D01*
X0226890Y0183798D01*
X0224967Y0187128D01*
X0228808Y0189346D01*
G37*
G36*
X0225363Y0195312D02*
X0227286Y0191982D01*
X0223445Y0189764D01*
X0221522Y0193094D01*
X0225363Y0195312D01*
G37*
G36*
X0208160Y0172644D02*
X0209632Y0169092D01*
X0205534Y0167394D01*
X0204062Y0170946D01*
X0208160Y0172644D01*
G37*
G36*
X0210797Y0166279D02*
X0212269Y0162727D01*
X0208171Y0161029D01*
X0206699Y0164581D01*
X0210797Y0166279D01*
G37*
G36*
X0198066Y0161006D02*
X0199538Y0157454D01*
X0195440Y0155756D01*
X0193968Y0159308D01*
X0198066Y0161006D01*
G37*
G36*
X0195429Y0167371D02*
X0196901Y0163819D01*
X0192803Y0162121D01*
X0191331Y0165673D01*
X0195429Y0167371D01*
G37*
G36*
X0183272Y0184020D02*
X0185992Y0181300D01*
X0182856Y0178164D01*
X0180136Y0180884D01*
X0183272Y0184020D01*
G37*
G36*
X0178400Y0188892D02*
X0181120Y0186172D01*
X0177984Y0183036D01*
X0175264Y0185756D01*
X0178400Y0188892D01*
G37*
G36*
X0188144Y0198636D02*
X0190864Y0195916D01*
X0187728Y0192780D01*
X0185008Y0195500D01*
X0188144Y0198636D01*
G37*
G36*
X0193016Y0193764D02*
X0195736Y0191044D01*
X0192600Y0187908D01*
X0189880Y0190628D01*
X0193016Y0193764D01*
G37*
G36*
X0237678Y0169239D02*
X0238674Y0165525D01*
X0234390Y0164377D01*
X0233394Y0168091D01*
X0237678Y0169239D01*
G37*
G36*
X0239462Y0162584D02*
X0240458Y0158870D01*
X0236174Y0157722D01*
X0235178Y0161436D01*
X0239462Y0162584D01*
G37*
G36*
X0250988Y0172806D02*
X0251984Y0169092D01*
X0247700Y0167944D01*
X0246704Y0171658D01*
X0250988Y0172806D01*
G37*
G36*
X0252772Y0166151D02*
X0253768Y0162437D01*
X0249484Y0161289D01*
X0248488Y0165003D01*
X0252772Y0166151D01*
G37*
G36*
X0240458Y0112130D02*
X0239462Y0108416D01*
X0235178Y0109564D01*
X0236174Y0113278D01*
X0240458Y0112130D01*
G37*
G36*
X0238674Y0105475D02*
X0237678Y0101761D01*
X0233394Y0102909D01*
X0234390Y0106623D01*
X0238674Y0105475D01*
G37*
G36*
X0251984Y0101908D02*
X0250988Y0098194D01*
X0246704Y0099342D01*
X0247700Y0103056D01*
X0251984Y0101908D01*
G37*
G36*
X0253768Y0108563D02*
X0252772Y0104849D01*
X0248488Y0105997D01*
X0249484Y0109711D01*
X0253768Y0108563D01*
G37*
G36*
X0230731Y0084984D02*
X0228808Y0081654D01*
X0224967Y0083872D01*
X0226890Y0087202D01*
X0230731Y0084984D01*
G37*
G36*
X0227286Y0079018D02*
X0225363Y0075688D01*
X0221522Y0077906D01*
X0223445Y0081236D01*
X0227286Y0079018D01*
G37*
G36*
X0239219Y0072128D02*
X0237296Y0068798D01*
X0233455Y0071016D01*
X0235378Y0074346D01*
X0239219Y0072128D01*
G37*
G36*
X0242664Y0078094D02*
X0240741Y0074764D01*
X0236900Y0076982D01*
X0238823Y0080312D01*
X0242664Y0078094D01*
G37*
G36*
X0212369Y0108173D02*
X0210897Y0104621D01*
X0206799Y0106319D01*
X0208271Y0109871D01*
X0212369Y0108173D01*
G37*
G36*
X0209732Y0101808D02*
X0208260Y0098256D01*
X0204162Y0099954D01*
X0205634Y0103506D01*
X0209732Y0101808D01*
G37*
G36*
X0199638Y0113446D02*
X0198166Y0109894D01*
X0194068Y0111592D01*
X0195540Y0115144D01*
X0199638Y0113446D01*
G37*
G36*
X0197001Y0107081D02*
X0195529Y0103529D01*
X0191431Y0105227D01*
X0192903Y0108779D01*
X0197001Y0107081D01*
G37*
G36*
X0154236Y0121356D02*
X0151516Y0118636D01*
X0148380Y0121772D01*
X0151100Y0124492D01*
X0154236Y0121356D01*
G37*
G36*
X0149364Y0116484D02*
X0146644Y0113764D01*
X0143508Y0116900D01*
X0146228Y0119620D01*
X0149364Y0116484D01*
G37*
G36*
X0139620Y0126228D02*
X0136900Y0123508D01*
X0133764Y0126644D01*
X0136484Y0129364D01*
X0139620Y0126228D01*
G37*
G36*
X0144492Y0131100D02*
X0141772Y0128380D01*
X0138636Y0131516D01*
X0141356Y0134236D01*
X0144492Y0131100D01*
G37*
G36*
X0141772Y0142620D02*
X0144492Y0139900D01*
X0141356Y0136764D01*
X0138636Y0139484D01*
X0141772Y0142620D01*
G37*
G36*
X0136900Y0147492D02*
X0139620Y0144772D01*
X0136484Y0141636D01*
X0133764Y0144356D01*
X0136900Y0147492D01*
G37*
G36*
X0125380Y0144772D02*
X0128100Y0147492D01*
X0131236Y0144356D01*
X0128516Y0141636D01*
X0125380Y0144772D01*
G37*
G36*
X0120508Y0139900D02*
X0123228Y0142620D01*
X0126364Y0139484D01*
X0123644Y0136764D01*
X0120508Y0139900D01*
G37*
G36*
X0110764Y0149644D02*
X0113484Y0152364D01*
X0116620Y0149228D01*
X0113900Y0146508D01*
X0110764Y0149644D01*
G37*
G36*
X0115636Y0154516D02*
X0118356Y0157236D01*
X0121492Y0154100D01*
X0118772Y0151380D01*
X0115636Y0154516D01*
G37*
G36*
X0123228Y0128380D02*
X0120508Y0131100D01*
X0123644Y0134236D01*
X0126364Y0131516D01*
X0123228Y0128380D01*
G37*
G36*
X0128100Y0123508D02*
X0125380Y0126228D01*
X0128516Y0129364D01*
X0131236Y0126644D01*
X0128100Y0123508D01*
G37*
G36*
X0118356Y0113764D02*
X0115636Y0116484D01*
X0118772Y0119620D01*
X0121492Y0116900D01*
X0118356Y0113764D01*
G37*
G36*
X0113484Y0118636D02*
X0110764Y0121356D01*
X0113900Y0124492D01*
X0116620Y0121772D01*
X0113484Y0118636D01*
G37*
G36*
X0146644Y0157236D02*
X0149364Y0154516D01*
X0146228Y0151380D01*
X0143508Y0154100D01*
X0146644Y0157236D01*
G37*
G36*
X0151516Y0152364D02*
X0154236Y0149644D01*
X0151100Y0146508D01*
X0148380Y0149228D01*
X0151516Y0152364D01*
G37*
D11*
X0200610Y0138945D03*
X0200610Y0132055D03*
X0214390Y0132055D03*
X0214390Y0138945D03*
X0240610Y0138945D03*
X0240610Y0132055D03*
X0254390Y0132055D03*
X0254390Y0138945D03*
X0064390Y0138945D03*
X0064390Y0132055D03*
X0050610Y0132055D03*
X0050610Y0138945D03*
X0024390Y0138945D03*
X0024390Y0132055D03*
X0010610Y0132055D03*
X0010610Y0138945D03*
D12*
G36*
X0012758Y0153501D02*
X0017545Y0152870D01*
X0016966Y0148473D01*
X0012179Y0149104D01*
X0012758Y0153501D01*
G37*
G36*
X0006122Y0154375D02*
X0010909Y0153744D01*
X0010330Y0149347D01*
X0005543Y0149978D01*
X0006122Y0154375D01*
G37*
G36*
X0021497Y0183879D02*
X0025958Y0182030D01*
X0024261Y0177933D01*
X0019800Y0179782D01*
X0021497Y0183879D01*
G37*
G36*
X0015313Y0186441D02*
X0019774Y0184592D01*
X0018077Y0180495D01*
X0013616Y0182344D01*
X0015313Y0186441D01*
G37*
G36*
X0032491Y0215035D02*
X0036322Y0212095D01*
X0033621Y0208577D01*
X0029790Y0211517D01*
X0032491Y0215035D01*
G37*
G36*
X0037801Y0210961D02*
X0041632Y0208021D01*
X0038931Y0204503D01*
X0035100Y0207443D01*
X0037801Y0210961D01*
G37*
G36*
X0060557Y0232900D02*
X0063497Y0229069D01*
X0059979Y0226368D01*
X0057039Y0230199D01*
X0060557Y0232900D01*
G37*
G36*
X0056483Y0238210D02*
X0059423Y0234379D01*
X0055905Y0231678D01*
X0052965Y0235509D01*
X0056483Y0238210D01*
G37*
G36*
X0088737Y0204221D02*
X0091424Y0200209D01*
X0087739Y0197741D01*
X0085052Y0201753D01*
X0088737Y0204221D01*
G37*
G36*
X0092461Y0198659D02*
X0095148Y0194647D01*
X0091463Y0192179D01*
X0088776Y0196191D01*
X0092461Y0198659D01*
G37*
G36*
X0071006Y0179028D02*
X0075023Y0176348D01*
X0072562Y0172658D01*
X0068545Y0175338D01*
X0071006Y0179028D01*
G37*
G36*
X0065438Y0182742D02*
X0069455Y0180062D01*
X0066994Y0176372D01*
X0062977Y0179052D01*
X0065438Y0182742D01*
G37*
G36*
X0052379Y0154094D02*
X0057116Y0153156D01*
X0056255Y0148806D01*
X0051518Y0149744D01*
X0052379Y0154094D01*
G37*
G36*
X0058945Y0152794D02*
X0063682Y0151856D01*
X0062821Y0147506D01*
X0058084Y0148444D01*
X0058945Y0152794D01*
G37*
G36*
X0057980Y0122557D02*
X0062715Y0123504D01*
X0063584Y0119155D01*
X0058849Y0118208D01*
X0057980Y0122557D01*
G37*
G36*
X0051416Y0121245D02*
X0056151Y0122192D01*
X0057020Y0117843D01*
X0052285Y0116896D01*
X0051416Y0121245D01*
G37*
G36*
X0068541Y0095061D02*
X0072553Y0097748D01*
X0075021Y0094063D01*
X0071009Y0091376D01*
X0068541Y0095061D01*
G37*
G36*
X0062979Y0091337D02*
X0066991Y0094024D01*
X0069459Y0090339D01*
X0065447Y0087652D01*
X0062979Y0091337D01*
G37*
G36*
X0084658Y0068738D02*
X0087338Y0072755D01*
X0091028Y0070294D01*
X0088348Y0066277D01*
X0084658Y0068738D01*
G37*
G36*
X0088372Y0074306D02*
X0091052Y0078323D01*
X0094742Y0075862D01*
X0092062Y0071845D01*
X0088372Y0074306D01*
G37*
G36*
X0115606Y0062245D02*
X0116544Y0066982D01*
X0120894Y0066121D01*
X0119956Y0061384D01*
X0115606Y0062245D01*
G37*
G36*
X0114306Y0055679D02*
X0115244Y0060416D01*
X0119594Y0059555D01*
X0118656Y0054818D01*
X0114306Y0055679D01*
G37*
G36*
X0084121Y0024497D02*
X0085970Y0028958D01*
X0090067Y0027261D01*
X0088218Y0022800D01*
X0084121Y0024497D01*
G37*
G36*
X0081559Y0018313D02*
X0083408Y0022774D01*
X0087505Y0021077D01*
X0085656Y0016616D01*
X0081559Y0018313D01*
G37*
G36*
X0035100Y0063557D02*
X0038931Y0066497D01*
X0041632Y0062979D01*
X0037801Y0060039D01*
X0035100Y0063557D01*
G37*
G36*
X0029790Y0059483D02*
X0033621Y0062423D01*
X0036322Y0058905D01*
X0032491Y0055965D01*
X0029790Y0059483D01*
G37*
G36*
X0013616Y0088656D02*
X0018077Y0090505D01*
X0019774Y0086408D01*
X0015313Y0084559D01*
X0013616Y0088656D01*
G37*
G36*
X0019800Y0091218D02*
X0024261Y0093067D01*
X0025958Y0088970D01*
X0021497Y0087121D01*
X0019800Y0091218D01*
G37*
X0107154Y0135500D03*
X0113846Y0135500D03*
X0150154Y0135500D03*
X0156846Y0135500D03*
G36*
X0195959Y0175439D02*
X0191947Y0172752D01*
X0189479Y0176437D01*
X0193491Y0179124D01*
X0195959Y0175439D01*
G37*
G36*
X0201521Y0179163D02*
X0197509Y0176476D01*
X0195041Y0180161D01*
X0199053Y0182848D01*
X0201521Y0179163D01*
G37*
G36*
X0179942Y0202662D02*
X0177262Y0198645D01*
X0173572Y0201106D01*
X0176252Y0205123D01*
X0179942Y0202662D01*
G37*
G36*
X0176228Y0197094D02*
X0173548Y0193077D01*
X0169858Y0195538D01*
X0172538Y0199555D01*
X0176228Y0197094D01*
G37*
G36*
X0150594Y0215121D02*
X0149656Y0210384D01*
X0145306Y0211245D01*
X0146244Y0215982D01*
X0150594Y0215121D01*
G37*
G36*
X0149294Y0208555D02*
X0148356Y0203818D01*
X0144006Y0204679D01*
X0144944Y0209416D01*
X0149294Y0208555D01*
G37*
G36*
X0120357Y0209520D02*
X0121304Y0204785D01*
X0116955Y0203916D01*
X0116008Y0208651D01*
X0120357Y0209520D01*
G37*
G36*
X0119045Y0216084D02*
X0119992Y0211349D01*
X0115643Y0210480D01*
X0114696Y0215215D01*
X0119045Y0216084D01*
G37*
G36*
X0115699Y0246822D02*
X0115068Y0251609D01*
X0119465Y0252188D01*
X0120096Y0247401D01*
X0115699Y0246822D01*
G37*
G36*
X0114826Y0253458D02*
X0114195Y0258245D01*
X0118592Y0258824D01*
X0119223Y0254037D01*
X0114826Y0253458D01*
G37*
G36*
X0180879Y0246503D02*
X0179030Y0242042D01*
X0174933Y0243739D01*
X0176782Y0248200D01*
X0180879Y0246503D01*
G37*
G36*
X0183441Y0252687D02*
X0181592Y0248226D01*
X0177495Y0249923D01*
X0179344Y0254384D01*
X0183441Y0252687D01*
G37*
G36*
X0207961Y0230199D02*
X0205021Y0226368D01*
X0201503Y0229069D01*
X0204443Y0232900D01*
X0207961Y0230199D01*
G37*
G36*
X0212035Y0235509D02*
X0209095Y0231678D01*
X0205577Y0234379D01*
X0208517Y0238210D01*
X0212035Y0235509D01*
G37*
G36*
X0235210Y0211517D02*
X0231379Y0208577D01*
X0228678Y0212095D01*
X0232509Y0215035D01*
X0235210Y0211517D01*
G37*
G36*
X0229900Y0207443D02*
X0226069Y0204503D01*
X0223368Y0208021D01*
X0227199Y0210961D01*
X0229900Y0207443D01*
G37*
G36*
X0251384Y0182344D02*
X0246923Y0180495D01*
X0245226Y0184592D01*
X0249687Y0186441D01*
X0251384Y0182344D01*
G37*
G36*
X0245200Y0179782D02*
X0240739Y0177933D01*
X0239042Y0182030D01*
X0243503Y0183879D01*
X0245200Y0179782D01*
G37*
G36*
X0213184Y0149255D02*
X0208449Y0148308D01*
X0207580Y0152657D01*
X0212315Y0153604D01*
X0213184Y0149255D01*
G37*
G36*
X0206620Y0147943D02*
X0201885Y0146996D01*
X0201016Y0151345D01*
X0205751Y0152292D01*
X0206620Y0147943D01*
G37*
G36*
X0205655Y0118906D02*
X0200918Y0119844D01*
X0201779Y0124194D01*
X0206516Y0123256D01*
X0205655Y0118906D01*
G37*
G36*
X0212221Y0117606D02*
X0207484Y0118544D01*
X0208345Y0122894D01*
X0213082Y0121956D01*
X0212221Y0117606D01*
G37*
G36*
X0193994Y0092272D02*
X0189977Y0094952D01*
X0192438Y0098642D01*
X0196455Y0095962D01*
X0193994Y0092272D01*
G37*
G36*
X0199562Y0088558D02*
X0195545Y0091238D01*
X0198006Y0094928D01*
X0202023Y0092248D01*
X0199562Y0088558D01*
G37*
G36*
X0175563Y0066079D02*
X0172876Y0070091D01*
X0176561Y0072559D01*
X0179248Y0068547D01*
X0175563Y0066079D01*
G37*
G36*
X0171839Y0071641D02*
X0169152Y0075653D01*
X0172837Y0078121D01*
X0175524Y0074109D01*
X0171839Y0071641D01*
G37*
G36*
X0146455Y0055416D02*
X0145508Y0060151D01*
X0149857Y0061020D01*
X0150804Y0056285D01*
X0146455Y0055416D01*
G37*
G36*
X0145143Y0061980D02*
X0144196Y0066715D01*
X0148545Y0067584D01*
X0149492Y0062849D01*
X0145143Y0061980D01*
G37*
G36*
X0146104Y0015179D02*
X0145473Y0019966D01*
X0149870Y0020545D01*
X0150501Y0015758D01*
X0146104Y0015179D01*
G37*
G36*
X0146978Y0008543D02*
X0146347Y0013330D01*
X0150744Y0013909D01*
X0151375Y0009122D01*
X0146978Y0008543D01*
G37*
G36*
X0204443Y0038100D02*
X0201503Y0041931D01*
X0205021Y0044632D01*
X0207961Y0040801D01*
X0204443Y0038100D01*
G37*
G36*
X0208517Y0032790D02*
X0205577Y0036621D01*
X0209095Y0039322D01*
X0212035Y0035491D01*
X0208517Y0032790D01*
G37*
G36*
X0249687Y0084559D02*
X0245226Y0086408D01*
X0246923Y0090505D01*
X0251384Y0088656D01*
X0249687Y0084559D01*
G37*
G36*
X0243503Y0087121D02*
X0239042Y0088970D01*
X0240739Y0093067D01*
X0245200Y0091218D01*
X0243503Y0087121D01*
G37*
G36*
X0252242Y0117499D02*
X0247455Y0118130D01*
X0248034Y0122527D01*
X0252821Y0121896D01*
X0252242Y0117499D01*
G37*
G36*
X0258878Y0116625D02*
X0254091Y0117256D01*
X0254670Y0121653D01*
X0259457Y0121022D01*
X0258878Y0116625D01*
G37*
D13*
X0132500Y0116846D03*
X0132500Y0110154D03*
X0132500Y0154154D03*
X0132500Y0160846D03*
M02*
