G75*
%MOIN*%
%OFA0B0*%
%FSLAX25Y25*%
%IPPOS*%
%LPD*%
%AMOC8*
5,1,8,0,0,1.08239X$1,22.5*
%
%ADD10C,0.00000*%
%ADD11C,0.00100*%
%ADD12C,0.00300*%
D10*
X0132500Y0006500D02*
X0129383Y0006538D01*
X0126268Y0006651D01*
X0123156Y0006839D01*
X0120050Y0007102D01*
X0116951Y0007441D01*
X0113861Y0007854D01*
X0110782Y0008341D01*
X0107716Y0008903D01*
X0104664Y0009539D01*
X0101628Y0010249D01*
X0098611Y0011031D01*
X0095613Y0011886D01*
X0092637Y0012814D01*
X0089684Y0013813D01*
X0086756Y0014883D01*
X0083855Y0016023D01*
X0080982Y0017234D01*
X0078139Y0018513D01*
X0075328Y0019861D01*
X0072551Y0021276D01*
X0069808Y0022758D01*
X0067102Y0024306D01*
X0064434Y0025919D01*
X0061806Y0027595D01*
X0059220Y0029335D01*
X0056676Y0031137D01*
X0054176Y0032999D01*
X0051722Y0034922D01*
X0049315Y0036903D01*
X0046957Y0038942D01*
X0044649Y0041037D01*
X0042392Y0043188D01*
X0040188Y0045392D01*
X0038037Y0047649D01*
X0035942Y0049957D01*
X0033903Y0052315D01*
X0031922Y0054722D01*
X0029999Y0057176D01*
X0028137Y0059676D01*
X0026335Y0062220D01*
X0024595Y0064806D01*
X0022919Y0067434D01*
X0021306Y0070102D01*
X0019758Y0072808D01*
X0018276Y0075551D01*
X0016861Y0078328D01*
X0015513Y0081139D01*
X0014234Y0083982D01*
X0013023Y0086855D01*
X0011883Y0089756D01*
X0010813Y0092684D01*
X0009814Y0095637D01*
X0008886Y0098613D01*
X0008031Y0101611D01*
X0007249Y0104628D01*
X0006539Y0107664D01*
X0005903Y0110716D01*
X0005341Y0113782D01*
X0004854Y0116861D01*
X0004441Y0119951D01*
X0004102Y0123050D01*
X0003839Y0126156D01*
X0003651Y0129268D01*
X0003538Y0132383D01*
X0003500Y0135500D01*
X0132500Y0006500D02*
X0135617Y0006538D01*
X0138732Y0006651D01*
X0141844Y0006839D01*
X0144950Y0007102D01*
X0148049Y0007441D01*
X0151139Y0007854D01*
X0154218Y0008341D01*
X0157284Y0008903D01*
X0160336Y0009539D01*
X0163372Y0010249D01*
X0166389Y0011031D01*
X0169387Y0011886D01*
X0172363Y0012814D01*
X0175316Y0013813D01*
X0178244Y0014883D01*
X0181145Y0016023D01*
X0184018Y0017234D01*
X0186861Y0018513D01*
X0189672Y0019861D01*
X0192449Y0021276D01*
X0195192Y0022758D01*
X0197898Y0024306D01*
X0200566Y0025919D01*
X0203194Y0027595D01*
X0205780Y0029335D01*
X0208324Y0031137D01*
X0210824Y0032999D01*
X0213278Y0034922D01*
X0215685Y0036903D01*
X0218043Y0038942D01*
X0220351Y0041037D01*
X0222608Y0043188D01*
X0224812Y0045392D01*
X0226963Y0047649D01*
X0229058Y0049957D01*
X0231097Y0052315D01*
X0233078Y0054722D01*
X0235001Y0057176D01*
X0236863Y0059676D01*
X0238665Y0062220D01*
X0240405Y0064806D01*
X0242081Y0067434D01*
X0243694Y0070102D01*
X0245242Y0072808D01*
X0246724Y0075551D01*
X0248139Y0078328D01*
X0249487Y0081139D01*
X0250766Y0083982D01*
X0251977Y0086855D01*
X0253117Y0089756D01*
X0254187Y0092684D01*
X0255186Y0095637D01*
X0256114Y0098613D01*
X0256969Y0101611D01*
X0257751Y0104628D01*
X0258461Y0107664D01*
X0259097Y0110716D01*
X0259659Y0113782D01*
X0260146Y0116861D01*
X0260559Y0119951D01*
X0260898Y0123050D01*
X0261161Y0126156D01*
X0261349Y0129268D01*
X0261462Y0132383D01*
X0261500Y0135500D01*
X0261462Y0138617D01*
X0261349Y0141732D01*
X0261161Y0144844D01*
X0260898Y0147950D01*
X0260559Y0151049D01*
X0260146Y0154139D01*
X0259659Y0157218D01*
X0259097Y0160284D01*
X0258461Y0163336D01*
X0257751Y0166372D01*
X0256969Y0169389D01*
X0256114Y0172387D01*
X0255186Y0175363D01*
X0254187Y0178316D01*
X0253117Y0181244D01*
X0251977Y0184145D01*
X0250766Y0187018D01*
X0249487Y0189861D01*
X0248139Y0192672D01*
X0246724Y0195449D01*
X0245242Y0198192D01*
X0243694Y0200898D01*
X0242081Y0203566D01*
X0240405Y0206194D01*
X0238665Y0208780D01*
X0236863Y0211324D01*
X0235001Y0213824D01*
X0233078Y0216278D01*
X0231097Y0218685D01*
X0229058Y0221043D01*
X0226963Y0223351D01*
X0224812Y0225608D01*
X0222608Y0227812D01*
X0220351Y0229963D01*
X0218043Y0232058D01*
X0215685Y0234097D01*
X0213278Y0236078D01*
X0210824Y0238001D01*
X0208324Y0239863D01*
X0205780Y0241665D01*
X0203194Y0243405D01*
X0200566Y0245081D01*
X0197898Y0246694D01*
X0195192Y0248242D01*
X0192449Y0249724D01*
X0189672Y0251139D01*
X0186861Y0252487D01*
X0184018Y0253766D01*
X0181145Y0254977D01*
X0178244Y0256117D01*
X0175316Y0257187D01*
X0172363Y0258186D01*
X0169387Y0259114D01*
X0166389Y0259969D01*
X0163372Y0260751D01*
X0160336Y0261461D01*
X0157284Y0262097D01*
X0154218Y0262659D01*
X0151139Y0263146D01*
X0148049Y0263559D01*
X0144950Y0263898D01*
X0141844Y0264161D01*
X0138732Y0264349D01*
X0135617Y0264462D01*
X0132500Y0264500D01*
X0129383Y0264462D01*
X0126268Y0264349D01*
X0123156Y0264161D01*
X0120050Y0263898D01*
X0116951Y0263559D01*
X0113861Y0263146D01*
X0110782Y0262659D01*
X0107716Y0262097D01*
X0104664Y0261461D01*
X0101628Y0260751D01*
X0098611Y0259969D01*
X0095613Y0259114D01*
X0092637Y0258186D01*
X0089684Y0257187D01*
X0086756Y0256117D01*
X0083855Y0254977D01*
X0080982Y0253766D01*
X0078139Y0252487D01*
X0075328Y0251139D01*
X0072551Y0249724D01*
X0069808Y0248242D01*
X0067102Y0246694D01*
X0064434Y0245081D01*
X0061806Y0243405D01*
X0059220Y0241665D01*
X0056676Y0239863D01*
X0054176Y0238001D01*
X0051722Y0236078D01*
X0049315Y0234097D01*
X0046957Y0232058D01*
X0044649Y0229963D01*
X0042392Y0227812D01*
X0040188Y0225608D01*
X0038037Y0223351D01*
X0035942Y0221043D01*
X0033903Y0218685D01*
X0031922Y0216278D01*
X0029999Y0213824D01*
X0028137Y0211324D01*
X0026335Y0208780D01*
X0024595Y0206194D01*
X0022919Y0203566D01*
X0021306Y0200898D01*
X0019758Y0198192D01*
X0018276Y0195449D01*
X0016861Y0192672D01*
X0015513Y0189861D01*
X0014234Y0187018D01*
X0013023Y0184145D01*
X0011883Y0181244D01*
X0010813Y0178316D01*
X0009814Y0175363D01*
X0008886Y0172387D01*
X0008031Y0169389D01*
X0007249Y0166372D01*
X0006539Y0163336D01*
X0005903Y0160284D01*
X0005341Y0157218D01*
X0004854Y0154139D01*
X0004441Y0151049D01*
X0004102Y0147950D01*
X0003839Y0144844D01*
X0003651Y0141732D01*
X0003538Y0138617D01*
X0003500Y0135500D01*
D11*
X0030300Y0123000D02*
X0046000Y0123000D01*
X0071100Y0123000D02*
X0105200Y0123000D01*
X0120000Y0108200D02*
X0120000Y0074000D01*
X0120000Y0049400D02*
X0120000Y0033300D01*
X0145000Y0033200D02*
X0145000Y0048900D01*
X0145000Y0074250D02*
X0145000Y0108100D01*
X0160000Y0123000D02*
X0193750Y0123000D01*
X0219100Y0123000D02*
X0234700Y0123000D01*
X0234700Y0148000D02*
X0219200Y0148000D01*
X0193850Y0148000D02*
X0159750Y0148000D01*
X0145000Y0162750D02*
X0145000Y0196750D01*
X0120000Y0196750D02*
X0120000Y0162850D01*
X0105350Y0148010D02*
X0071250Y0148000D01*
X0045800Y0148000D02*
X0030300Y0148000D01*
X0120000Y0222600D02*
X0120000Y0237800D01*
X0145000Y0237700D02*
X0145000Y0222600D01*
X0147104Y0222272D01*
X0149200Y0221892D01*
X0151286Y0221462D01*
X0153361Y0220981D01*
X0155424Y0220449D01*
X0157473Y0219868D01*
X0159508Y0219236D01*
X0161526Y0218556D01*
X0163527Y0217826D01*
X0165510Y0217048D01*
X0167473Y0216222D01*
X0169416Y0215348D01*
X0171337Y0214427D01*
X0173234Y0213459D01*
X0175108Y0212446D01*
X0176956Y0211388D01*
X0178778Y0210284D01*
X0180573Y0209137D01*
X0182339Y0207946D01*
X0184076Y0206713D01*
X0185782Y0205437D01*
X0187456Y0204121D01*
X0189098Y0202764D01*
X0190707Y0201367D01*
X0192281Y0199932D01*
X0193819Y0198459D01*
X0195321Y0196949D01*
X0196786Y0195402D01*
X0198213Y0193821D01*
X0199601Y0192205D01*
X0200949Y0190555D01*
X0202256Y0188874D01*
X0203522Y0187161D01*
X0204747Y0185418D01*
X0205928Y0183645D01*
X0207066Y0181845D01*
X0208159Y0180017D01*
X0209208Y0178163D01*
X0210211Y0176284D01*
X0211168Y0174381D01*
X0212079Y0172455D01*
X0212942Y0170508D01*
X0213758Y0168540D01*
X0214525Y0166553D01*
X0215244Y0164548D01*
X0215914Y0162526D01*
X0216534Y0160488D01*
X0217105Y0158436D01*
X0217625Y0156370D01*
X0218095Y0154293D01*
X0218514Y0152204D01*
X0218882Y0150106D01*
X0219199Y0148000D01*
X0160000Y0122999D02*
X0159693Y0122348D01*
X0159370Y0121704D01*
X0159032Y0121068D01*
X0158679Y0120440D01*
X0158311Y0119821D01*
X0157928Y0119211D01*
X0157530Y0118611D01*
X0157119Y0118020D01*
X0156693Y0117439D01*
X0156253Y0116869D01*
X0155800Y0116309D01*
X0155333Y0115760D01*
X0154854Y0115223D01*
X0154361Y0114697D01*
X0153857Y0114184D01*
X0153339Y0113682D01*
X0152811Y0113193D01*
X0152270Y0112717D01*
X0151718Y0112255D01*
X0151156Y0111805D01*
X0150582Y0111369D01*
X0149998Y0110947D01*
X0149405Y0110539D01*
X0148802Y0110146D01*
X0148189Y0109767D01*
X0147568Y0109403D01*
X0146938Y0109054D01*
X0146299Y0108720D01*
X0145653Y0108402D01*
X0145000Y0108099D01*
X0120000Y0073999D02*
X0118506Y0074322D01*
X0117021Y0074681D01*
X0115545Y0075076D01*
X0114079Y0075507D01*
X0112624Y0075974D01*
X0111181Y0076476D01*
X0109750Y0077013D01*
X0108333Y0077585D01*
X0106930Y0078192D01*
X0105543Y0078832D01*
X0104172Y0079506D01*
X0102817Y0080213D01*
X0101480Y0080954D01*
X0100162Y0081726D01*
X0098863Y0082531D01*
X0097584Y0083367D01*
X0096325Y0084234D01*
X0095088Y0085131D01*
X0093874Y0086059D01*
X0092682Y0087016D01*
X0091515Y0088001D01*
X0090371Y0089015D01*
X0089253Y0090056D01*
X0088160Y0091125D01*
X0087094Y0092219D01*
X0086055Y0093340D01*
X0085044Y0094485D01*
X0084060Y0095655D01*
X0083106Y0096849D01*
X0082181Y0098065D01*
X0081286Y0099304D01*
X0080422Y0100564D01*
X0079588Y0101845D01*
X0078786Y0103145D01*
X0078016Y0104465D01*
X0077279Y0105804D01*
X0076574Y0107160D01*
X0075903Y0108532D01*
X0075266Y0109921D01*
X0074662Y0111325D01*
X0074093Y0112743D01*
X0073559Y0114175D01*
X0073060Y0115619D01*
X0072596Y0117075D01*
X0072168Y0118542D01*
X0071776Y0120019D01*
X0071420Y0121505D01*
X0071100Y0122999D01*
X0105200Y0123000D02*
X0105503Y0122355D01*
X0105822Y0121718D01*
X0106157Y0121088D01*
X0106506Y0120467D01*
X0106869Y0119854D01*
X0107247Y0119250D01*
X0107640Y0118655D01*
X0108046Y0118069D01*
X0108467Y0117494D01*
X0108900Y0116928D01*
X0109348Y0116373D01*
X0109808Y0115829D01*
X0110281Y0115296D01*
X0110767Y0114774D01*
X0111265Y0114265D01*
X0111774Y0113767D01*
X0112296Y0113281D01*
X0112829Y0112808D01*
X0113373Y0112348D01*
X0113928Y0111900D01*
X0114494Y0111467D01*
X0115069Y0111046D01*
X0115655Y0110640D01*
X0116250Y0110247D01*
X0116854Y0109869D01*
X0117467Y0109506D01*
X0118088Y0109157D01*
X0118718Y0108822D01*
X0119355Y0108503D01*
X0120000Y0108200D01*
X0145000Y0033200D02*
X0147464Y0033533D01*
X0149919Y0033924D01*
X0152364Y0034375D01*
X0154798Y0034885D01*
X0157219Y0035453D01*
X0159625Y0036080D01*
X0162015Y0036765D01*
X0164388Y0037507D01*
X0166742Y0038306D01*
X0169077Y0039162D01*
X0171390Y0040074D01*
X0173680Y0041041D01*
X0175947Y0042063D01*
X0178188Y0043140D01*
X0180402Y0044271D01*
X0182589Y0045455D01*
X0184746Y0046691D01*
X0186873Y0047979D01*
X0188968Y0049318D01*
X0191030Y0050707D01*
X0193058Y0052145D01*
X0195051Y0053632D01*
X0197007Y0055167D01*
X0198926Y0056749D01*
X0200806Y0058376D01*
X0202646Y0060048D01*
X0204445Y0061764D01*
X0206202Y0063523D01*
X0207916Y0065324D01*
X0209586Y0067166D01*
X0211211Y0069048D01*
X0212791Y0070968D01*
X0214323Y0072926D01*
X0215808Y0074921D01*
X0217244Y0076950D01*
X0218631Y0079014D01*
X0219968Y0081111D01*
X0221253Y0083239D01*
X0222487Y0085397D01*
X0223668Y0087585D01*
X0224797Y0089801D01*
X0225871Y0092043D01*
X0226891Y0094311D01*
X0227856Y0096602D01*
X0228765Y0098916D01*
X0229618Y0101252D01*
X0230415Y0103607D01*
X0231154Y0105981D01*
X0231836Y0108372D01*
X0232460Y0110779D01*
X0233026Y0113200D01*
X0233533Y0115634D01*
X0233981Y0118080D01*
X0234370Y0120536D01*
X0234700Y0123000D01*
X0120000Y0162850D02*
X0119338Y0162532D01*
X0118684Y0162197D01*
X0118039Y0161847D01*
X0117402Y0161481D01*
X0116775Y0161099D01*
X0116157Y0160702D01*
X0115549Y0160290D01*
X0114951Y0159863D01*
X0114364Y0159422D01*
X0113788Y0158966D01*
X0113223Y0158497D01*
X0112670Y0158013D01*
X0112129Y0157517D01*
X0111601Y0157007D01*
X0111085Y0156484D01*
X0110582Y0155949D01*
X0110092Y0155402D01*
X0109616Y0154843D01*
X0109154Y0154272D01*
X0108705Y0153690D01*
X0108272Y0153097D01*
X0107853Y0152494D01*
X0107449Y0151881D01*
X0107060Y0151258D01*
X0106686Y0150626D01*
X0106328Y0149984D01*
X0105986Y0149334D01*
X0105660Y0148676D01*
X0105350Y0148010D01*
X0045800Y0148000D02*
X0046119Y0150105D01*
X0046488Y0152203D01*
X0046909Y0154291D01*
X0047380Y0156367D01*
X0047902Y0158432D01*
X0048474Y0160484D01*
X0049095Y0162521D01*
X0049766Y0164542D01*
X0050486Y0166546D01*
X0051254Y0168533D01*
X0052071Y0170500D01*
X0052935Y0172446D01*
X0053846Y0174371D01*
X0054804Y0176273D01*
X0055808Y0178152D01*
X0056857Y0180005D01*
X0057951Y0181832D01*
X0059089Y0183632D01*
X0060270Y0185404D01*
X0061494Y0187147D01*
X0062761Y0188859D01*
X0064068Y0190540D01*
X0065416Y0192189D01*
X0066804Y0193805D01*
X0068231Y0195386D01*
X0069695Y0196932D01*
X0071197Y0198442D01*
X0072735Y0199915D01*
X0074309Y0201350D01*
X0075917Y0202746D01*
X0077558Y0204103D01*
X0079232Y0205420D01*
X0080938Y0206695D01*
X0082674Y0207929D01*
X0084440Y0209120D01*
X0086234Y0210268D01*
X0088055Y0211371D01*
X0089903Y0212430D01*
X0091776Y0213444D01*
X0093673Y0214412D01*
X0095593Y0215334D01*
X0097534Y0216208D01*
X0099497Y0217035D01*
X0101479Y0217814D01*
X0103480Y0218545D01*
X0105497Y0219227D01*
X0107531Y0219859D01*
X0109579Y0220442D01*
X0111641Y0220975D01*
X0113716Y0221457D01*
X0115801Y0221889D01*
X0117896Y0222270D01*
X0120000Y0222600D01*
X0045999Y0123000D02*
X0046338Y0120918D01*
X0046727Y0118844D01*
X0047166Y0116781D01*
X0047654Y0114728D01*
X0048192Y0112688D01*
X0048779Y0110661D01*
X0049414Y0108649D01*
X0050098Y0106653D01*
X0050829Y0104675D01*
X0051609Y0102714D01*
X0052435Y0100773D01*
X0053308Y0098852D01*
X0054226Y0096952D01*
X0055191Y0095076D01*
X0056200Y0093223D01*
X0057254Y0091395D01*
X0058351Y0089593D01*
X0059491Y0087818D01*
X0060674Y0086071D01*
X0061899Y0084353D01*
X0063165Y0082665D01*
X0064471Y0081009D01*
X0065817Y0079384D01*
X0067201Y0077792D01*
X0068624Y0076233D01*
X0070083Y0074710D01*
X0071579Y0073222D01*
X0073111Y0071771D01*
X0074677Y0070357D01*
X0076276Y0068981D01*
X0077908Y0067644D01*
X0079572Y0066347D01*
X0081267Y0065090D01*
X0082992Y0063875D01*
X0084745Y0062701D01*
X0086526Y0061570D01*
X0088334Y0060483D01*
X0090168Y0059439D01*
X0092026Y0058440D01*
X0093907Y0057486D01*
X0095812Y0056577D01*
X0097737Y0055715D01*
X0099683Y0054899D01*
X0101648Y0054131D01*
X0103631Y0053410D01*
X0105630Y0052737D01*
X0107646Y0052112D01*
X0109675Y0051537D01*
X0111718Y0051010D01*
X0113774Y0050533D01*
X0115840Y0050105D01*
X0117915Y0049728D01*
X0120000Y0049400D01*
X0193850Y0148000D02*
X0193526Y0149488D01*
X0193165Y0150967D01*
X0192769Y0152437D01*
X0192336Y0153898D01*
X0191869Y0155347D01*
X0191366Y0156784D01*
X0190829Y0158209D01*
X0190257Y0159621D01*
X0189651Y0161018D01*
X0189011Y0162399D01*
X0188338Y0163765D01*
X0187631Y0165114D01*
X0186892Y0166446D01*
X0186121Y0167759D01*
X0185318Y0169053D01*
X0184484Y0170327D01*
X0183619Y0171580D01*
X0182724Y0172812D01*
X0181800Y0174022D01*
X0180846Y0175209D01*
X0179863Y0176373D01*
X0178853Y0177512D01*
X0177815Y0178626D01*
X0176750Y0179715D01*
X0175659Y0180777D01*
X0174543Y0181813D01*
X0173402Y0182821D01*
X0172236Y0183801D01*
X0171047Y0184753D01*
X0169835Y0185675D01*
X0168602Y0186567D01*
X0167346Y0187430D01*
X0166071Y0188261D01*
X0164775Y0189061D01*
X0163460Y0189830D01*
X0162127Y0190566D01*
X0160777Y0191270D01*
X0159410Y0191940D01*
X0158026Y0192577D01*
X0156628Y0193180D01*
X0155216Y0193749D01*
X0153790Y0194284D01*
X0152351Y0194784D01*
X0150901Y0195248D01*
X0149440Y0195677D01*
X0147969Y0196071D01*
X0146489Y0196428D01*
X0145000Y0196750D01*
X0120000Y0237800D02*
X0117536Y0237468D01*
X0115080Y0237077D01*
X0112635Y0236626D01*
X0110202Y0236116D01*
X0107781Y0235548D01*
X0105375Y0234921D01*
X0102984Y0234237D01*
X0100611Y0233495D01*
X0098257Y0232696D01*
X0095922Y0231840D01*
X0093609Y0230928D01*
X0091318Y0229961D01*
X0089052Y0228939D01*
X0086811Y0227862D01*
X0084596Y0226731D01*
X0082410Y0225547D01*
X0080252Y0224311D01*
X0078126Y0223023D01*
X0076030Y0221684D01*
X0073968Y0220295D01*
X0071940Y0218857D01*
X0069947Y0217370D01*
X0067991Y0215835D01*
X0066072Y0214254D01*
X0064193Y0212626D01*
X0062352Y0210954D01*
X0060553Y0209238D01*
X0058796Y0207479D01*
X0057082Y0205678D01*
X0055412Y0203836D01*
X0053786Y0201954D01*
X0052207Y0200033D01*
X0050675Y0198075D01*
X0049190Y0196081D01*
X0047754Y0194051D01*
X0046367Y0191988D01*
X0045030Y0189891D01*
X0043745Y0187763D01*
X0042511Y0185604D01*
X0041329Y0183416D01*
X0040201Y0181200D01*
X0039127Y0178958D01*
X0038107Y0176690D01*
X0037142Y0174399D01*
X0036233Y0172085D01*
X0035380Y0169749D01*
X0034584Y0167394D01*
X0033844Y0165020D01*
X0033162Y0162629D01*
X0032539Y0160222D01*
X0031973Y0157800D01*
X0031466Y0155366D01*
X0031018Y0152920D01*
X0030629Y0150465D01*
X0030300Y0148000D01*
X0145000Y0048900D02*
X0147094Y0049229D01*
X0149180Y0049608D01*
X0151255Y0050038D01*
X0153320Y0050517D01*
X0155373Y0051047D01*
X0157412Y0051626D01*
X0159436Y0052255D01*
X0161445Y0052932D01*
X0163436Y0053658D01*
X0165410Y0054432D01*
X0167364Y0055253D01*
X0169298Y0056122D01*
X0171210Y0057037D01*
X0173099Y0057998D01*
X0174965Y0059004D01*
X0176805Y0060056D01*
X0178620Y0061151D01*
X0180407Y0062291D01*
X0182167Y0063473D01*
X0183897Y0064697D01*
X0185597Y0065963D01*
X0187266Y0067270D01*
X0188903Y0068617D01*
X0190507Y0070003D01*
X0192077Y0071428D01*
X0193611Y0072890D01*
X0195110Y0074389D01*
X0196572Y0075923D01*
X0197997Y0077493D01*
X0199383Y0079097D01*
X0200730Y0080734D01*
X0202037Y0082403D01*
X0203303Y0084103D01*
X0204527Y0085833D01*
X0205709Y0087593D01*
X0206849Y0089380D01*
X0207944Y0091195D01*
X0208996Y0093035D01*
X0210002Y0094901D01*
X0210963Y0096790D01*
X0211878Y0098702D01*
X0212747Y0100636D01*
X0213568Y0102590D01*
X0214342Y0104564D01*
X0215068Y0106555D01*
X0215745Y0108564D01*
X0216374Y0110588D01*
X0216953Y0112627D01*
X0217483Y0114680D01*
X0217962Y0116745D01*
X0218392Y0118820D01*
X0218771Y0120906D01*
X0219100Y0123000D01*
X0193749Y0123000D02*
X0193427Y0121513D01*
X0193069Y0120035D01*
X0192676Y0118565D01*
X0192246Y0117106D01*
X0191781Y0115657D01*
X0191281Y0114220D01*
X0190747Y0112796D01*
X0190177Y0111385D01*
X0189574Y0109988D01*
X0188936Y0108607D01*
X0188265Y0107241D01*
X0187562Y0105893D01*
X0186825Y0104561D01*
X0186056Y0103248D01*
X0185256Y0101955D01*
X0184424Y0100681D01*
X0183562Y0099427D01*
X0182669Y0098195D01*
X0181746Y0096985D01*
X0180795Y0095798D01*
X0179814Y0094635D01*
X0178806Y0093496D01*
X0177770Y0092381D01*
X0176707Y0091293D01*
X0175619Y0090230D01*
X0174504Y0089194D01*
X0173365Y0088186D01*
X0172202Y0087205D01*
X0171015Y0086254D01*
X0169805Y0085331D01*
X0168573Y0084438D01*
X0167319Y0083576D01*
X0166045Y0082744D01*
X0164752Y0081944D01*
X0163439Y0081175D01*
X0162107Y0080438D01*
X0160759Y0079735D01*
X0159393Y0079064D01*
X0158012Y0078426D01*
X0156615Y0077823D01*
X0155204Y0077253D01*
X0153780Y0076719D01*
X0152343Y0076219D01*
X0150894Y0075754D01*
X0149435Y0075324D01*
X0147965Y0074931D01*
X0146487Y0074573D01*
X0145000Y0074251D01*
X0234700Y0148000D02*
X0234368Y0150462D01*
X0233976Y0152916D01*
X0233526Y0155360D01*
X0233017Y0157792D01*
X0232449Y0160211D01*
X0231824Y0162615D01*
X0231140Y0165004D01*
X0230399Y0167376D01*
X0229601Y0169729D01*
X0228746Y0172062D01*
X0227835Y0174374D01*
X0226869Y0176663D01*
X0225848Y0178928D01*
X0224773Y0181168D01*
X0223644Y0183381D01*
X0222461Y0185567D01*
X0221227Y0187723D01*
X0219940Y0189849D01*
X0218603Y0191943D01*
X0217216Y0194005D01*
X0215779Y0196032D01*
X0214294Y0198024D01*
X0212761Y0199979D01*
X0211182Y0201898D01*
X0209557Y0203777D01*
X0207886Y0205617D01*
X0206172Y0207415D01*
X0204415Y0209172D01*
X0202617Y0210886D01*
X0200777Y0212557D01*
X0198898Y0214182D01*
X0196979Y0215761D01*
X0195024Y0217294D01*
X0193032Y0218779D01*
X0191005Y0220216D01*
X0188943Y0221603D01*
X0186849Y0222940D01*
X0184723Y0224227D01*
X0182567Y0225461D01*
X0180381Y0226644D01*
X0178168Y0227773D01*
X0175928Y0228848D01*
X0173663Y0229869D01*
X0171374Y0230835D01*
X0169062Y0231746D01*
X0166729Y0232601D01*
X0164376Y0233399D01*
X0162004Y0234140D01*
X0159615Y0234824D01*
X0157211Y0235449D01*
X0154792Y0236017D01*
X0152360Y0236526D01*
X0149916Y0236976D01*
X0147462Y0237368D01*
X0145000Y0237700D01*
X0120000Y0196750D02*
X0118514Y0196428D01*
X0117035Y0196069D01*
X0115566Y0195675D01*
X0114106Y0195246D01*
X0112658Y0194781D01*
X0111221Y0194280D01*
X0109797Y0193745D01*
X0108386Y0193176D01*
X0106990Y0192572D01*
X0105608Y0191934D01*
X0104243Y0191263D01*
X0102894Y0190559D01*
X0101563Y0189823D01*
X0100250Y0189054D01*
X0098956Y0188253D01*
X0097683Y0187421D01*
X0096429Y0186559D01*
X0095198Y0185666D01*
X0093988Y0184744D01*
X0092801Y0183792D01*
X0091638Y0182811D01*
X0090498Y0181803D01*
X0089384Y0180767D01*
X0088295Y0179705D01*
X0087233Y0178616D01*
X0086197Y0177502D01*
X0085189Y0176362D01*
X0084208Y0175199D01*
X0083256Y0174012D01*
X0082334Y0172802D01*
X0081441Y0171571D01*
X0080579Y0170317D01*
X0079747Y0169044D01*
X0078946Y0167750D01*
X0078177Y0166437D01*
X0077441Y0165106D01*
X0076737Y0163757D01*
X0076066Y0162392D01*
X0075428Y0161010D01*
X0074824Y0159614D01*
X0074255Y0158203D01*
X0073720Y0156779D01*
X0073219Y0155342D01*
X0072754Y0153894D01*
X0072325Y0152434D01*
X0071931Y0150965D01*
X0071572Y0149486D01*
X0071250Y0148000D01*
X0145000Y0162750D02*
X0145664Y0162435D01*
X0146320Y0162105D01*
X0146968Y0161758D01*
X0147607Y0161396D01*
X0148237Y0161018D01*
X0148857Y0160625D01*
X0149468Y0160216D01*
X0150068Y0159793D01*
X0150658Y0159355D01*
X0151237Y0158903D01*
X0151805Y0158437D01*
X0152361Y0157957D01*
X0152906Y0157464D01*
X0153438Y0156957D01*
X0153957Y0156438D01*
X0154464Y0155906D01*
X0154957Y0155361D01*
X0155437Y0154805D01*
X0155903Y0154237D01*
X0156355Y0153658D01*
X0156793Y0153068D01*
X0157216Y0152468D01*
X0157625Y0151857D01*
X0158018Y0151237D01*
X0158396Y0150607D01*
X0158758Y0149968D01*
X0159105Y0149320D01*
X0159435Y0148664D01*
X0159750Y0148000D01*
X0120000Y0033300D02*
X0117537Y0033631D01*
X0115083Y0034022D01*
X0112640Y0034472D01*
X0110207Y0034980D01*
X0107788Y0035548D01*
X0105383Y0036173D01*
X0102994Y0036856D01*
X0100622Y0037597D01*
X0098269Y0038395D01*
X0095936Y0039249D01*
X0093624Y0040160D01*
X0091334Y0041126D01*
X0089069Y0042146D01*
X0086829Y0043222D01*
X0084615Y0044351D01*
X0082429Y0045533D01*
X0080273Y0046767D01*
X0078147Y0048053D01*
X0076052Y0049391D01*
X0073991Y0050778D01*
X0071963Y0052214D01*
X0069971Y0053700D01*
X0068015Y0055232D01*
X0066097Y0056812D01*
X0064217Y0058437D01*
X0062378Y0060107D01*
X0060579Y0061822D01*
X0058822Y0063579D01*
X0057107Y0065378D01*
X0055437Y0067217D01*
X0053812Y0069097D01*
X0052232Y0071015D01*
X0050700Y0072971D01*
X0049214Y0074963D01*
X0047778Y0076991D01*
X0046391Y0079052D01*
X0045053Y0081147D01*
X0043767Y0083273D01*
X0042533Y0085429D01*
X0041351Y0087615D01*
X0040222Y0089829D01*
X0039146Y0092069D01*
X0038126Y0094334D01*
X0037160Y0096624D01*
X0036249Y0098936D01*
X0035395Y0101269D01*
X0034597Y0103622D01*
X0033856Y0105994D01*
X0033173Y0108383D01*
X0032548Y0110788D01*
X0031980Y0113207D01*
X0031472Y0115640D01*
X0031022Y0118083D01*
X0030631Y0120537D01*
X0030300Y0123000D01*
D12*
X0094660Y0044727D02*
X0095277Y0044110D01*
X0097129Y0044110D01*
X0095277Y0044110D01*
X0094660Y0044727D01*
X0094660Y0045962D01*
X0095277Y0046579D01*
X0097129Y0046579D01*
X0095277Y0046579D01*
X0094660Y0045962D01*
X0094660Y0044727D01*
X0098343Y0044727D02*
X0098343Y0046579D01*
X0098343Y0044727D01*
X0098960Y0044110D01*
X0100812Y0044110D01*
X0100812Y0046579D01*
X0100812Y0044110D01*
X0098960Y0044110D01*
X0098343Y0044727D01*
X0102026Y0046579D02*
X0103261Y0046579D01*
X0102026Y0046579D01*
X0102643Y0047196D02*
X0102643Y0044727D01*
X0103261Y0044110D01*
X0102643Y0044727D01*
X0102643Y0047196D01*
X0104482Y0045962D02*
X0104482Y0044727D01*
X0105099Y0044110D01*
X0106333Y0044110D01*
X0106950Y0044727D01*
X0106950Y0045962D01*
X0106333Y0046579D01*
X0105099Y0046579D01*
X0104482Y0045962D01*
X0104482Y0044727D01*
X0105099Y0044110D01*
X0106333Y0044110D01*
X0106950Y0044727D01*
X0106950Y0045962D01*
X0106333Y0046579D01*
X0105099Y0046579D01*
X0104482Y0045962D01*
X0108165Y0046579D02*
X0108165Y0044727D01*
X0108782Y0044110D01*
X0110634Y0044110D01*
X0110634Y0046579D01*
X0110634Y0044110D01*
X0108782Y0044110D01*
X0108165Y0044727D01*
X0108165Y0046579D01*
X0111848Y0046579D02*
X0113082Y0046579D01*
X0111848Y0046579D01*
X0112465Y0047196D02*
X0112465Y0044727D01*
X0113082Y0044110D01*
X0112465Y0044727D01*
X0112465Y0047196D01*
X0149690Y0044572D02*
X0149690Y0043337D01*
X0150307Y0042720D01*
X0152159Y0042720D01*
X0153373Y0043337D02*
X0153990Y0042720D01*
X0155842Y0042720D01*
X0155842Y0045189D01*
X0157056Y0045189D02*
X0158291Y0045189D01*
X0157673Y0045806D02*
X0157673Y0043337D01*
X0158291Y0042720D01*
X0159512Y0043337D02*
X0160129Y0042720D01*
X0161363Y0042720D01*
X0161980Y0043337D01*
X0161980Y0044572D01*
X0161363Y0045189D01*
X0160129Y0045189D01*
X0159512Y0044572D01*
X0159512Y0043337D01*
X0163195Y0043337D02*
X0163812Y0042720D01*
X0165664Y0042720D01*
X0165664Y0045189D01*
X0166878Y0045189D02*
X0168112Y0045189D01*
X0167495Y0045806D02*
X0167495Y0043337D01*
X0168112Y0042720D01*
X0163195Y0043337D02*
X0163195Y0045189D01*
X0153373Y0045189D02*
X0153373Y0043337D01*
X0152159Y0045189D02*
X0150307Y0045189D01*
X0149690Y0044572D01*
X0154287Y0101290D02*
X0156139Y0101290D01*
X0154287Y0101290D01*
X0153670Y0101907D01*
X0153670Y0103142D01*
X0154287Y0103759D01*
X0156139Y0103759D01*
X0154287Y0103759D01*
X0153670Y0103142D01*
X0153670Y0101907D01*
X0154287Y0101290D01*
X0157353Y0101907D02*
X0157353Y0103759D01*
X0157353Y0101907D01*
X0157970Y0101290D01*
X0159822Y0101290D01*
X0159822Y0103759D01*
X0159822Y0101290D01*
X0157970Y0101290D01*
X0157353Y0101907D01*
X0161036Y0103759D02*
X0162271Y0103759D01*
X0161036Y0103759D01*
X0161653Y0104376D02*
X0161653Y0101907D01*
X0162271Y0101290D01*
X0161653Y0101907D01*
X0161653Y0104376D01*
X0163492Y0103142D02*
X0163492Y0101907D01*
X0164109Y0101290D01*
X0165343Y0101290D01*
X0165960Y0101907D01*
X0165960Y0103142D01*
X0165343Y0103759D01*
X0164109Y0103759D01*
X0163492Y0103142D01*
X0163492Y0101907D01*
X0164109Y0101290D01*
X0165343Y0101290D01*
X0165960Y0101907D01*
X0165960Y0103142D01*
X0165343Y0103759D01*
X0164109Y0103759D01*
X0163492Y0103142D01*
X0167175Y0103759D02*
X0167175Y0101907D01*
X0167792Y0101290D01*
X0169644Y0101290D01*
X0169644Y0103759D01*
X0169644Y0101290D01*
X0167792Y0101290D01*
X0167175Y0101907D01*
X0167175Y0103759D01*
X0170858Y0103759D02*
X0172092Y0103759D01*
X0170858Y0103759D01*
X0171475Y0104376D02*
X0171475Y0101907D01*
X0172092Y0101290D01*
X0171475Y0101907D01*
X0171475Y0104376D01*
X0110702Y0104159D02*
X0109468Y0104159D01*
X0110702Y0104159D01*
X0110085Y0104776D02*
X0110085Y0102307D01*
X0110702Y0101690D01*
X0110085Y0102307D01*
X0110085Y0104776D01*
X0108254Y0104159D02*
X0108254Y0101690D01*
X0106402Y0101690D01*
X0105785Y0102307D01*
X0105785Y0104159D01*
X0105785Y0102307D01*
X0106402Y0101690D01*
X0108254Y0101690D01*
X0108254Y0104159D01*
X0104570Y0103542D02*
X0103953Y0104159D01*
X0102719Y0104159D01*
X0102102Y0103542D01*
X0102102Y0102307D01*
X0102719Y0101690D01*
X0103953Y0101690D01*
X0104570Y0102307D01*
X0104570Y0103542D01*
X0103953Y0104159D01*
X0102719Y0104159D01*
X0102102Y0103542D01*
X0102102Y0102307D01*
X0102719Y0101690D01*
X0103953Y0101690D01*
X0104570Y0102307D01*
X0104570Y0103542D01*
X0100881Y0104159D02*
X0099646Y0104159D01*
X0100881Y0104159D01*
X0100263Y0104776D02*
X0100263Y0102307D01*
X0100881Y0101690D01*
X0100263Y0102307D01*
X0100263Y0104776D01*
X0098432Y0104159D02*
X0098432Y0101690D01*
X0096580Y0101690D01*
X0095963Y0102307D01*
X0095963Y0104159D01*
X0095963Y0102307D01*
X0096580Y0101690D01*
X0098432Y0101690D01*
X0098432Y0104159D01*
X0094749Y0104159D02*
X0092897Y0104159D01*
X0092280Y0103542D01*
X0092280Y0102307D01*
X0092897Y0101690D01*
X0094749Y0101690D01*
X0092897Y0101690D01*
X0092280Y0102307D01*
X0092280Y0103542D01*
X0092897Y0104159D01*
X0094749Y0104159D01*
X0095877Y0165030D02*
X0097729Y0165030D01*
X0095877Y0165030D01*
X0095260Y0165647D01*
X0095260Y0166882D01*
X0095877Y0167499D01*
X0097729Y0167499D01*
X0095877Y0167499D01*
X0095260Y0166882D01*
X0095260Y0165647D01*
X0095877Y0165030D01*
X0098943Y0165647D02*
X0098943Y0167499D01*
X0098943Y0165647D01*
X0099560Y0165030D01*
X0101412Y0165030D01*
X0101412Y0167499D01*
X0101412Y0165030D01*
X0099560Y0165030D01*
X0098943Y0165647D01*
X0102626Y0167499D02*
X0103861Y0167499D01*
X0102626Y0167499D01*
X0103243Y0168116D02*
X0103243Y0165647D01*
X0103861Y0165030D01*
X0103243Y0165647D01*
X0103243Y0168116D01*
X0105082Y0166882D02*
X0105082Y0165647D01*
X0105699Y0165030D01*
X0106933Y0165030D01*
X0107550Y0165647D01*
X0107550Y0166882D01*
X0106933Y0167499D01*
X0105699Y0167499D01*
X0105082Y0166882D01*
X0105082Y0165647D01*
X0105699Y0165030D01*
X0106933Y0165030D01*
X0107550Y0165647D01*
X0107550Y0166882D01*
X0106933Y0167499D01*
X0105699Y0167499D01*
X0105082Y0166882D01*
X0108765Y0167499D02*
X0108765Y0165647D01*
X0109382Y0165030D01*
X0111234Y0165030D01*
X0111234Y0167499D01*
X0111234Y0165030D01*
X0109382Y0165030D01*
X0108765Y0165647D01*
X0108765Y0167499D01*
X0112448Y0167499D02*
X0113682Y0167499D01*
X0112448Y0167499D01*
X0113065Y0168116D02*
X0113065Y0165647D01*
X0113682Y0165030D01*
X0113065Y0165647D01*
X0113065Y0168116D01*
X0155260Y0167617D02*
X0155877Y0167000D01*
X0157729Y0167000D01*
X0155877Y0167000D01*
X0155260Y0167617D01*
X0155260Y0168852D01*
X0155877Y0169469D01*
X0157729Y0169469D01*
X0155877Y0169469D01*
X0155260Y0168852D01*
X0155260Y0167617D01*
X0158943Y0167617D02*
X0159560Y0167000D01*
X0161412Y0167000D01*
X0161412Y0169469D01*
X0161412Y0167000D01*
X0159560Y0167000D01*
X0158943Y0167617D01*
X0158943Y0169469D01*
X0158943Y0167617D01*
X0162626Y0169469D02*
X0163861Y0169469D01*
X0162626Y0169469D01*
X0163243Y0170086D02*
X0163243Y0167617D01*
X0163861Y0167000D01*
X0163243Y0167617D01*
X0163243Y0170086D01*
X0165082Y0168852D02*
X0165082Y0167617D01*
X0165699Y0167000D01*
X0166933Y0167000D01*
X0167550Y0167617D01*
X0167550Y0168852D01*
X0166933Y0169469D01*
X0165699Y0169469D01*
X0165082Y0168852D01*
X0165082Y0167617D01*
X0165699Y0167000D01*
X0166933Y0167000D01*
X0167550Y0167617D01*
X0167550Y0168852D01*
X0166933Y0169469D01*
X0165699Y0169469D01*
X0165082Y0168852D01*
X0168765Y0169469D02*
X0168765Y0167617D01*
X0169382Y0167000D01*
X0171234Y0167000D01*
X0171234Y0169469D01*
X0171234Y0167000D01*
X0169382Y0167000D01*
X0168765Y0167617D01*
X0168765Y0169469D01*
X0172448Y0169469D02*
X0173682Y0169469D01*
X0172448Y0169469D01*
X0173065Y0170086D02*
X0173065Y0167617D01*
X0173682Y0167000D01*
X0173065Y0167617D01*
X0173065Y0170086D01*
X0171292Y0224980D02*
X0170675Y0225597D01*
X0170675Y0228066D01*
X0170675Y0225597D01*
X0171292Y0224980D01*
X0168844Y0224980D02*
X0168844Y0227449D01*
X0168844Y0224980D01*
X0166992Y0224980D01*
X0166375Y0225597D01*
X0166375Y0227449D01*
X0166375Y0225597D01*
X0166992Y0224980D01*
X0168844Y0224980D01*
X0170058Y0227449D02*
X0171292Y0227449D01*
X0170058Y0227449D01*
X0165160Y0226832D02*
X0165160Y0225597D01*
X0164543Y0224980D01*
X0163309Y0224980D01*
X0162692Y0225597D01*
X0162692Y0226832D01*
X0163309Y0227449D01*
X0164543Y0227449D01*
X0165160Y0226832D01*
X0164543Y0227449D01*
X0163309Y0227449D01*
X0162692Y0226832D01*
X0162692Y0225597D01*
X0163309Y0224980D01*
X0164543Y0224980D01*
X0165160Y0225597D01*
X0165160Y0226832D01*
X0161471Y0227449D02*
X0160236Y0227449D01*
X0161471Y0227449D01*
X0160853Y0228066D02*
X0160853Y0225597D01*
X0161471Y0224980D01*
X0160853Y0225597D01*
X0160853Y0228066D01*
X0159022Y0227449D02*
X0159022Y0224980D01*
X0157170Y0224980D01*
X0156553Y0225597D01*
X0156553Y0227449D01*
X0156553Y0225597D01*
X0157170Y0224980D01*
X0159022Y0224980D01*
X0159022Y0227449D01*
X0155339Y0227449D02*
X0153487Y0227449D01*
X0152870Y0226832D01*
X0152870Y0225597D01*
X0153487Y0224980D01*
X0155339Y0224980D01*
X0153487Y0224980D01*
X0152870Y0225597D01*
X0152870Y0226832D01*
X0153487Y0227449D01*
X0155339Y0227449D01*
X0113682Y0225859D02*
X0112448Y0225859D01*
X0113065Y0226476D02*
X0113065Y0224007D01*
X0113682Y0223390D01*
X0111234Y0223390D02*
X0111234Y0225859D01*
X0111234Y0223390D02*
X0109382Y0223390D01*
X0108765Y0224007D01*
X0108765Y0225859D01*
X0107550Y0225242D02*
X0106933Y0225859D01*
X0105699Y0225859D01*
X0105082Y0225242D01*
X0105082Y0224007D01*
X0105699Y0223390D01*
X0106933Y0223390D01*
X0107550Y0224007D01*
X0107550Y0225242D01*
X0103861Y0225859D02*
X0102626Y0225859D01*
X0103243Y0226476D02*
X0103243Y0224007D01*
X0103861Y0223390D01*
X0101412Y0223390D02*
X0101412Y0225859D01*
X0098943Y0225859D02*
X0098943Y0224007D01*
X0099560Y0223390D01*
X0101412Y0223390D01*
X0097729Y0223390D02*
X0095877Y0223390D01*
X0095260Y0224007D01*
X0095260Y0225242D01*
X0095877Y0225859D01*
X0097729Y0225859D01*
M02*
