%
M48
M72
T01C0.0197
%
T01
X4050Y5550
X4630Y6933
X4350Y7450
X2350Y8150
X3220Y9533
X3050Y9950
X1250Y11250
X2520Y12132
X2450Y12750
X1650Y13350
X1650Y13750
X1050Y14450
X2350Y15550
X2558Y14939
X3950Y13750
X3950Y13350
X5150Y14350
X6750Y14850
X6750Y15350
X7650Y17250
X7850Y17750
X9550Y19050
X9950Y19550
X11450Y19950
X12400Y19050
X14100Y19050
X14550Y20050
X15150Y20150
X14250Y21650
X12850Y20850
X10900Y21500
X12432Y23480
X11432Y24080
X10950Y25550
X12150Y25650
X12950Y24950
X13350Y24950
X14639Y24242
X14032Y23480
X17150Y24850
X17363Y23488
X17950Y23550
X19825Y22092
X20350Y21950
X19950Y23450
X22450Y21550
X21770Y20067
X22150Y19650
X24250Y18950
X23280Y17667
X23450Y17150
X25250Y15950
X23980Y14968
X24050Y14350
X24850Y13750
X24850Y13350
X25450Y12650
X23942Y12161
X23850Y11550
X23288Y9437
X23050Y8950
X24750Y9550
X23350Y6750
X21792Y6975
X21450Y6450
X19767Y5030
X19350Y4650
X21250Y4350
X18650Y2650
X17367Y3520
X16850Y3350
X15650Y1550
X14668Y2820
X13950Y2750
X14032Y3580
X13450Y4350
X13050Y4350
X12432Y3580
X11761Y2858
X11250Y2850
X12450Y1350
X13050Y1950
X13450Y1950
X12450Y5350
X11350Y6950
X11950Y7050
X14050Y6750
X14550Y7050
X15550Y5750
X16550Y7550
X16900Y8000
X18450Y7150
X18650Y9350
X18750Y9950
X20450Y9650
X19850Y11750
X19750Y12250
X21450Y12750
X22550Y13350
X22550Y13750
X21150Y15950
X19750Y14850
X20050Y14350
X17500Y13750
X17500Y13350
X14700Y14300
X14400Y14700
X13900Y15200
X12600Y13700
X13100Y12900
X13900Y13400
X14400Y12400
X14000Y12050
X12100Y12400
X11750Y12800
X12100Y14700
X9000Y13750
X9000Y13350
X6650Y12250
X6450Y12750
X5500Y11150
X7250Y10250
X7650Y9850
X6950Y8350
X8950Y8150
X9550Y8050
X9350Y6350
X8550Y3750
X9137Y3612
X9250Y2050
X9250Y2050
X6450Y3350
X6675Y5008
X6150Y5350
X13050Y9300
X13450Y9300
X19250Y16850
X18750Y17250
X19550Y18750
X17450Y18950
X16950Y19150
X17150Y20850
X9650Y23850
X9033Y23480
X7950Y24450
X7050Y22650
X6633Y22070
X5250Y22750
X4850Y20650
X4608Y20125
X3150Y20350
X3250Y18250
X3212Y17663
X1650Y17550
X5950Y17450
X8050Y19850
M30
