G75*
%MOIN*%
%OFA0B0*%
%FSLAX25Y25*%
%IPPOS*%
%LPD*%
%AMOC8*
5,1,8,0,0,1.08239X$1,22.5*
%
%ADD10C,0.00400*%
D10*
X0121850Y0231251D02*
X0121850Y0232786D01*
X0121850Y0232018D02*
X0126454Y0232018D01*
X0126454Y0231251D02*
X0126454Y0232786D01*
X0126454Y0234320D02*
X0121850Y0237390D01*
X0126454Y0237390D01*
X0126454Y0238924D02*
X0126454Y0241226D01*
X0125686Y0241994D01*
X0124152Y0241994D01*
X0123384Y0241226D01*
X0123384Y0238924D01*
X0121850Y0238924D02*
X0126454Y0238924D01*
X0129850Y0239553D02*
X0130617Y0240320D01*
X0132152Y0240320D01*
X0132152Y0238786D01*
X0133686Y0240320D02*
X0134454Y0239553D01*
X0134454Y0238018D01*
X0133686Y0237251D01*
X0130617Y0237251D01*
X0129850Y0238018D01*
X0129850Y0239553D01*
X0129850Y0241855D02*
X0134454Y0241855D01*
X0129850Y0244924D01*
X0134454Y0244924D01*
X0134454Y0246459D02*
X0134454Y0248761D01*
X0133686Y0249528D01*
X0130617Y0249528D01*
X0129850Y0248761D01*
X0129850Y0246459D01*
X0134454Y0246459D01*
X0137820Y0246919D02*
X0137820Y0249221D01*
X0138587Y0249988D01*
X0141656Y0249988D01*
X0142424Y0249221D01*
X0142424Y0246919D01*
X0137820Y0246919D01*
X0138587Y0245384D02*
X0141656Y0245384D01*
X0142424Y0244617D01*
X0142424Y0242315D01*
X0137820Y0242315D01*
X0137820Y0244617D01*
X0138587Y0245384D01*
X0139354Y0240780D02*
X0142424Y0240780D01*
X0142424Y0237711D02*
X0139354Y0237711D01*
X0137820Y0239246D01*
X0139354Y0240780D01*
X0126454Y0243528D02*
X0122617Y0243528D01*
X0121850Y0244296D01*
X0121850Y0245830D01*
X0122617Y0246598D01*
X0126454Y0246598D01*
X0126454Y0248132D02*
X0126454Y0251202D01*
X0126454Y0249667D02*
X0121850Y0249667D01*
X0121850Y0234320D02*
X0126454Y0234320D01*
M02*
